RobotoCondensed-Italic.ufo
<glyph name="exclam" format="1">
  <advance width="504"/>
  <unicode hex="0021"/>
  <outline>
    <contour>
      <point x="477" y="1456" type="line"/>
      <point x="281" y="1456" type="line"/>
      <point x="143" y="412" type="line"/>
      <point x="311" y="412" type="line"/>
    </contour>
    <contour>
      <point x="83" y="94" type="curve" smooth="yes"/>
      <point x="83" y="29"/>
      <point x="127" y="-15"/>
      <point x="187" y="-13" type="curve" smooth="yes"/>
      <point x="247" y="-11"/>
      <point x="290" y="35"/>
      <point x="290" y="100" type="curve" smooth="yes"/>
      <point x="290" y="166"/>
      <point x="245" y="211"/>
      <point x="184" y="209" type="curve" smooth="yes"/>
      <point x="124" y="207"/>
      <point x="82" y="160"/>
    </contour>
  </outline>
</glyph>
<glyph name="quotedbl" format="1">
  <advance width="651"/>
  <unicode hex="0022"/>
  <outline>
    <contour>
      <point x="424" y="1536" type="line"/>
      <point x="277" y="1536" type="line"/>
      <point x="254" y="1391" type="line"/>
      <point x="198" y="1036" type="line"/>
      <point x="315" y="1036" type="line"/>
      <point x="401" y="1390" type="line"/>
    </contour>
    <contour>
      <point x="693" y="1536" type="line"/>
      <point x="547" y="1536" type="line"/>
      <point x="525" y="1399" type="line"/>
      <point x="468" y="1036" type="line"/>
      <point x="585" y="1036" type="line"/>
      <point x="671" y="1392" type="line"/>
    </contour>
  </outline>
</glyph>
<glyph name="numbersign" format="1">
  <advance width="1105"/>
  <unicode hex="0023"/>
  <outline>
    <contour>
      <point x="165" y="0" type="line"/>
      <point x="310" y="0" type="line"/>
      <point x="759" y="1456" type="line"/>
      <point x="614" y="1456" type="line"/>
    </contour>
    <contour>
      <point x="493" y="0" type="line"/>
      <point x="639" y="0" type="line"/>
      <point x="1088" y="1456" type="line"/>
      <point x="942" y="1456" type="line"/>
    </contour>
    <contour>
      <point x="1085" y="894" type="line"/>
      <point x="1110" y="1040" type="line"/>
      <point x="261" y="1040" type="line"/>
      <point x="237" y="894" type="line"/>
    </contour>
    <contour>
      <point x="956" y="410" type="line"/>
      <point x="981" y="555" type="line"/>
      <point x="131" y="555" type="line"/>
      <point x="107" y="410" type="line"/>
    </contour>
  </outline>
</glyph>
<glyph name="dollar" format="1">
  <advance width="985"/>
  <unicode hex="0024"/>
  <outline>
    <contour>
      <point x="732" y="1695" type="line"/>
      <point x="584" y="1695" type="line"/>
      <point x="537" y="1383" type="line"/>
      <point x="684" y="1383" type="line"/>
    </contour>
    <contour>
      <point x="499" y="62" type="line"/>
      <point x="352" y="62" type="line"/>
      <point x="311" y="-208" type="line"/>
      <point x="458" y="-208" type="line"/>
    </contour>
    <contour>
      <point x="665" y="385" type="curve" smooth="yes"/>
      <point x="652" y="228"/>
      <point x="549" y="147"/>
      <point x="428" y="150" type="curve" smooth="yes"/>
      <point x="300" y="154"/>
      <point x="266" y="281"/>
      <point x="271" y="431" type="curve"/>
      <point x="84" y="431" type="line"/>
      <point x="75" y="169"/>
      <point x="191" y="-17"/>
      <point x="409" y="-21" type="curve" smooth="yes"/>
      <point x="641" y="-26"/>
      <point x="837" y="114"/>
      <point x="851" y="387" type="curve" smooth="yes"/>
      <point x="862" y="620"/>
      <point x="740" y="735"/>
      <point x="573" y="814" type="curve" smooth="yes"/>
      <point x="478" y="862"/>
      <point x="393" y="926"/>
      <point x="403" y="1073" type="curve" smooth="yes"/>
      <point x="414" y="1215"/>
      <point x="485" y="1310"/>
      <point x="600" y="1306" type="curve" smooth="yes"/>
      <point x="727" y="1301"/>
      <point x="742" y="1137"/>
      <point x="737" y="1005" type="curve"/>
      <point x="922" y="1005" type="line"/>
      <point x="934" y="1258"/>
      <point x="846" y="1471"/>
      <point x="627" y="1476" type="curve" smooth="yes"/>
      <point x="398" y="1482"/>
      <point x="230" y="1323"/>
      <point x="217" y="1069" type="curve" smooth="yes"/>
      <point x="207" y="836"/>
      <point x="333" y="716"/>
      <point x="501" y="640" type="curve" smooth="yes"/>
      <point x="591" y="596"/>
      <point x="676" y="525"/>
    </contour>
  </outline>
</glyph>
<glyph name="percent" format="1">
  <advance width="1255"/>
  <unicode hex="0025"/>
  <outline>
    <contour>
      <point x="179" y="1099" type="line" smooth="yes"/>
      <point x="172" y="936"/>
      <point x="264" y="803"/>
      <point x="406" y="800" type="curve" smooth="yes"/>
      <point x="557" y="796"/>
      <point x="667" y="927"/>
      <point x="680" y="1099" type="curve" smooth="yes"/>
      <point x="685" y="1176" type="line" smooth="yes"/>
      <point x="693" y="1340"/>
      <point x="603" y="1473"/>
      <point x="459" y="1477" type="curve" smooth="yes"/>
      <point x="308" y="1481"/>
      <point x="197" y="1348"/>
      <point x="183" y="1175" type="curve" smooth="yes"/>
    </contour>
    <contour>
      <point x="321" y="1176" type="line" smooth="yes"/>
      <point x="330" y="1268"/>
      <point x="377" y="1355"/>
      <point x="456" y="1352" type="curve" smooth="yes"/>
      <point x="531" y="1350"/>
      <point x="554" y="1261"/>
      <point x="550" y="1177" type="curve" smooth="yes"/>
      <point x="543" y="1099" type="line" smooth="yes"/>
      <point x="534" y="1008"/>
      <point x="488" y="922"/>
      <point x="409" y="925" type="curve" smooth="yes"/>
      <point x="335" y="927"/>
      <point x="311" y="1013"/>
      <point x="315" y="1097" type="curve" smooth="yes"/>
    </contour>
    <contour>
      <point x="625" y="279" type="line" smooth="yes"/>
      <point x="618" y="115"/>
      <point x="709" y="-18"/>
      <point x="852" y="-22" type="curve" smooth="yes"/>
      <point x="1004" y="-26"/>
      <point x="1113" y="107"/>
      <point x="1127" y="279" type="curve" smooth="yes"/>
      <point x="1132" y="357" type="line" smooth="yes"/>
      <point x="1139" y="521"/>
      <point x="1048" y="655"/>
      <point x="905" y="658" type="curve" smooth="yes"/>
      <point x="754" y="662"/>
      <point x="643" y="529"/>
      <point x="630" y="357" type="curve" smooth="yes"/>
    </contour>
    <contour>
      <point x="768" y="357" type="line" smooth="yes"/>
      <point x="776" y="449"/>
      <point x="824" y="535"/>
      <point x="902" y="532" type="curve" smooth="yes"/>
      <point x="977" y="530"/>
      <point x="1000" y="442"/>
      <point x="996" y="358" type="curve" smooth="yes"/>
      <point x="989" y="279" type="line" smooth="yes"/>
      <point x="980" y="187"/>
      <point x="935" y="101"/>
      <point x="856" y="104" type="curve" smooth="yes"/>
      <point x="781" y="106"/>
      <point x="758" y="193"/>
      <point x="761" y="277" type="curve" smooth="yes"/>
    </contour>
    <contour>
      <point x="1065" y="1239" type="line"/>
      <point x="967" y="1314" type="line"/>
      <point x="228" y="186" type="line"/>
      <point x="327" y="111" type="line"/>
    </contour>
  </outline>
</glyph>
<glyph name="ampersand" format="1">
  <advance width="1085"/>
  <unicode hex="0026"/>
  <outline>
    <contour>
      <point x="384" y="812" type="line" smooth="yes"/>
      <point x="246" y="711"/>
      <point x="84" y="596"/>
      <point x="73" y="387" type="curve" smooth="yes"/>
      <point x="61" y="136"/>
      <point x="222" y="-14"/>
      <point x="425" y="-19" type="curve" smooth="yes"/>
      <point x="540" y="-23"/>
      <point x="666" y="27"/>
      <point x="764" y="137" type="curve" smooth="yes"/>
      <point x="775" y="150"/>
      <point x="782" y="168"/>
      <point x="794" y="181" type="curve" smooth="yes"/>
      <point x="912" y="315"/>
      <point x="984" y="471"/>
      <point x="1000" y="676" type="curve"/>
      <point x="836" y="676" type="line"/>
      <point x="809" y="428"/>
      <point x="627" y="131"/>
      <point x="432" y="139" type="curve" smooth="yes"/>
      <point x="316" y="144"/>
      <point x="248" y="239"/>
      <point x="263" y="387" type="curve" smooth="yes"/>
      <point x="273" y="492"/>
      <point x="341" y="572"/>
      <point x="403" y="629" type="curve" smooth="yes"/>
      <point x="680" y="845" type="line" smooth="yes"/>
      <point x="782" y="925"/>
      <point x="869" y="1023"/>
      <point x="874" y="1173" type="curve" smooth="yes"/>
      <point x="880" y="1355"/>
      <point x="748" y="1472"/>
      <point x="600" y="1476" type="curve" smooth="yes"/>
      <point x="405" y="1482"/>
      <point x="267" y="1333"/>
      <point x="256" y="1111" type="curve" smooth="yes"/>
      <point x="249" y="944"/>
      <point x="351" y="803"/>
      <point x="424" y="672" type="curve" smooth="yes"/>
      <point x="778" y="0" type="line"/>
      <point x="986" y="0" type="line"/>
      <point x="543" y="826" type="line" smooth="yes"/>
      <point x="498" y="911"/>
      <point x="430" y="1009"/>
      <point x="439" y="1117" type="curve" smooth="yes"/>
      <point x="448" y="1221"/>
      <point x="502" y="1318"/>
      <point x="590" y="1317" type="curve" smooth="yes"/>
      <point x="654" y="1317"/>
      <point x="705" y="1259"/>
      <point x="700" y="1174" type="curve" smooth="yes"/>
      <point x="693" y="1072"/>
      <point x="640" y="1015"/>
      <point x="573" y="963" type="curve" smooth="yes"/>
    </contour>
  </outline>
</glyph>
<glyph name="quotesingle" format="1">
  <advance width="349"/>
  <unicode hex="0027"/>
  <outline>
    <contour>
      <point x="400" y="1536" type="line"/>
      <point x="243" y="1536" type="line"/>
      <point x="223" y="1413" type="line"/>
      <point x="167" y="1052" type="line"/>
      <point x="303" y="1052" type="line"/>
      <point x="381" y="1421" type="line"/>
    </contour>
  </outline>
</glyph>
<glyph name="parenleft" format="1">
  <advance width="635"/>
  <unicode hex="0028"/>
  <outline>
    <contour>
      <point x="123" y="578" type="line" smooth="yes"/>
      <point x="84" y="227"/>
      <point x="142" y="-251"/>
      <point x="414" y="-470" type="curve"/>
      <point x="459" y="-354" type="line"/>
      <point x="265" y="-134"/>
      <point x="277" y="291"/>
      <point x="311" y="579" type="curve" smooth="yes"/>
      <point x="312" y="593" type="line" smooth="yes"/>
      <point x="357" y="942"/>
      <point x="461" y="1293"/>
      <point x="701" y="1515" type="curve"/>
      <point x="670" y="1647" type="line"/>
      <point x="346" y="1455"/>
      <point x="173" y="984"/>
      <point x="124" y="588" type="curve" smooth="yes"/>
    </contour>
  </outline>
</glyph>
<glyph name="parenright" format="1">
  <advance width="645"/>
  <unicode hex="0029"/>
  <outline>
    <contour>
      <point x="509" y="598" type="line" smooth="yes"/>
      <point x="548" y="947"/>
      <point x="492" y="1426"/>
      <point x="218" y="1645" type="curve"/>
      <point x="174" y="1527" type="line"/>
      <point x="362" y="1310"/>
      <point x="355" y="879"/>
      <point x="322" y="596" type="curve" smooth="yes"/>
      <point x="320" y="582" type="line" smooth="yes"/>
      <point x="276" y="231"/>
      <point x="171" y="-127"/>
      <point x="-69" y="-351" type="curve"/>
      <point x="-42" y="-471" type="line"/>
      <point x="286" y="-285"/>
      <point x="461" y="192"/>
      <point x="508" y="587" type="curve" smooth="yes"/>
    </contour>
  </outline>
</glyph>
<glyph name="asterisk" format="1">
  <advance width="858"/>
  <unicode hex="002A"/>
  <outline>
    <contour>
      <point x="140" y="718" type="line"/>
      <point x="263" y="615" type="line"/>
      <point x="479" y="889" type="line"/>
      <point x="604" y="603" type="line"/>
      <point x="741" y="695" type="line"/>
      <point x="598" y="966" type="line"/>
      <point x="908" y="1054" type="line"/>
      <point x="887" y="1222" type="line"/>
      <point x="591" y="1116" type="line"/>
      <point x="660" y="1457" type="line"/>
      <point x="501" y="1457" type="line"/>
      <point x="451" y="1113" type="line"/>
      <point x="179" y="1224" type="line"/>
      <point x="106" y="1073" type="line"/>
      <point x="376" y="986" type="line"/>
    </contour>
  </outline>
</glyph>
<glyph name="plus" format="1">
  <advance width="989"/>
  <unicode hex="002B"/>
  <outline>
    <contour>
      <point x="930" y="788" type="line"/>
      <point x="115" y="788" type="line"/>
      <point x="84" y="603" type="line"/>
      <point x="898" y="603" type="line"/>
    </contour>
    <contour>
      <point x="676" y="1206" type="line"/>
      <point x="490" y="1206" type="line"/>
      <point x="335" y="146" type="line"/>
      <point x="521" y="146" type="line"/>
    </contour>
  </outline>
</glyph>
<glyph name="comma" format="1">
  <advance width="393"/>
  <unicode hex="002C"/>
  <outline>
    <contour>
      <point x="243" y="225" type="move" name="_bottom"/>
    </contour>
    <contour>
      <point x="27" y="72" type="move" name="_right"/>
    </contour>
    <contour>
      <point x="244" y="225" type="line"/>
      <point x="53" y="225" type="line"/>
      <point x="26" y="72" type="line" smooth="yes"/>
      <point x="6" y="-38"/>
      <point x="-51" y="-129"/>
      <point x="-119" y="-216" type="curve"/>
      <point x="-12" y="-294" type="line"/>
      <point x="107" y="-204"/>
      <point x="195" y="-73"/>
      <point x="219" y="76" type="curve" smooth="yes"/>
    </contour>
  </outline>
</glyph>
<glyph name="hyphen" format="1">
  <advance width="490"/>
  <unicode hex="002D"/>
  <outline>
    <contour>
      <point x="462" y="695" type="line"/>
      <point x="58" y="695" type="line"/>
      <point x="31" y="535" type="line"/>
      <point x="435" y="535" type="line"/>
    </contour>
  </outline>
</glyph>
<glyph name="period" format="1">
  <advance width="534"/>
  <unicode hex="002E"/>
  <outline>
    <contour>
      <point x="53" y="99" type="curve" smooth="yes"/>
      <point x="53" y="30"/>
      <point x="103" y="-15"/>
      <point x="171" y="-13" type="curve" smooth="yes"/>
      <point x="239" y="-11"/>
      <point x="289" y="36"/>
      <point x="290" y="105" type="curve" smooth="yes"/>
      <point x="291" y="174"/>
      <point x="241" y="222"/>
      <point x="172" y="220" type="curve" smooth="yes"/>
      <point x="102" y="218"/>
      <point x="54" y="168"/>
    </contour>
  </outline>
</glyph>
<glyph name="slash" format="1">
  <advance width="745"/>
  <unicode hex="002F"/>
  <outline>
    <contour>
      <point x="809" y="1456" type="line"/>
      <point x="645" y="1456" type="line"/>
      <point x="-82" y="-125" type="line"/>
      <point x="84" y="-125" type="line"/>
    </contour>
  </outline>
</glyph>
<glyph name="zero" format="1">
  <advance width="985"/>
  <unicode hex="0030"/>
  <outline>
    <contour>
      <point x="905" y="842" type="line" smooth="yes"/>
      <point x="936" y="1135"/>
      <point x="909" y="1468"/>
      <point x="604" y="1476" type="curve" smooth="yes"/>
      <point x="283" y="1485"/>
      <point x="181" y="1161"/>
      <point x="143" y="842" type="curve" smooth="yes"/>
      <point x="118" y="624" type="line" smooth="yes"/>
      <point x="89" y="335"/>
      <point x="113" y="-12"/>
      <point x="419" y="-20" type="curve" smooth="yes"/>
      <point x="742" y="-29"/>
      <point x="841" y="307"/>
      <point x="880" y="625" type="curve" smooth="yes"/>
    </contour>
    <contour>
      <point x="689" y="592" type="line" smooth="yes"/>
      <point x="670" y="401"/>
      <point x="627" y="128"/>
      <point x="430" y="139" type="curve" smooth="yes"/>
      <point x="255" y="149"/>
      <point x="286" y="437"/>
      <point x="300" y="591" type="curve" smooth="yes"/>
      <point x="335" y="876" type="line" smooth="yes"/>
      <point x="355" y="1069"/>
      <point x="399" y="1327"/>
      <point x="594" y="1317" type="curve" smooth="yes"/>
      <point x="769" y="1308"/>
      <point x="739" y="1036"/>
      <point x="724" y="877" type="curve" smooth="yes"/>
    </contour>
  </outline>
</glyph>
<glyph name="one" format="1">
  <advance width="985"/>
  <unicode hex="0031"/>
  <outline>
    <contour>
      <point x="754" y="1464" type="line"/>
      <point x="721" y="1464" type="line"/>
      <point x="251" y="1267" type="line"/>
      <point x="220" y="1081" type="line"/>
      <point x="532" y="1215" type="line"/>
      <point x="359" y="0" type="line"/>
      <point x="546" y="0" type="line"/>
    </contour>
  </outline>
</glyph>
<glyph name="two" format="1">
  <advance width="985"/>
  <unicode hex="0032"/>
  <outline>
    <contour>
      <point x="856" y="160" type="line"/>
      <point x="285" y="160" type="line"/>
      <point x="649" y="578" type="line" smooth="yes"/>
      <point x="768" y="712"/>
      <point x="908" y="888"/>
      <point x="920" y="1094" type="curve" smooth="yes"/>
      <point x="935" y="1332"/>
      <point x="780" y="1472"/>
      <point x="592" y="1476" type="curve" smooth="yes"/>
      <point x="356" y="1481"/>
      <point x="168" y="1303"/>
      <point x="150" y="1026" type="curve"/>
      <point x="335" y="1026" type="line"/>
      <point x="352" y="1198"/>
      <point x="437" y="1323"/>
      <point x="585" y="1317" type="curve" smooth="yes"/>
      <point x="690" y="1313"/>
      <point x="740" y="1200"/>
      <point x="729" y="1071" type="curve" smooth="yes"/>
      <point x="714" y="908"/>
      <point x="591" y="778"/>
      <point x="503" y="670" type="curve" smooth="yes"/>
      <point x="54" y="149" type="line"/>
      <point x="31" y="0" type="line"/>
      <point x="831" y="0" type="line"/>
    </contour>
  </outline>
</glyph>
<glyph name="three" format="1">
  <advance width="985"/>
  <unicode hex="0033"/>
  <outline>
    <contour>
      <point x="362" y="823" type="line"/>
      <point x="344" y="706" type="line"/>
      <point x="496" y="705" type="line" smooth="yes"/>
      <point x="678" y="706"/>
      <point x="887" y="847"/>
      <point x="900" y="1069" type="curve" smooth="yes"/>
      <point x="914" y="1316"/>
      <point x="777" y="1473"/>
      <point x="571" y="1477" type="curve" smooth="yes"/>
      <point x="368" y="1480"/>
      <point x="181" y="1323"/>
      <point x="167" y="1075" type="curve"/>
      <point x="352" y="1076" type="line"/>
      <point x="368" y="1221"/>
      <point x="445" y="1321"/>
      <point x="562" y="1318" type="curve" smooth="yes"/>
      <point x="679" y="1315"/>
      <point x="720" y="1216"/>
      <point x="711" y="1075" type="curve" smooth="yes"/>
      <point x="699" y="907"/>
      <point x="594" y="823"/>
      <point x="466" y="822" type="curve" smooth="yes"/>
    </contour>
    <contour>
      <point x="338" y="663" type="line"/>
      <point x="462" y="662" type="line" smooth="yes"/>
      <point x="584" y="658"/>
      <point x="651" y="574"/>
      <point x="641" y="412" type="curve" smooth="yes"/>
      <point x="630" y="247"/>
      <point x="545" y="136"/>
      <point x="411" y="140" type="curve" smooth="yes"/>
      <point x="298" y="144"/>
      <point x="247" y="241"/>
      <point x="250" y="383" type="curve"/>
      <point x="64" y="384" type="line"/>
      <point x="59" y="138"/>
      <point x="202" y="-16"/>
      <point x="403" y="-20" type="curve" smooth="yes"/>
      <point x="627" y="-26"/>
      <point x="811" y="147"/>
      <point x="826" y="415" type="curve" smooth="yes"/>
      <point x="839" y="668"/>
      <point x="698" y="775"/>
      <point x="484" y="778" type="curve" smooth="yes"/>
      <point x="355" y="779" type="line"/>
    </contour>
  </outline>
</glyph>
<glyph name="four" format="1">
  <advance width="985"/>
  <unicode hex="0034"/>
  <outline>
    <contour>
      <point x="910" y="493" type="line"/>
      <point x="252" y="493" type="line"/>
      <point x="661" y="1149" type="line"/>
      <point x="854" y="1456" type="line"/>
      <point x="694" y="1456" type="line"/>
      <point x="36" y="459" type="line"/>
      <point x="14" y="333" type="line"/>
      <point x="883" y="333" type="line"/>
    </contour>
    <contour>
      <point x="897" y="1456" type="line"/>
      <point x="719" y="1456" type="line"/>
      <point x="497" y="0" type="line"/>
      <point x="684" y="0" type="line"/>
    </contour>
  </outline>
</glyph>
<glyph name="six" format="1">
  <advance width="985"/>
  <unicode hex="0036"/>
  <outline>
    <contour>
      <point x="802" y="1457" type="line" smooth="yes"/>
      <point x="372" y="1456"/>
      <point x="185" y="1080"/>
      <point x="131" y="623" type="curve" smooth="yes"/>
      <point x="124" y="543" type="line" smooth="yes"/>
      <point x="100" y="284"/>
      <point x="193" y="-13"/>
      <point x="444" y="-20" type="curve" smooth="yes"/>
      <point x="694" y="-27"/>
      <point x="851" y="207"/>
      <point x="872" y="482" type="curve" smooth="yes"/>
      <point x="887" y="717"/>
      <point x="798" y="946"/>
      <point x="580" y="955" type="curve" smooth="yes"/>
      <point x="377" y="963"/>
      <point x="247" y="769"/>
      <point x="199" y="535" type="curve"/>
      <point x="295" y="534" type="line"/>
      <point x="330" y="674"/>
      <point x="420" y="799"/>
      <point x="541" y="794" type="curve" smooth="yes"/>
      <point x="670" y="789"/>
      <point x="695" y="610"/>
      <point x="686" y="472" type="curve" smooth="yes"/>
      <point x="675" y="309"/>
      <point x="601" y="135"/>
      <point x="452" y="142" type="curve" smooth="yes"/>
      <point x="304" y="148"/>
      <point x="302" y="396"/>
      <point x="312" y="536" type="curve" smooth="yes"/>
      <point x="331" y="702" type="line"/>
      <point x="334" y="753" type="line"/>
      <point x="381" y="1063"/>
      <point x="534" y="1294"/>
      <point x="795" y="1291" type="curve" smooth="yes"/>
      <point x="805" y="1291" type="line"/>
      <point x="820" y="1457" type="line"/>
    </contour>
  </outline>
</glyph>
<glyph name="seven" format="1">
  <advance width="985"/>
  <unicode hex="0037"/>
  <outline>
    <contour>
      <point x="1013" y="1456" type="line"/>
      <point x="196" y="1456" type="line"/>
      <point x="171" y="1296" type="line"/>
      <point x="789" y="1296" type="line"/>
      <point x="139" y="0" type="line"/>
      <point x="344" y="0" type="line"/>
      <point x="995" y="1336" type="line"/>
    </contour>
  </outline>
</glyph>
<glyph name="eight" format="1">
  <advance width="985"/>
  <unicode hex="0038"/>
  <outline>
    <contour>
      <point x="838" y="404" type="curve" smooth="yes"/>
      <point x="849" y="641"/>
      <point x="713" y="791"/>
      <point x="523" y="795" type="curve" smooth="yes"/>
      <point x="316" y="800"/>
      <point x="98" y="644"/>
      <point x="85" y="387" type="curve" smooth="yes"/>
      <point x="74" y="140"/>
      <point x="218" y="-15"/>
      <point x="418" y="-20" type="curve" smooth="yes"/>
      <point x="637" y="-26"/>
      <point x="826" y="136"/>
    </contour>
    <contour>
      <point x="655" y="408" type="curve" smooth="yes"/>
      <point x="643" y="247"/>
      <point x="559" y="135"/>
      <point x="428" y="139" type="curve" smooth="yes"/>
      <point x="310" y="142"/>
      <point x="265" y="247"/>
      <point x="274" y="392" type="curve" smooth="yes"/>
      <point x="285" y="549"/>
      <point x="370" y="675"/>
      <point x="500" y="671" type="curve" smooth="yes"/>
      <point x="617" y="667"/>
      <point x="664" y="548"/>
    </contour>
    <contour>
      <point x="914" y="1084" type="curve" smooth="yes"/>
      <point x="925" y="1317"/>
      <point x="796" y="1471"/>
      <point x="603" y="1476" type="curve" smooth="yes"/>
      <point x="393" y="1482"/>
      <point x="223" y="1320"/>
      <point x="212" y="1067" type="curve" smooth="yes"/>
      <point x="203" y="847"/>
      <point x="327" y="703"/>
      <point x="502" y="699" type="curve" smooth="yes"/>
      <point x="694" y="694"/>
      <point x="902" y="847"/>
    </contour>
    <contour>
      <point x="725" y="1081" type="curve" smooth="yes"/>
      <point x="716" y="941"/>
      <point x="644" y="826"/>
      <point x="529" y="829" type="curve" smooth="yes"/>
      <point x="425" y="832"/>
      <point x="389" y="940"/>
      <point x="396" y="1064" type="curve" smooth="yes"/>
      <point x="405" y="1203"/>
      <point x="478" y="1321"/>
      <point x="593" y="1317" type="curve" smooth="yes"/>
      <point x="695" y="1314"/>
      <point x="733" y="1202"/>
    </contour>
  </outline>
</glyph>
<glyph name="nine" format="1">
  <advance width="985"/>
  <unicode hex="0039"/>
  <outline>
    <contour>
      <point x="212" y="165" type="line"/>
      <point x="197" y="0" type="line"/>
      <point x="213" y="0" type="line" smooth="yes"/>
      <point x="654" y="-3"/>
      <point x="835" y="366"/>
      <point x="886" y="828" type="curve" smooth="yes"/>
      <point x="890" y="888" type="line" smooth="yes"/>
      <point x="916" y="1156"/>
      <point x="839" y="1469"/>
      <point x="574" y="1476" type="curve" smooth="yes"/>
      <point x="324" y="1483"/>
      <point x="170" y="1241"/>
      <point x="151" y="967" type="curve" smooth="yes"/>
      <point x="135" y="735"/>
      <point x="222" y="493"/>
      <point x="441" y="488" type="curve" smooth="yes"/>
      <point x="642" y="483"/>
      <point x="762" y="714"/>
      <point x="822" y="943" type="curve"/>
      <point x="737" y="943" type="line"/>
      <point x="705" y="794"/>
      <point x="608" y="645"/>
      <point x="480" y="650" type="curve" smooth="yes"/>
      <point x="350" y="655"/>
      <point x="327" y="841"/>
      <point x="336" y="978" type="curve" smooth="yes"/>
      <point x="346" y="1140"/>
      <point x="418" y="1321"/>
      <point x="565" y="1315" type="curve" smooth="yes"/>
      <point x="708" y="1308"/>
      <point x="718" y="1052"/>
      <point x="708" y="914" type="curve" smooth="yes"/>
      <point x="688" y="752" type="line"/>
      <point x="689" y="686" type="line"/>
      <point x="631" y="366"/>
      <point x="495" y="162"/>
      <point x="220" y="165" type="curve" smooth="yes"/>
    </contour>
  </outline>
</glyph>
<glyph name="less" format="1">
  <advance width="885"/>
  <unicode hex="003C"/>
  <outline>
    <contour>
      <point x="204" y="671" type="line"/>
      <point x="89" y="689" type="line"/>
      <point x="70" y="574" type="line"/>
      <point x="677" y="195" type="line"/>
      <point x="711" y="393" type="line"/>
    </contour>
    <contour>
      <point x="777" y="888" type="line"/>
      <point x="814" y="1106" type="line"/>
      <point x="96" y="728" type="line"/>
      <point x="74" y="599" type="line"/>
      <point x="217" y="615" type="line"/>
    </contour>
  </outline>
</glyph>
<glyph name="equal" format="1">
  <advance width="951"/>
  <unicode hex="003D"/>
  <outline>
    <contour>
      <point x="884" y="982" type="line"/>
      <point x="204" y="982" type="line"/>
      <point x="175" y="812" type="line"/>
      <point x="855" y="812" type="line"/>
    </contour>
    <contour>
      <point x="824" y="566" type="line"/>
      <point x="143" y="566" type="line"/>
      <point x="114" y="396" type="line"/>
      <point x="795" y="396" type="line"/>
    </contour>
  </outline>
</glyph>
<glyph name="greater" format="1">
  <advance width="917"/>
  <unicode hex="003E"/>
  <outline>
    <contour>
      <point x="706" y="630" type="line"/>
      <point x="835" y="603" type="line"/>
      <point x="855" y="719" type="line"/>
      <point x="208" y="1097" type="line"/>
      <point x="176" y="905" type="line"/>
    </contour>
    <contour>
      <point x="108" y="399" type="line"/>
      <point x="72" y="186" type="line"/>
      <point x="829" y="565" type="line"/>
      <point x="851" y="694" type="line"/>
      <point x="692" y="670" type="line"/>
    </contour>
  </outline>
</glyph>
<glyph name="question" format="1">
  <advance width="848"/>
  <unicode hex="003F"/>
  <outline>
    <contour>
      <point x="465" y="411" type="line"/>
      <point x="476" y="511"/>
      <point x="504" y="594"/>
      <point x="567" y="660" type="curve" smooth="yes"/>
      <point x="685" y="777"/>
      <point x="823" y="907"/>
      <point x="836" y="1103" type="curve" smooth="yes"/>
      <point x="850" y="1329"/>
      <point x="723" y="1472"/>
      <point x="535" y="1476" type="curve" smooth="yes"/>
      <point x="343" y="1481"/>
      <point x="173" y="1347"/>
      <point x="156" y="1115" type="curve"/>
      <point x="341" y="1116" type="line"/>
      <point x="358" y="1236"/>
      <point x="428" y="1311"/>
      <point x="523" y="1307" type="curve" smooth="yes"/>
      <point x="616" y="1304"/>
      <point x="654" y="1213"/>
      <point x="644" y="1099" type="curve" smooth="yes"/>
      <point x="632" y="965"/>
      <point x="541" y="885"/>
      <point x="467" y="801" type="curve" smooth="yes"/>
      <point x="357" y="685"/>
      <point x="295" y="585"/>
      <point x="282" y="410" type="curve"/>
    </contour>
    <contour>
      <point x="227" y="94" type="curve" smooth="yes"/>
      <point x="227" y="29"/>
      <point x="272" y="-15"/>
      <point x="332" y="-13" type="curve" smooth="yes"/>
      <point x="392" y="-11"/>
      <point x="434" y="34"/>
      <point x="434" y="100" type="curve" smooth="yes"/>
      <point x="434" y="165"/>
      <point x="389" y="211"/>
      <point x="329" y="209" type="curve" smooth="yes"/>
      <point x="268" y="207"/>
      <point x="227" y="159"/>
    </contour>
  </outline>
</glyph>
<glyph name="at" format="1">
  <advance width="1522"/>
  <unicode hex="0040"/>
  <outline>
    <contour>
      <point x="915" y="-366" type="curve"/>
      <point x="889" y="-244" type="line"/>
      <point x="801" y="-295"/>
      <point x="704" y="-323"/>
      <point x="605" y="-321" type="curve" smooth="yes"/>
      <point x="232" y="-316"/>
      <point x="182" y="104"/>
      <point x="236" y="472" type="curve" smooth="yes"/>
      <point x="296" y="883"/>
      <point x="525" y="1303"/>
      <point x="907" y="1295" type="curve" smooth="yes"/>
      <point x="1290" y="1288"/>
      <point x="1342" y="894"/>
      <point x="1290" y="507" type="curve" smooth="yes"/>
      <point x="1270" y="352"/>
      <point x="1202" y="93"/>
      <point x="1040" y="102" type="curve" smooth="yes"/>
      <point x="950" y="107"/>
      <point x="975" y="256"/>
      <point x="985" y="331" type="curve" smooth="yes"/>
      <point x="1093" y="886" type="line"/>
      <point x="1018" y="950"/>
      <point x="947" y="989"/>
      <point x="852" y="991" type="curve" smooth="yes"/>
      <point x="607" y="996"/>
      <point x="468" y="649"/>
      <point x="435" y="408" type="curve" smooth="yes"/>
      <point x="410" y="239"/>
      <point x="425" y="-17"/>
      <point x="615" y="-22" type="curve" smooth="yes"/>
      <point x="705" y="-24"/>
      <point x="775" y="59"/>
      <point x="830" y="143" type="curve"/>
      <point x="850" y="35"/>
      <point x="926" y="-19"/>
      <point x="1012" y="-21" type="curve" smooth="yes"/>
      <point x="1258" y="-28"/>
      <point x="1381" y="258"/>
      <point x="1416" y="506" type="curve" smooth="yes"/>
      <point x="1478" y="962"/>
      <point x="1351" y="1426"/>
      <point x="910" y="1433" type="curve" smooth="yes"/>
      <point x="462" y="1440"/>
      <point x="160" y="957"/>
      <point x="91" y="473" type="curve" smooth="yes"/>
      <point x="25" y="14"/>
      <point x="163" y="-447"/>
      <point x="604" y="-453" type="curve" smooth="yes"/>
      <point x="708" y="-454"/>
      <point x="825" y="-433"/>
    </contour>
    <contour>
      <point x="598" y="407" type="curve" smooth="yes"/>
      <point x="620" y="578"/>
      <point x="689" y="865"/>
      <point x="869" y="858" type="curve" smooth="yes"/>
      <point x="894" y="857"/>
      <point x="916" y="848"/>
      <point x="941" y="833" type="curve"/>
      <point x="829" y="316" type="line"/>
      <point x="796" y="239"/>
      <point x="750" y="125"/>
      <point x="675" y="128" type="curve" smooth="yes"/>
      <point x="569" y="132"/>
      <point x="587" y="317"/>
    </contour>
  </outline>
</glyph>
<glyph name="A" format="1">
  <advance width="1159"/>
  <unicode hex="0041"/>
  <outline>
    <contour>
      <point x="728" y="1600" type="move" name="top"/>
    </contour>
    <contour>
      <point x="504" y="0" type="move" name="bottom"/>
    </contour>
    <contour>
      <point x="1028" y="0" type="move" name="right"/>
    </contour>
    <contour>
      <point x="459" y="1454" type="move" name="tonos"/>
    </contour>
    <contour>
      <point x="991" y="0" type="move" name="ogonek"/>
    </contour>
    <contour>
      <point x="1284" y="1600" type="move" name="top_dd"/>
    </contour>
    <contour>
      <point x="993" y="-407" type="move" name="bottom_dd"/>
    </contour>
    <contour>
      <point x="1284" y="1600" type="move" name="top0315"/>
    </contour>
    <contour>
      <point x="721" y="1308" type="line"/>
      <point x="746" y="1456" type="line"/>
      <point x="618" y="1456" type="line"/>
      <point x="-50" y="0" type="line"/>
      <point x="157" y="0" type="line"/>
      <point x="394" y="531" type="line"/>
      <point x="394" y="534" type="line"/>
    </contour>
    <contour>
      <point x="838" y="0" type="line"/>
      <point x="1028" y="0" type="line"/>
      <point x="784" y="1456" type="line"/>
      <point x="663" y="1456" type="line"/>
      <point x="644" y="1332" type="line"/>
    </contour>
    <contour>
      <point x="930" y="543" type="line"/>
      <point x="238" y="543" type="line"/>
      <point x="209" y="376" type="line"/>
      <point x="901" y="376" type="line"/>
    </contour>
  </outline>
</glyph>
<glyph name="B" format="1">
  <advance width="1090"/>
  <unicode hex="0042"/>
  <outline>
    <contour>
      <point x="673" y="1612" type="move" name="top"/>
    </contour>
    <contour>
      <point x="448" y="10" type="move" name="bottom"/>
    </contour>
    <contour>
      <point x="1215" y="1600" type="move" name="top_dd"/>
    </contour>
    <contour>
      <point x="924" y="-407" type="move" name="bottom_dd"/>
    </contour>
    <contour>
      <point x="1217" y="1612" type="move" name="top0315"/>
    </contour>
    <contour>
      <point x="601" y="678" type="line"/>
      <point x="662" y="717" type="line"/>
      <point x="827" y="763"/>
      <point x="1008" y="864"/>
      <point x="1019" y="1075" type="curve" smooth="yes"/>
      <point x="1033" y="1339"/>
      <point x="880" y="1450"/>
      <point x="676" y="1455" type="curve" smooth="yes"/>
      <point x="274" y="1456" type="line"/>
      <point x="62" y="0" type="line"/>
      <point x="257" y="0" type="line"/>
      <point x="441" y="1289" type="line"/>
      <point x="672" y="1288" type="line" smooth="yes"/>
      <point x="779" y="1285"/>
      <point x="835" y="1227"/>
      <point x="823" y="1077" type="curve" smooth="yes"/>
      <point x="810" y="921"/>
      <point x="704" y="841"/>
      <point x="590" y="839" type="curve" smooth="yes"/>
      <point x="338" y="841" type="line"/>
      <point x="313" y="678" type="line"/>
    </contour>
    <contour>
      <point x="499" y="0" type="line" smooth="yes"/>
      <point x="731" y="-3"/>
      <point x="933" y="141"/>
      <point x="948" y="430" type="curve" smooth="yes"/>
      <point x="956" y="611"/>
      <point x="873" y="764"/>
      <point x="723" y="781" type="curve"/>
      <point x="689" y="840" type="line"/>
      <point x="386" y="841" type="line"/>
      <point x="356" y="678" type="line"/>
      <point x="603" y="677" type="line" smooth="yes"/>
      <point x="727" y="672"/>
      <point x="768" y="579"/>
      <point x="755" y="428" type="curve" smooth="yes"/>
      <point x="741" y="258"/>
      <point x="634" y="165"/>
      <point x="504" y="165" type="curve" smooth="yes"/>
      <point x="268" y="166" type="line"/>
      <point x="126" y="0" type="line"/>
    </contour>
  </outline>
</glyph>
<glyph name="C" format="1">
  <advance width="1128"/>
  <unicode hex="0043"/>
  <outline>
    <contour>
      <point x="724" y="1633" type="move" name="top"/>
    </contour>
    <contour>
      <point x="486" y="-10" type="move" name="bottom"/>
    </contour>
    <contour>
      <point x="1253" y="1600" type="move" name="top_dd"/>
    </contour>
    <contour>
      <point x="962" y="-407" type="move" name="bottom_dd"/>
    </contour>
    <contour>
      <point x="1258" y="1633" type="move" name="top0315"/>
    </contour>
    <contour>
      <point x="826" y="463" type="line"/>
      <point x="780" y="265"/>
      <point x="695" y="138"/>
      <point x="519" y="145" type="curve" smooth="yes"/>
      <point x="302" y="154"/>
      <point x="295" y="451"/>
      <point x="317" y="657" type="curve" smooth="yes"/>
      <point x="332" y="799" type="line" smooth="yes"/>
      <point x="362" y="1048"/>
      <point x="471" y="1318"/>
      <point x="708" y="1309" type="curve" smooth="yes"/>
      <point x="865" y="1303"/>
      <point x="900" y="1163"/>
      <point x="910" y="986" type="curve"/>
      <point x="1103" y="986" type="line"/>
      <point x="1091" y="1268"/>
      <point x="967" y="1470"/>
      <point x="716" y="1476" type="curve" smooth="yes"/>
      <point x="379" y="1484"/>
      <point x="182" y="1154"/>
      <point x="137" y="797" type="curve" smooth="yes"/>
      <point x="123" y="658" type="line" smooth="yes"/>
      <point x="88" y="336"/>
      <point x="195" y="-13"/>
      <point x="510" y="-20" type="curve" smooth="yes"/>
      <point x="771" y="-27"/>
      <point x="972" y="163"/>
      <point x="1018" y="465" type="curve"/>
    </contour>
  </outline>
</glyph>
<glyph name="D" format="1">
  <advance width="1136"/>
  <unicode hex="0044"/>
  <outline>
    <contour>
      <point x="668" y="1612" type="move" name="top"/>
    </contour>
    <contour>
      <point x="293" y="738" type="move" name="cross"/>
    </contour>
    <contour>
      <point x="439" y="10" type="move" name="bottom"/>
    </contour>
    <contour>
      <point x="1261" y="1600" type="move" name="top_dd"/>
    </contour>
    <contour>
      <point x="970" y="-407" type="move" name="bottom_dd"/>
    </contour>
    <contour>
      <point x="1263" y="1612" type="move" name="top0315"/>
    </contour>
    <contour>
      <point x="393" y="0" type="line" smooth="yes"/>
      <point x="732" y="0"/>
      <point x="970" y="213"/>
      <point x="1019" y="608" type="curve" smooth="yes"/>
      <point x="1046" y="847" type="line" smooth="yes"/>
      <point x="1083" y="1209"/>
      <point x="911" y="1448"/>
      <point x="600" y="1455" type="curve" smooth="yes"/>
      <point x="354" y="1456" type="line"/>
      <point x="325" y="1289" type="line"/>
      <point x="596" y="1288" type="line" smooth="yes"/>
      <point x="823" y="1282"/>
      <point x="879" y="1106"/>
      <point x="853" y="850" type="curve" smooth="yes"/>
      <point x="826" y="608" type="line" smooth="yes"/>
      <point x="790" y="317"/>
      <point x="641" y="165"/>
      <point x="398" y="165" type="curve" smooth="yes"/>
      <point x="175" y="166" type="line"/>
      <point x="146" y="0" type="line"/>
    </contour>
    <contour>
      <point x="469" y="1456" type="line"/>
      <point x="275" y="1456" type="line"/>
      <point x="62" y="0" type="line"/>
      <point x="257" y="0" type="line"/>
    </contour>
  </outline>
</glyph>
<glyph name="E" format="1">
  <advance width="988"/>
  <unicode hex="0045"/>
  <outline>
    <contour>
      <point x="671" y="1612" type="move" name="top"/>
    </contour>
    <contour>
      <point x="439" y="10" type="move" name="bottom"/>
    </contour>
    <contour>
      <point x="117" y="1455" type="move" name="tonos"/>
    </contour>
    <contour>
      <point x="764" y="0" type="move" name="ogonek"/>
    </contour>
    <contour>
      <point x="1113" y="1600" type="move" name="top_dd"/>
    </contour>
    <contour>
      <point x="822" y="-407" type="move" name="bottom_dd"/>
    </contour>
    <contour>
      <point x="1115" y="1612" type="move" name="top0315"/>
    </contour>
    <contour>
      <point x="855" y="166" type="line"/>
      <point x="251" y="166" type="line"/>
      <point x="223" y="0" type="line"/>
      <point x="827" y="0" type="line"/>
    </contour>
    <contour>
      <point x="469" y="1456" type="line"/>
      <point x="275" y="1456" type="line"/>
      <point x="62" y="0" type="line"/>
      <point x="257" y="0" type="line"/>
    </contour>
    <contour>
      <point x="868" y="835" type="line"/>
      <point x="347" y="835" type="line"/>
      <point x="319" y="669" type="line"/>
      <point x="839" y="669" type="line"/>
    </contour>
    <contour>
      <point x="1029" y="1456" type="line"/>
      <point x="436" y="1456" type="line"/>
      <point x="407" y="1289" type="line"/>
      <point x="1000" y="1289" type="line"/>
    </contour>
  </outline>
</glyph>
<glyph name="F" format="1">
  <advance width="952"/>
  <unicode hex="0046"/>
  <outline>
    <contour>
      <point x="253" y="337" type="move" name="cross"/>
    </contour>
    <contour>
      <point x="671" y="1612" type="move" name="top"/>
    </contour>
    <contour>
      <point x="367" y="10" type="move" name="bottom"/>
    </contour>
    <contour>
      <point x="1077" y="1600" type="move" name="top_dd"/>
    </contour>
    <contour>
      <point x="786" y="-407" type="move" name="bottom_dd"/>
    </contour>
    <contour>
      <point x="1079" y="1612" type="move" name="top0315"/>
    </contour>
    <contour>
      <point x="469" y="1456" type="line"/>
      <point x="275" y="1456" type="line"/>
      <point x="62" y="0" type="line"/>
      <point x="257" y="0" type="line"/>
    </contour>
    <contour>
      <point x="836" y="803" type="line"/>
      <point x="339" y="803" type="line"/>
      <point x="311" y="637" type="line"/>
      <point x="808" y="637" type="line"/>
    </contour>
    <contour>
      <point x="1011" y="1456" type="line"/>
      <point x="433" y="1456" type="line"/>
      <point x="405" y="1289" type="line"/>
      <point x="982" y="1289" type="line"/>
    </contour>
  </outline>
</glyph>
<glyph name="G" format="1">
  <advance width="1174"/>
  <unicode hex="0047"/>
  <outline>
    <contour>
      <point x="709" y="1633" type="move" name="top"/>
    </contour>
    <contour>
      <point x="526" y="-10" type="move" name="bottom"/>
    </contour>
    <contour>
      <point x="1299" y="1600" type="move" name="top_dd"/>
    </contour>
    <contour>
      <point x="1008" y="-407" type="move" name="bottom_dd"/>
    </contour>
    <contour>
      <point x="1304" y="1633" type="move" name="top0315"/>
    </contour>
    <contour>
      <point x="1061" y="731" type="line"/>
      <point x="622" y="731" type="line"/>
      <point x="594" y="566" type="line"/>
      <point x="841" y="566" type="line"/>
      <point x="795" y="248" type="line"/>
      <point x="721" y="169"/>
      <point x="641" y="144"/>
      <point x="546" y="147" type="curve" smooth="yes"/>
      <point x="318" y="154"/>
      <point x="295" y="453"/>
      <point x="317" y="675" type="curve" smooth="yes"/>
      <point x="326" y="781" type="line" smooth="yes"/>
      <point x="357" y="1038"/>
      <point x="449" y="1319"/>
      <point x="701" y="1309" type="curve" smooth="yes"/>
      <point x="840" y="1303"/>
      <point x="898" y="1192"/>
      <point x="912" y="1026" type="curve"/>
      <point x="1104" y="1026" type="line"/>
      <point x="1081" y="1300"/>
      <point x="948" y="1470"/>
      <point x="708" y="1476" type="curve" smooth="yes"/>
      <point x="350" y="1484"/>
      <point x="175" y="1150"/>
      <point x="130" y="779" type="curve" smooth="yes"/>
      <point x="122" y="676" type="line" smooth="yes"/>
      <point x="85" y="332"/>
      <point x="207" y="-14"/>
      <point x="539" y="-20" type="curve" smooth="yes"/>
      <point x="706" y="-23"/>
      <point x="888" y="29"/>
      <point x="989" y="195" type="curve"/>
    </contour>
  </outline>
</glyph>
<glyph name="H" format="1">
  <advance width="1236"/>
  <unicode hex="0048"/>
  <outline>
    <contour>
      <point x="746" y="1612" type="move" name="top"/>
    </contour>
    <contour>
      <point x="995" y="0" type="move" name="right"/>
    </contour>
    <contour>
      <point x="129" y="1457" type="move" name="tonos"/>
    </contour>
    <contour>
      <point x="516" y="10" type="move" name="bottom"/>
    </contour>
    <contour>
      <point x="1361" y="1600" type="move" name="top_dd"/>
    </contour>
    <contour>
      <point x="1070" y="-407" type="move" name="bottom_dd"/>
    </contour>
    <contour>
      <point x="1363" y="1612" type="move" name="top0315"/>
    </contour>
    <contour>
      <point x="947" y="835" type="line"/>
      <point x="354" y="835" type="line"/>
      <point x="326" y="669" type="line"/>
      <point x="918" y="669" type="line"/>
    </contour>
    <contour>
      <point x="469" y="1456" type="line"/>
      <point x="275" y="1456" type="line"/>
      <point x="62" y="0" type="line"/>
      <point x="257" y="0" type="line"/>
    </contour>
    <contour>
      <point x="1209" y="1456" type="line"/>
      <point x="1014" y="1456" type="line"/>
      <point x="802" y="0" type="line"/>
      <point x="996" y="0" type="line"/>
    </contour>
  </outline>
</glyph>
<glyph name="I" format="1">
  <advance width="500"/>
  <unicode hex="0049"/>
  <outline>
    <contour>
      <point x="397" y="1612" type="move" name="top"/>
    </contour>
    <contour>
      <point x="165" y="10" type="move" name="bottom"/>
    </contour>
    <contour>
      <point x="129" y="1457" type="move" name="tonos"/>
    </contour>
    <contour>
      <point x="256" y="0" type="move" name="right"/>
    </contour>
    <contour>
      <point x="225" y="0" type="move" name="ogonek"/>
    </contour>
    <contour>
      <point x="625" y="1600" type="move" name="top_dd"/>
    </contour>
    <contour>
      <point x="334" y="-407" type="move" name="bottom_dd"/>
    </contour>
    <contour>
      <point x="627" y="1612" type="move" name="top0315"/>
    </contour>
    <contour>
      <point x="474" y="1456" type="line"/>
      <point x="279" y="1456" type="line"/>
      <point x="66" y="0" type="line"/>
      <point x="261" y="0" type="line"/>
    </contour>
  </outline>
</glyph>
<glyph name="J" format="1">
  <advance width="962"/>
  <unicode hex="004A"/>
  <outline>
    <contour>
      <point x="846" y="1601" type="move" name="top"/>
    </contour>
    <contour>
      <point x="349" y="-10" type="move" name="bottom"/>
    </contour>
    <contour>
      <point x="1088" y="1600" type="move" name="top_dd"/>
    </contour>
    <contour>
      <point x="796" y="-407" type="move" name="bottom_dd"/>
    </contour>
    <contour>
      <point x="1088" y="1601" type="move" name="top0315"/>
    </contour>
    <contour>
      <point x="606" y="424" type="line" smooth="yes"/>
      <point x="588" y="268"/>
      <point x="506" y="140"/>
      <point x="376" y="146" type="curve" smooth="yes"/>
      <point x="257" y="151"/>
      <point x="212" y="258"/>
      <point x="217" y="403" type="curve"/>
      <point x="23" y="404" type="line"/>
      <point x="13" y="144"/>
      <point x="147" y="-17"/>
      <point x="365" y="-22" type="curve" smooth="yes"/>
      <point x="601" y="-27"/>
      <point x="771" y="152"/>
      <point x="801" y="424" type="curve" smooth="yes"/>
      <point x="949" y="1456" type="line"/>
      <point x="755" y="1456" type="line"/>
    </contour>
  </outline>
</glyph>
<glyph name="K" format="1">
  <advance width="1083"/>
  <unicode hex="004B"/>
  <outline>
    <contour>
      <point x="492" y="88" type="move" name="bottom"/>
    </contour>
    <contour>
      <point x="942" y="0" type="move" name="right"/>
    </contour>
    <contour>
      <point x="337" y="1229" type="move" name="cross"/>
    </contour>
    <contour>
      <point x="661" y="1601" type="move" name="top"/>
    </contour>
    <contour>
      <point x="1208" y="1600" type="move" name="top_dd"/>
    </contour>
    <contour>
      <point x="917" y="-407" type="move" name="bottom_dd"/>
    </contour>
    <contour>
      <point x="1210" y="1601" type="move" name="top0315"/>
    </contour>
    <contour>
      <point x="469" y="1456" type="line"/>
      <point x="275" y="1456" type="line"/>
      <point x="62" y="0" type="line"/>
      <point x="257" y="0" type="line"/>
    </contour>
    <contour>
      <point x="1181" y="1456" type="line"/>
      <point x="935" y="1456" type="line"/>
      <point x="497" y="924" type="line"/>
      <point x="249" y="642" type="line"/>
      <point x="248" y="408" type="line"/>
      <point x="596" y="771" type="line"/>
    </contour>
    <contour>
      <point x="773" y="0" type="line"/>
      <point x="989" y="0" type="line"/>
      <point x="601" y="867" type="line"/>
      <point x="466" y="713" type="line"/>
    </contour>
  </outline>
</glyph>
<glyph name="L" format="1">
  <advance width="951"/>
  <unicode hex="004C"/>
  <outline>
    <contour>
      <point x="390" y="1600" type="move" name="top"/>
    </contour>
    <contour>
      <point x="438" y="10" type="move" name="bottom"/>
    </contour>
    <contour>
      <point x="646" y="1455" type="move" name="caron"/>
    </contour>
    <contour>
      <point x="538" y="794" type="move" name="dot"/>
    </contour>
    <contour>
      <point x="1076" y="1600" type="move" name="top_dd"/>
    </contour>
    <contour>
      <point x="785" y="-407" type="move" name="bottom_dd"/>
    </contour>
    <contour>
      <point x="1077" y="1600" type="move" name="top0315"/>
    </contour>
    <contour>
      <point x="832" y="166" type="line"/>
      <point x="251" y="166" type="line"/>
      <point x="223" y="0" type="line"/>
      <point x="804" y="0" type="line"/>
    </contour>
    <contour>
      <point x="469" y="1456" type="line"/>
      <point x="275" y="1456" type="line"/>
      <point x="62" y="0" type="line"/>
      <point x="256" y="0" type="line"/>
    </contour>
  </outline>
</glyph>
<glyph name="M" format="1">
  <advance width="1506"/>
  <unicode hex="004D"/>
  <outline>
    <contour>
      <point x="890" y="1600" type="move" name="top"/>
    </contour>
    <contour>
      <point x="1253" y="0" type="move" name="right"/>
    </contour>
    <contour>
      <point x="666" y="10" type="move" name="bottom"/>
    </contour>
    <contour>
      <point x="1631" y="1600" type="move" name="top_dd"/>
    </contour>
    <contour>
      <point x="1340" y="-407" type="move" name="bottom_dd"/>
    </contour>
    <contour>
      <point x="1631" y="1600" type="move" name="top0315"/>
    </contour>
    <contour>
      <point x="340" y="1456" type="line"/>
      <point x="595" y="0" type="line"/>
      <point x="743" y="0" type="line"/>
      <point x="1425" y="1456" type="line"/>
      <point x="1228" y="1456" type="line"/>
      <point x="709" y="287" type="line"/>
      <point x="518" y="1456" type="line"/>
    </contour>
    <contour>
      <point x="275" y="1456" type="line"/>
      <point x="62" y="0" type="line"/>
      <point x="256" y="0" type="line"/>
      <point x="331" y="545" type="line"/>
      <point x="439" y="1456" type="line"/>
    </contour>
    <contour>
      <point x="1316" y="1456" type="line"/>
      <point x="1153" y="567" type="line"/>
      <point x="1074" y="0" type="line"/>
      <point x="1268" y="0" type="line"/>
      <point x="1481" y="1456" type="line"/>
    </contour>
  </outline>
</glyph>
<glyph name="N" format="1">
  <advance width="1233"/>
  <unicode hex="004E"/>
  <outline>
    <contour>
      <point x="756" y="1600" type="move" name="top"/>
    </contour>
    <contour>
      <point x="519" y="10" type="move" name="bottom"/>
    </contour>
    <contour>
      <point x="992" y="0" type="move" name="right"/>
    </contour>
    <contour>
      <point x="1358" y="1600" type="move" name="top_dd"/>
    </contour>
    <contour>
      <point x="1067" y="-407" type="move" name="bottom_dd"/>
    </contour>
    <contour>
      <point x="1358" y="1600" type="move" name="top0315"/>
    </contour>
    <contour>
      <point x="1206" y="1456" type="line"/>
      <point x="1013" y="1456" type="line"/>
      <point x="858" y="341" type="line"/>
      <point x="462" y="1456" type="line"/>
      <point x="275" y="1456" type="line"/>
      <point x="62" y="0" type="line"/>
      <point x="256" y="0" type="line"/>
      <point x="412" y="1111" type="line"/>
      <point x="805" y="0" type="line"/>
      <point x="993" y="0" type="line"/>
    </contour>
  </outline>
</glyph>
<glyph name="O" format="1">
  <advance width="1200"/>
  <unicode hex="004F"/>
  <outline>
    <contour>
      <point x="748" y="1600" type="move" name="top"/>
    </contour>
    <contour>
      <point x="516" y="0" type="move" name="bottom"/>
    </contour>
    <contour>
      <point x="269" y="1454" type="move" name="tonos"/>
    </contour>
    <contour>
      <point x="1325" y="1600" type="move" name="top_dd"/>
    </contour>
    <contour>
      <point x="1034" y="-407" type="move" name="bottom_dd"/>
    </contour>
    <contour>
      <point x="1324" y="1600" type="move" name="top0315"/>
    </contour>
    <contour>
      <point x="1107" y="768" type="line" smooth="yes"/>
      <point x="1143" y="1104"/>
      <point x="1046" y="1468"/>
      <point x="712" y="1476" type="curve" smooth="yes"/>
      <point x="369" y="1484"/>
      <point x="177" y="1125"/>
      <point x="134" y="767" type="curve" smooth="yes"/>
      <point x="129" y="687" type="line" smooth="yes"/>
      <point x="95" y="354"/>
      <point x="195" y="-12"/>
      <point x="526" y="-20" type="curve" smooth="yes"/>
      <point x="874" y="-29"/>
      <point x="1058" y="327"/>
      <point x="1102" y="689" type="curve" smooth="yes"/>
    </contour>
    <contour>
      <point x="910" y="687" type="line" smooth="yes"/>
      <point x="881" y="432"/>
      <point x="782" y="142"/>
      <point x="534" y="152" type="curve" smooth="yes"/>
      <point x="307" y="162"/>
      <point x="301" y="471"/>
      <point x="321" y="686" type="curve" smooth="yes"/>
      <point x="327" y="770" type="line" smooth="yes"/>
      <point x="355" y="1020"/>
      <point x="462" y="1312"/>
      <point x="703" y="1303" type="curve" smooth="yes"/>
      <point x="935" y="1294"/>
      <point x="937" y="992"/>
      <point x="916" y="772" type="curve" smooth="yes"/>
    </contour>
  </outline>
</glyph>
<glyph name="P" format="1">
  <advance width="1109"/>
  <unicode hex="0050"/>
  <outline>
    <contour>
      <point x="169" y="1454" type="move" name="tonos"/>
    </contour>
    <contour>
      <point x="673" y="1612" type="move" name="top"/>
    </contour>
    <contour>
      <point x="366" y="10" type="move" name="bottom"/>
    </contour>
    <contour>
      <point x="1234" y="1600" type="move" name="top_dd"/>
    </contour>
    <contour>
      <point x="943" y="-407" type="move" name="bottom_dd"/>
    </contour>
    <contour>
      <point x="1236" y="1612" type="move" name="top0315"/>
    </contour>
    <contour>
      <point x="615" y="566" type="line" smooth="yes"/>
      <point x="863" y="565"/>
      <point x="1075" y="708"/>
      <point x="1094" y="1018" type="curve" smooth="yes"/>
      <point x="1110" y="1293"/>
      <point x="942" y="1449"/>
      <point x="722" y="1455" type="curve" smooth="yes"/>
      <point x="274" y="1456" type="line"/>
      <point x="62" y="0" type="line"/>
      <point x="257" y="0" type="line"/>
      <point x="441" y="1289" type="line"/>
      <point x="718" y="1288" type="line" smooth="yes"/>
      <point x="843" y="1282"/>
      <point x="913" y="1179"/>
      <point x="900" y="1016" type="curve" smooth="yes"/>
      <point x="883" y="825"/>
      <point x="767" y="732"/>
      <point x="620" y="732" type="curve" smooth="yes"/>
      <point x="327" y="733" type="line"/>
      <point x="299" y="567" type="line"/>
    </contour>
  </outline>
</glyph>
<glyph name="Q" format="1">
  <advance width="1200"/>
  <unicode hex="0051"/>
  <outline>
    <contour>
      <point x="735" y="1600" type="move" name="top"/>
    </contour>
    <contour>
      <point x="500" y="-10" type="move" name="bottom"/>
    </contour>
    <contour>
      <point x="1325" y="1600" type="move" name="top_dd"/>
    </contour>
    <contour>
      <point x="1034" y="-407" type="move" name="bottom_dd"/>
    </contour>
    <contour>
      <point x="1325" y="1600" type="move" name="top0315"/>
    </contour>
    <contour>
      <point x="705" y="175" type="line"/>
      <point x="569" y="54" type="line"/>
      <point x="849" y="-245" type="line"/>
      <point x="992" y="-125" type="line"/>
    </contour>
    <contour>
      <point x="1101" y="848" type="line" smooth="yes"/>
      <point x="1137" y="1187"/>
      <point x="1017" y="1469"/>
      <point x="703" y="1476" type="curve" smooth="yes"/>
      <point x="374" y="1483"/>
      <point x="187" y="1203"/>
      <point x="143" y="848" type="curve" smooth="yes"/>
      <point x="117" y="607" type="line" smooth="yes"/>
      <point x="81" y="271"/>
      <point x="205" y="-13"/>
      <point x="516" y="-20" type="curve" smooth="yes"/>
      <point x="849" y="-27"/>
      <point x="1029" y="249"/>
      <point x="1075" y="608" type="curve" smooth="yes"/>
    </contour>
    <contour>
      <point x="883" y="607" type="line" smooth="yes"/>
      <point x="854" y="354"/>
      <point x="757" y="144"/>
      <point x="525" y="152" type="curve" smooth="yes"/>
      <point x="313" y="160"/>
      <point x="290" y="385"/>
      <point x="311" y="606" type="curve" smooth="yes"/>
      <point x="336" y="850" type="line" smooth="yes"/>
      <point x="365" y="1098"/>
      <point x="468" y="1311"/>
      <point x="694" y="1303" type="curve" smooth="yes"/>
      <point x="910" y="1295"/>
      <point x="931" y="1079"/>
      <point x="909" y="852" type="curve" smooth="yes"/>
    </contour>
  </outline>
</glyph>
<glyph name="R" format="1">
  <advance width="1047"/>
  <unicode hex="0052"/>
  <outline>
    <contour>
      <point x="662" y="1600" type="move" name="top"/>
    </contour>
    <contour>
      <point x="433" y="10" type="move" name="bottom"/>
    </contour>
    <contour>
      <point x="1173" y="1600" type="move" name="top_dd"/>
    </contour>
    <contour>
      <point x="881" y="-407" type="move" name="bottom_dd"/>
    </contour>
    <contour>
      <point x="1172" y="1600" type="move" name="top0315"/>
    </contour>
    <contour>
      <point x="275" y="1456" type="line"/>
      <point x="63" y="0" type="line"/>
      <point x="257" y="0" type="line"/>
      <point x="442" y="1289" type="line"/>
      <point x="657" y="1288" type="line" smooth="yes"/>
      <point x="787" y="1283"/>
      <point x="854" y="1194"/>
      <point x="839" y="1025" type="curve" smooth="yes"/>
      <point x="821" y="844"/>
      <point x="693" y="753"/>
      <point x="555" y="752" type="curve" smooth="yes"/>
      <point x="330" y="753" type="line"/>
      <point x="303" y="587" type="line"/>
      <point x="657" y="587" type="line"/>
      <point x="711" y="608" type="line"/>
      <point x="881" y="669"/>
      <point x="1019" y="801"/>
      <point x="1033" y="1025" type="curve" smooth="yes"/>
      <point x="1052" y="1311"/>
      <point x="889" y="1449"/>
      <point x="661" y="1455" type="curve" smooth="yes"/>
    </contour>
    <contour>
      <point x="736" y="0" type="line"/>
      <point x="944" y="0" type="line"/>
      <point x="944" y="13" type="line"/>
      <point x="752" y="662" type="line"/>
      <point x="557" y="662" type="line"/>
    </contour>
  </outline>
</glyph>
<glyph name="S" format="1">
  <advance width="1032"/>
  <unicode hex="0053"/>
  <outline>
    <contour>
      <point x="669" y="1600" type="move" name="top"/>
    </contour>
    <contour>
      <point x="444" y="0" type="move" name="bottom"/>
    </contour>
    <contour>
      <point x="1157" y="1600" type="move" name="top_dd"/>
    </contour>
    <contour>
      <point x="865" y="-407" type="move" name="bottom_dd"/>
    </contour>
    <contour>
      <point x="1156" y="1600" type="move" name="top0315"/>
    </contour>
    <contour>
      <point x="723" y="377" type="curve" smooth="yes"/>
      <point x="707" y="210"/>
      <point x="589" y="143"/>
      <point x="467" y="146" type="curve" smooth="yes"/>
      <point x="331" y="149"/>
      <point x="242" y="243"/>
      <point x="248" y="423" type="curve"/>
      <point x="54" y="424" type="line"/>
      <point x="48" y="147"/>
      <point x="241" y="-16"/>
      <point x="459" y="-20" type="curve" smooth="yes"/>
      <point x="674" y="-25"/>
      <point x="902" y="100"/>
      <point x="918" y="379" type="curve" smooth="yes"/>
      <point x="932" y="635"/>
      <point x="769" y="749"/>
      <point x="587" y="822" type="curve" smooth="yes"/>
      <point x="496" y="861"/>
      <point x="371" y="918"/>
      <point x="383" y="1071" type="curve" smooth="yes"/>
      <point x="398" y="1235"/>
      <point x="504" y="1312"/>
      <point x="628" y="1309" type="curve" smooth="yes"/>
      <point x="766" y="1306"/>
      <point x="831" y="1205"/>
      <point x="824" y="1035" type="curve"/>
      <point x="1018" y="1034" type="line"/>
      <point x="1025" y="1302"/>
      <point x="856" y="1471"/>
      <point x="637" y="1476" type="curve" smooth="yes"/>
      <point x="424" y="1481"/>
      <point x="202" y="1339"/>
      <point x="188" y="1068" type="curve" smooth="yes"/>
      <point x="177" y="826"/>
      <point x="351" y="713"/>
      <point x="517" y="644" type="curve" smooth="yes"/>
      <point x="623" y="598"/>
      <point x="739" y="547"/>
    </contour>
  </outline>
</glyph>
<glyph name="T" format="1">
  <advance width="1035"/>
  <unicode hex="0054"/>
  <outline>
    <contour>
      <point x="664" y="1600" type="move" name="top"/>
    </contour>
    <contour>
      <point x="434" y="0" type="move" name="bottom"/>
    </contour>
    <contour>
      <point x="522" y="0" type="move" name="right"/>
    </contour>
    <contour>
      <point x="571" y="897" type="move" name="cross"/>
    </contour>
    <contour>
      <point x="1161" y="1600" type="move" name="top_dd"/>
    </contour>
    <contour>
      <point x="869" y="-407" type="move" name="bottom_dd"/>
    </contour>
    <contour>
      <point x="1160" y="1600" type="move" name="top0315"/>
    </contour>
    <contour>
      <point x="740" y="1456" type="line"/>
      <point x="548" y="1456" type="line"/>
      <point x="335" y="0" type="line"/>
      <point x="528" y="0" type="line"/>
    </contour>
    <contour>
      <point x="1105" y="1456" type="line"/>
      <point x="184" y="1456" type="line"/>
      <point x="155" y="1289" type="line"/>
      <point x="1077" y="1289" type="line"/>
    </contour>
  </outline>
</glyph>
<glyph name="U" format="1">
  <advance width="1112"/>
  <unicode hex="0055"/>
  <outline>
    <contour>
      <point x="701" y="1600" type="move" name="top"/>
    </contour>
    <contour>
      <point x="471" y="0" type="move" name="bottom"/>
    </contour>
    <contour>
      <point x="622" y="0" type="move" name="right"/>
    </contour>
    <contour>
      <point x="707" y="45" type="move" name="ogonek"/>
    </contour>
    <contour>
      <point x="1238" y="1600" type="move" name="top_dd"/>
    </contour>
    <contour>
      <point x="946" y="-407" type="move" name="bottom_dd"/>
    </contour>
    <contour>
      <point x="1237" y="1600" type="move" name="top0315"/>
    </contour>
    <contour>
      <point x="928" y="1456" type="line"/>
      <point x="787" y="471" type="line" smooth="yes"/>
      <point x="764" y="270"/>
      <point x="658" y="140"/>
      <point x="493" y="146" type="curve" smooth="yes"/>
      <point x="339" y="152"/>
      <point x="284" y="287"/>
      <point x="299" y="470" type="curve" smooth="yes"/>
      <point x="439" y="1456" type="line"/>
      <point x="247" y="1456" type="line"/>
      <point x="107" y="471" type="line"/>
      <point x="80" y="178"/>
      <point x="241" y="-15"/>
      <point x="483" y="-21" type="curve" smooth="yes"/>
      <point x="742" y="-27"/>
      <point x="947" y="168"/>
      <point x="982" y="472" type="curve" smooth="yes"/>
      <point x="1123" y="1456" type="line"/>
    </contour>
  </outline>
</glyph>
<glyph name="V" format="1">
  <advance width="1124"/>
  <unicode hex="0056"/>
  <outline>
    <contour>
      <point x="698" y="1612" type="move" name="top"/>
    </contour>
    <contour>
      <point x="488" y="10" type="move" name="bottom"/>
    </contour>
    <contour>
      <point x="1235" y="1600" type="move" name="top_dd"/>
    </contour>
    <contour>
      <point x="972" y="-407" type="move" name="bottom_dd"/>
    </contour>
    <contour>
      <point x="1236" y="1612" type="move" name="top0315"/>
    </contour>
    <contour>
      <point x="494" y="236" type="line"/>
      <point x="416" y="0" type="line"/>
      <point x="571" y="0" type="line"/>
      <point x="1201" y="1456" type="line"/>
      <point x="982" y="1456" type="line"/>
    </contour>
    <contour>
      <point x="361" y="1456" type="line"/>
      <point x="158" y="1456" type="line"/>
      <point x="404" y="0" type="line"/>
      <point x="546" y="0" type="line"/>
      <point x="534" y="219" type="line"/>
    </contour>
  </outline>
</glyph>
<glyph name="W" format="1">
  <advance width="1511"/>
  <unicode hex="0057"/>
  <outline>
    <contour>
      <point x="903" y="1600" type="move" name="top"/>
    </contour>
    <contour>
      <point x="693" y="10" type="move" name="bottom"/>
    </contour>
    <contour>
      <point x="1622" y="1600" type="move" name="top_dd"/>
    </contour>
    <contour>
      <point x="1359" y="-407" type="move" name="bottom_dd"/>
    </contour>
    <contour>
      <point x="1621" y="1600" type="move" name="top0315"/>
    </contour>
    <contour>
      <point x="453" y="459" type="line"/>
      <point x="300" y="0" type="line"/>
      <point x="444" y="0" type="line"/>
      <point x="813" y="1038" type="line"/>
      <point x="942" y="1456" type="line"/>
      <point x="799" y="1456" type="line"/>
    </contour>
    <contour>
      <point x="372" y="1456" type="line"/>
      <point x="184" y="1456" type="line"/>
      <point x="269" y="0" type="line"/>
      <point x="400" y="0" type="line"/>
      <point x="415" y="460" type="line"/>
    </contour>
    <contour>
      <point x="1090" y="479" type="line"/>
      <point x="968" y="0" type="line"/>
      <point x="1107" y="0" type="line"/>
      <point x="1576" y="1456" type="line"/>
      <point x="1377" y="1456" type="line"/>
    </contour>
    <contour>
      <point x="958" y="1456" type="line"/>
      <point x="829" y="1456" type="line"/>
      <point x="838" y="1058" type="line"/>
      <point x="933" y="0" type="line"/>
      <point x="1066" y="0" type="line"/>
      <point x="1043" y="442" type="line"/>
    </contour>
  </outline>
</glyph>
<glyph name="X" format="1">
  <advance width="1102"/>
  <unicode hex="0058"/>
  <outline>
    <contour>
      <point x="466" y="10" type="move" name="bottom"/>
    </contour>
    <contour>
      <point x="843" y="0" type="move" name="right"/>
    </contour>
    <contour>
      <point x="571" y="742" type="move" name="cross"/>
    </contour>
    <contour>
      <point x="682" y="1612" type="move" name="top"/>
    </contour>
    <contour>
      <point x="1213" y="1600" type="move" name="top_dd"/>
    </contour>
    <contour>
      <point x="951" y="-407" type="move" name="bottom_dd"/>
    </contour>
    <contour>
      <point x="1215" y="1612" type="move" name="top0315"/>
    </contour>
    <contour>
      <point x="407" y="1456" type="line"/>
      <point x="193" y="1456" type="line"/>
      <point x="458" y="744" type="line"/>
      <point x="-17" y="0" type="line"/>
      <point x="223" y="0" type="line"/>
      <point x="550" y="556" type="line"/>
      <point x="738" y="0" type="line"/>
      <point x="955" y="0" type="line"/>
      <point x="685" y="724" type="line"/>
      <point x="1151" y="1456" type="line"/>
      <point x="913" y="1456" type="line"/>
      <point x="592" y="909" type="line"/>
    </contour>
  </outline>
</glyph>
<glyph name="Y" format="1">
  <advance width="1044"/>
  <unicode hex="0059"/>
  <outline>
    <contour>
      <point x="671" y="1600" type="move" name="top"/>
    </contour>
    <contour>
      <point x="434" y="0" type="move" name="bottom"/>
    </contour>
    <contour>
      <point x="520" y="594" type="move" name="cross"/>
    </contour>
    <contour>
      <point x="94" y="1454" type="move" name="tonos"/>
    </contour>
    <contour>
      <point x="1169" y="1600" type="move" name="top_dd"/>
    </contour>
    <contour>
      <point x="878" y="-407" type="move" name="bottom_dd"/>
    </contour>
    <contour>
      <point x="1169" y="1600" type="move" name="top0315"/>
    </contour>
    <contour>
      <point x="366" y="1456" type="line"/>
      <point x="158" y="1456" type="line"/>
      <point x="418" y="555" type="line"/>
      <point x="336" y="0" type="line"/>
      <point x="531" y="0" type="line"/>
      <point x="608" y="532" type="line"/>
      <point x="1146" y="1456" type="line"/>
      <point x="915" y="1456" type="line"/>
      <point x="539" y="737" type="line"/>
    </contour>
  </outline>
</glyph>
<glyph name="Z" format="1">
  <advance width="1040"/>
  <unicode hex="005A"/>
  <outline>
    <contour>
      <point x="669" y="1600" type="move" name="top"/>
    </contour>
    <contour>
      <point x="426" y="10" type="move" name="bottom"/>
    </contour>
    <contour>
      <point x="1165" y="1600" type="move" name="top_dd"/>
    </contour>
    <contour>
      <point x="874" y="-407" type="move" name="bottom_dd"/>
    </contour>
    <contour>
      <point x="1165" y="1600" type="move" name="top0315"/>
    </contour>
    <contour>
      <point x="899" y="166" type="line"/>
      <point x="103" y="166" type="line"/>
      <point x="75" y="0" type="line"/>
      <point x="871" y="0" type="line"/>
    </contour>
    <contour>
      <point x="1031" y="1297" type="line"/>
      <point x="1058" y="1456" type="line"/>
      <point x="931" y="1456" type="line"/>
      <point x="28" y="163" type="line"/>
      <point x="1" y="0" type="line"/>
      <point x="127" y="0" type="line"/>
    </contour>
    <contour>
      <point x="977" y="1456" type="line"/>
      <point x="217" y="1456" type="line"/>
      <point x="189" y="1289" type="line"/>
      <point x="948" y="1289" type="line"/>
    </contour>
  </outline>
</glyph>
<glyph name="bracketleft" format="1">
  <advance width="510"/>
  <unicode hex="005B"/>
  <outline>
    <contour>
      <point x="603" y="1664" type="line"/>
      <point x="270" y="1664" type="line"/>
      <point x="10" y="-312" type="line"/>
      <point x="343" y="-312" type="line"/>
      <point x="367" y="-152" type="line"/>
      <point x="221" y="-152" type="line"/>
      <point x="433" y="1504" type="line"/>
      <point x="578" y="1504" type="line"/>
    </contour>
  </outline>
</glyph>
<glyph name="bracketright" format="1">
  <advance width="510"/>
  <unicode hex="005D"/>
  <outline>
    <contour>
      <point x="148" y="1504" type="line"/>
      <point x="295" y="1504" type="line"/>
      <point x="83" y="-152" type="line"/>
      <point x="-63" y="-152" type="line"/>
      <point x="-88" y="-312" type="line"/>
      <point x="246" y="-312" type="line"/>
      <point x="506" y="1664" type="line"/>
      <point x="172" y="1664" type="line"/>
    </contour>
  </outline>
</glyph>
<glyph name="asciicircum" format="1">
  <advance width="740"/>
  <unicode hex="005E"/>
  <outline>
    <contour>
      <point x="466" y="1217" type="line"/>
      <point x="544" y="1456" type="line"/>
      <point x="429" y="1456" type="line"/>
      <point x="78" y="729" type="line"/>
      <point x="259" y="729" type="line"/>
    </contour>
    <contour>
      <point x="529" y="729" type="line"/>
      <point x="690" y="729" type="line"/>
      <point x="554" y="1456" type="line"/>
      <point x="450" y="1456" type="line"/>
      <point x="449" y="1238" type="line"/>
    </contour>
  </outline>
</glyph>
<glyph name="underscore" format="1">
  <advance width="814"/>
  <unicode hex="005F"/>
  <outline>
    <contour>
      <point x="339" y="157" type="move" name="_bottom"/>
    </contour>
    <contour>
      <point x="704" y="0" type="line"/>
      <point x="-62" y="0" type="line"/>
      <point x="-89" y="-160" type="line"/>
      <point x="677" y="-160" type="line"/>
    </contour>
  </outline>
</glyph>
<glyph name="grave" format="1">
  <advance width="625"/>
  <unicode hex="0060"/>
  <outline>
    <contour>
      <point x="466" y="1290" type="move" name="_top"/>
    </contour>
    <contour>
      <point x="522" y="1650" type="move" name="mkmktop_acc"/>
    </contour>
    <contour>
      <point x="420" y="1536" type="line"/>
      <point x="199" y="1536" type="line"/>
      <point x="410" y="1240" type="line"/>
      <point x="562" y="1240" type="line"/>
    </contour>
  </outline>
</glyph>
<glyph name="a" format="1">
  <advance width="957"/>
  <unicode hex="0061"/>
  <outline>
    <contour>
      <point x="595" y="1290" type="move" name="top"/>
    </contour>
    <contour>
      <point x="340" y="0" type="move" name="bottom"/>
    </contour>
    <contour>
      <point x="733" y="0" type="move" name="ogonek"/>
    </contour>
    <contour>
      <point x="691" y="1290" type="move" name="rhalfring"/>
    </contour>
    <contour>
      <point x="1082" y="1600" type="move" name="top_dd"/>
    </contour>
    <contour>
      <point x="791" y="-407" type="move" name="bottom_dd"/>
    </contour>
    <contour>
      <point x="744" y="654" type="move" name="rhotichook"/>
    </contour>
    <contour>
      <point x="1037" y="1290" type="move" name="top0315"/>
    </contour>
    <contour>
      <point x="576" y="183" type="line" smooth="yes"/>
      <point x="570" y="122"/>
      <point x="570" y="59"/>
      <point x="586" y="-1" type="curve"/>
      <point x="773" y="0" type="line"/>
      <point x="774" y="18" type="line"/>
      <point x="757" y="89"/>
      <point x="760" y="165"/>
      <point x="770" y="238" type="curve" smooth="yes"/>
      <point x="841" y="768" type="line"/>
      <point x="857" y="996"/>
      <point x="723" y="1100"/>
      <point x="544" y="1103" type="curve" smooth="yes"/>
      <point x="383" y="1106"/>
      <point x="173" y="999"/>
      <point x="162" y="782" type="curve"/>
      <point x="348" y="783" type="line"/>
      <point x="365" y="895"/>
      <point x="447" y="944"/>
      <point x="527" y="943" type="curve" smooth="yes"/>
      <point x="616" y="942"/>
      <point x="662" y="893"/>
      <point x="654" y="773" type="curve"/>
    </contour>
    <contour>
      <point x="676" y="661" type="line"/>
      <point x="529" y="662" type="line" smooth="yes"/>
      <point x="325" y="662"/>
      <point x="80" y="568"/>
      <point x="70" y="289" type="curve" smooth="yes"/>
      <point x="64" y="90"/>
      <point x="187" y="-20"/>
      <point x="348" y="-22" type="curve" smooth="yes"/>
      <point x="474" y="-23"/>
      <point x="614" y="85"/>
      <point x="641" y="244" type="curve"/>
      <point x="609" y="331" type="line"/>
      <point x="592" y="212"/>
      <point x="465" y="148"/>
      <point x="385" y="149" type="curve" smooth="yes"/>
      <point x="298" y="150"/>
      <point x="252" y="198"/>
      <point x="262" y="314" type="curve" smooth="yes"/>
      <point x="278" y="488"/>
      <point x="447" y="525"/>
      <point x="560" y="525" type="curve" smooth="yes"/>
      <point x="654" y="524" type="line"/>
    </contour>
  </outline>
</glyph>
<glyph name="c" format="1">
  <advance width="922"/>
  <unicode hex="0063"/>
  <outline>
    <contour>
      <point x="540" y="1290" type="move" name="top"/>
    </contour>
    <contour>
      <point x="370" y="-10" type="move" name="bottom"/>
    </contour>
    <contour>
      <point x="540" y="1290" type="move" name="marktop"/>
    </contour>
    <contour>
      <point x="1033" y="1600" type="move" name="top_dd"/>
    </contour>
    <contour>
      <point x="771" y="-407" type="move" name="bottom_dd"/>
    </contour>
    <contour>
      <point x="993" y="1290" type="move" name="top0315"/>
    </contour>
    <contour>
      <point x="439" y="139" type="curve" smooth="yes"/>
      <point x="274" y="143"/>
      <point x="258" y="354"/>
      <point x="270" y="518" type="curve" smooth="yes"/>
      <point x="274" y="560" type="line" smooth="yes"/>
      <point x="291" y="746"/>
      <point x="368" y="949"/>
      <point x="540" y="942" type="curve" smooth="yes"/>
      <point x="643" y="938"/>
      <point x="692" y="833"/>
      <point x="697" y="708" type="curve"/>
      <point x="872" y="708" type="line"/>
      <point x="868" y="933"/>
      <point x="741" y="1097"/>
      <point x="548" y="1102" type="curve" smooth="yes"/>
      <point x="282" y="1109"/>
      <point x="114" y="851"/>
      <point x="89" y="560" type="curve" smooth="yes"/>
      <point x="86" y="517" type="line" smooth="yes"/>
      <point x="66" y="243"/>
      <point x="174" y="-15"/>
      <point x="431" y="-21" type="curve" smooth="yes"/>
      <point x="609" y="-24"/>
      <point x="797" y="126"/>
      <point x="819" y="343" type="curve"/>
      <point x="643" y="342" type="line"/>
      <point x="619" y="222"/>
      <point x="535" y="136"/>
    </contour>
  </outline>
</glyph>
<glyph name="e" format="1">
  <advance width="939"/>
  <unicode hex="0065"/>
  <outline>
    <contour>
      <point x="570" y="1290" type="move" name="top"/>
    </contour>
    <contour>
      <point x="405" y="0" type="move" name="bottom"/>
    </contour>
    <contour>
      <point x="600" y="23" type="move" name="ogonek"/>
    </contour>
    <contour>
      <point x="1050" y="1600" type="move" name="top_dd"/>
    </contour>
    <contour>
      <point x="787" y="-407" type="move" name="bottom_dd"/>
    </contour>
    <contour>
      <point x="766" y="654" type="move" name="rhotichook"/>
    </contour>
    <contour>
      <point x="1009" y="1290" type="move" name="top0315"/>
    </contour>
    <contour>
      <point x="441" y="-20" type="curve" smooth="yes"/>
      <point x="586" y="-23"/>
      <point x="721" y="50"/>
      <point x="802" y="190" type="curve"/>
      <point x="695" y="284" type="line"/>
      <point x="632" y="198"/>
      <point x="556" y="137"/>
      <point x="457" y="140" type="curve" smooth="yes"/>
      <point x="302" y="145"/>
      <point x="261" y="333"/>
      <point x="271" y="500" type="curve" smooth="yes"/>
      <point x="275" y="542" type="line" smooth="yes"/>
      <point x="290" y="720"/>
      <point x="356" y="950"/>
      <point x="530" y="942" type="curve" smooth="yes"/>
      <point x="651" y="937"/>
      <point x="692" y="795"/>
      <point x="678" y="657" type="curve"/>
      <point x="675" y="640" type="line"/>
      <point x="212" y="641" type="line"/>
      <point x="188" y="481" type="line"/>
      <point x="842" y="481" type="line"/>
      <point x="852" y="566" type="line" smooth="yes"/>
      <point x="878" y="832"/>
      <point x="801" y="1095"/>
      <point x="539" y="1102" type="curve" smooth="yes"/>
      <point x="277" y="1109"/>
      <point x="112" y="820"/>
      <point x="90" y="542" type="curve" smooth="yes"/>
      <point x="87" y="499" type="line" smooth="yes"/>
      <point x="71" y="225"/>
      <point x="192" y="-15"/>
    </contour>
  </outline>
</glyph>
<glyph name="f" format="1">
  <advance width="637"/>
  <unicode hex="0066"/>
  <outline>
    <contour>
      <point x="595" y="1760" type="move" name="top"/>
    </contour>
    <contour>
      <point x="203" y="10" type="move" name="bottom"/>
    </contour>
    <contour>
      <point x="762" y="1600" type="move" name="top_dd"/>
    </contour>
    <contour>
      <point x="471" y="-407" type="move" name="bottom_dd"/>
    </contour>
    <contour>
      <point x="788" y="1760" type="move" name="top0315"/>
    </contour>
    <contour>
      <point x="301" y="0" type="line"/>
      <point x="471" y="1193" type="line" smooth="yes"/>
      <point x="487" y="1311"/>
      <point x="547" y="1394"/>
      <point x="647" y="1393" type="curve" smooth="yes"/>
      <point x="672" y="1393"/>
      <point x="699" y="1389"/>
      <point x="724" y="1383" type="curve"/>
      <point x="745" y="1544" type="line"/>
      <point x="708" y="1553"/>
      <point x="672" y="1560"/>
      <point x="635" y="1561" type="curve" smooth="yes"/>
      <point x="434" y="1563"/>
      <point x="306" y="1414"/>
      <point x="283" y="1191" type="curve" smooth="yes"/>
      <point x="115" y="0" type="line"/>
    </contour>
    <contour>
      <point x="633" y="1082" type="line"/>
      <point x="138" y="1082" type="line"/>
      <point x="113" y="932" type="line"/>
      <point x="607" y="932" type="line"/>
    </contour>
  </outline>
</glyph>
<glyph name="g" format="1">
  <advance width="984"/>
  <unicode hex="0067"/>
  <outline>
    <contour>
      <point x="570" y="1290" type="move" name="top"/>
    </contour>
    <contour>
      <point x="319" y="-447" type="move" name="bottom"/>
    </contour>
    <contour>
      <point x="1109" y="1600" type="move" name="top_dd"/>
    </contour>
    <contour>
      <point x="818" y="-407" type="move" name="bottom_dd"/>
    </contour>
    <contour>
      <point x="1064" y="1290" type="move" name="top0315"/>
    </contour>
    <contour>
      <point x="761" y="1082" type="line"/>
      <point x="716" y="897" type="line"/>
      <point x="614" y="180" type="line"/>
      <point x="621" y="158" type="line"/>
      <point x="596" y="17" type="line" smooth="yes"/>
      <point x="567" y="-150"/>
      <point x="471" y="-272"/>
      <point x="331" y="-267" type="curve" smooth="yes"/>
      <point x="241" y="-264"/>
      <point x="170" y="-207"/>
      <point x="117" y="-119" type="curve"/>
      <point x="14" y="-234" type="line"/>
      <point x="85" y="-356"/>
      <point x="215" y="-423"/>
      <point x="339" y="-427" type="curve" smooth="yes"/>
      <point x="578" y="-434"/>
      <point x="749" y="-247"/>
      <point x="779" y="24" type="curve" smooth="yes"/>
      <point x="930" y="1082" type="line"/>
    </contour>
    <contour>
      <point x="83" y="521" type="line" smooth="yes"/>
      <point x="64" y="285"/>
      <point x="134" y="-12"/>
      <point x="371" y="-21" type="curve" smooth="yes"/>
      <point x="640" y="-30"/>
      <point x="788" y="288"/>
      <point x="801" y="512" type="curve" smooth="yes"/>
      <point x="796" y="576" type="line" smooth="yes"/>
      <point x="831" y="871"/>
      <point x="755" y="1096"/>
      <point x="501" y="1103" type="curve" smooth="yes"/>
      <point x="239" y="1110"/>
      <point x="110" y="810"/>
      <point x="85" y="543" type="curve" smooth="yes"/>
    </contour>
    <contour>
      <point x="272" y="544" type="line" smooth="yes"/>
      <point x="290" y="727"/>
      <point x="367" y="944"/>
      <point x="542" y="937" type="curve" smooth="yes"/>
      <point x="659" y="933"/>
      <point x="731" y="817"/>
      <point x="724" y="656" type="curve"/>
      <point x="697" y="425" type="line"/>
      <point x="646" y="273"/>
      <point x="563" y="139"/>
      <point x="430" y="145" type="curve" smooth="yes"/>
      <point x="273" y="151"/>
      <point x="258" y="367"/>
      <point x="270" y="522" type="curve" smooth="yes"/>
    </contour>
  </outline>
</glyph>
<glyph name="h" format="1">
  <advance width="961"/>
  <unicode hex="0068"/>
  <outline>
    <contour>
      <point x="582" y="1611" type="move" name="top"/>
    </contour>
    <contour>
      <point x="344" y="1306" type="move" name="cross"/>
    </contour>
    <contour>
      <point x="418" y="10" type="move" name="bottom"/>
    </contour>
    <contour>
      <point x="751" y="0" type="move" name="right"/>
    </contour>
    <contour>
      <point x="1086" y="1600" type="move" name="top_dd"/>
    </contour>
    <contour>
      <point x="795" y="-407" type="move" name="bottom_dd"/>
    </contour>
    <contour>
      <point x="1088" y="1611" type="move" name="top0315"/>
    </contour>
    <contour>
      <point x="449" y="1536" type="line"/>
      <point x="263" y="1536" type="line"/>
      <point x="38" y="0" type="line"/>
      <point x="225" y="0" type="line"/>
      <point x="354" y="866" type="line"/>
      <point x="352" y="901" type="line"/>
    </contour>
    <contour>
      <point x="264" y="578" type="line"/>
      <point x="288" y="754"/>
      <point x="393" y="944"/>
      <point x="542" y="939" type="curve" smooth="yes"/>
      <point x="646" y="935"/>
      <point x="674" y="838"/>
      <point x="665" y="713" type="curve"/>
      <point x="564" y="0" type="line"/>
      <point x="751" y="0" type="line"/>
      <point x="850" y="710" type="line"/>
      <point x="867" y="921"/>
      <point x="801" y="1096"/>
      <point x="609" y="1102" type="curve" smooth="yes"/>
      <point x="355" y="1109"/>
      <point x="230" y="822"/>
      <point x="191" y="575" type="curve"/>
    </contour>
  </outline>
</glyph>
<glyph name="i" format="1">
  <advance width="465"/>
  <unicode hex="0069"/>
  <outline>
    <contour>
      <point x="147" y="10" type="move" name="bottom"/>
    </contour>
    <contour>
      <point x="222" y="0" type="move" name="ogonek"/>
    </contour>
    <contour>
      <point x="379" y="1600" type="move" name="top"/>
    </contour>
    <contour>
      <point x="590" y="1600" type="move" name="top_dd"/>
    </contour>
    <contour>
      <point x="299" y="-407" type="move" name="bottom_dd"/>
    </contour>
    <contour>
      <point x="270" y="654" type="move" name="rhotichook"/>
    </contour>
    <contour>
      <point x="590" y="1600" type="move" name="top0315"/>
    </contour>
    <contour>
      <point x="397" y="1082" type="line"/>
      <point x="210" y="1082" type="line"/>
      <point x="52" y="0" type="line"/>
      <point x="238" y="0" type="line"/>
    </contour>
    <contour>
      <point x="241" y="1362" type="curve" smooth="yes"/>
      <point x="241" y="1297"/>
      <point x="286" y="1253"/>
      <point x="346" y="1255" type="curve" smooth="yes"/>
      <point x="406" y="1257"/>
      <point x="449" y="1303"/>
      <point x="449" y="1368" type="curve" smooth="yes"/>
      <point x="449" y="1433"/>
      <point x="404" y="1479"/>
      <point x="343" y="1477" type="curve" smooth="yes"/>
      <point x="282" y="1475"/>
      <point x="241" y="1428"/>
    </contour>
  </outline>
</glyph>
<glyph name="j" format="1">
  <advance width="451"/>
  <unicode hex="006A"/>
  <outline>
    <contour>
      <point x="347" y="1600" type="move" name="top"/>
    </contour>
    <contour>
      <point x="21" y="-459" type="move" name="bottom"/>
    </contour>
    <contour>
      <point x="576" y="1600" type="move" name="top_dd"/>
    </contour>
    <contour>
      <point x="285" y="-407" type="move" name="bottom_dd"/>
    </contour>
    <contour>
      <point x="576" y="1600" type="move" name="top0315"/>
    </contour>
    <contour>
      <point x="199" y="1082" type="line"/>
      <point x="26" y="-129" type="line" smooth="yes"/>
      <point x="16" y="-212"/>
      <point x="-7" y="-275"/>
      <point x="-74" y="-274" type="curve" smooth="yes"/>
      <point x="-97" y="-274"/>
      <point x="-120" y="-270"/>
      <point x="-142" y="-264" type="curve"/>
      <point x="-157" y="-421" type="line"/>
      <point x="-122" y="-431"/>
      <point x="-87" y="-439"/>
      <point x="-51" y="-440" type="curve" smooth="yes"/>
      <point x="117" y="-443"/>
      <point x="196" y="-312"/>
      <point x="214" y="-129" type="curve" smooth="yes"/>
      <point x="386" y="1082" type="line"/>
    </contour>
    <contour>
      <point x="224" y="1362" type="curve" smooth="yes"/>
      <point x="224" y="1297"/>
      <point x="269" y="1253"/>
      <point x="329" y="1255" type="curve" smooth="yes"/>
      <point x="389" y="1257"/>
      <point x="431" y="1302"/>
      <point x="431" y="1368" type="curve" smooth="yes"/>
      <point x="431" y="1433"/>
      <point x="386" y="1479"/>
      <point x="326" y="1477" type="curve" smooth="yes"/>
      <point x="265" y="1475"/>
      <point x="224" y="1428"/>
    </contour>
  </outline>
</glyph>
<glyph name="k" format="1">
  <advance width="904"/>
  <unicode hex="006B"/>
  <outline>
    <contour>
      <point x="375" y="67" type="move" name="bottom"/>
    </contour>
    <contour>
      <point x="300" y="1289" type="move" name="cross"/>
    </contour>
    <contour>
      <point x="616" y="1611" type="move" name="top"/>
    </contour>
    <contour>
      <point x="616" y="1611" type="move" name="marktop"/>
    </contour>
    <contour>
      <point x="1029" y="1600" type="move" name="top_dd"/>
    </contour>
    <contour>
      <point x="738" y="-407" type="move" name="bottom_dd"/>
    </contour>
    <contour>
      <point x="925" y="1611" type="move" name="top0315"/>
    </contour>
    <contour>
      <point x="450" y="1536" type="line"/>
      <point x="264" y="1536" type="line"/>
      <point x="39" y="0" type="line"/>
      <point x="226" y="0" type="line"/>
      <point x="308" y="553" type="line"/>
      <point x="315" y="591" type="line"/>
    </contour>
    <contour>
      <point x="921" y="1082" type="line"/>
      <point x="682" y="1082" type="line"/>
      <point x="405" y="739" type="line"/>
      <point x="211" y="512" type="line"/>
      <point x="184" y="283" type="line"/>
      <point x="480" y="576" type="line"/>
    </contour>
    <contour>
      <point x="590" y="0" type="line"/>
      <point x="793" y="0" type="line"/>
      <point x="492" y="684" type="line"/>
      <point x="375" y="519" type="line"/>
    </contour>
  </outline>
</glyph>
<glyph name="l" format="1">
  <advance width="465"/>
  <unicode hex="006C"/>
  <outline>
    <contour>
      <point x="392" y="1699" type="move" name="top"/>
    </contour>
    <contour>
      <point x="147" y="10" type="move" name="bottom"/>
    </contour>
    <contour>
      <point x="560" y="1536" type="move" name="caron"/>
    </contour>
    <contour>
      <point x="446" y="774" type="move" name="dot"/>
    </contour>
    <contour>
      <point x="640" y="1543" type="move" name="marktop"/>
    </contour>
    <contour>
      <point x="590" y="1600" type="move" name="top_dd"/>
    </contour>
    <contour>
      <point x="299" y="-407" type="move" name="bottom_dd"/>
    </contour>
    <contour>
      <point x="606" y="1699" type="move" name="top0315"/>
    </contour>
    <contour>
      <point x="463" y="1536" type="line"/>
      <point x="276" y="1536" type="line"/>
      <point x="52" y="0" type="line"/>
      <point x="238" y="0" type="line"/>
    </contour>
  </outline>
</glyph>
<glyph name="n" format="1">
  <advance width="964"/>
  <unicode hex="006E"/>
  <outline>
    <contour>
      <point x="585" y="1290" type="move" name="top"/>
    </contour>
    <contour>
      <point x="389" y="10" type="move" name="bottom"/>
    </contour>
    <contour>
      <point x="126" y="1539" type="move" name="caron"/>
    </contour>
    <contour>
      <point x="750" y="0" type="move" name="right"/>
    </contour>
    <contour>
      <point x="585" y="1290" type="move" name="marktop"/>
    </contour>
    <contour>
      <point x="1089" y="1600" type="move" name="top_dd"/>
    </contour>
    <contour>
      <point x="798" y="-407" type="move" name="bottom_dd"/>
    </contour>
    <contour>
      <point x="1044" y="1290" type="move" name="top0315"/>
    </contour>
    <contour>
      <point x="196" y="1082" type="line"/>
      <point x="38" y="0" type="line"/>
      <point x="225" y="0" type="line"/>
      <point x="348" y="839" type="line"/>
      <point x="345" y="901" type="line"/>
      <point x="372" y="1082" type="line"/>
    </contour>
    <contour>
      <point x="264" y="578" type="line"/>
      <point x="289" y="753"/>
      <point x="398" y="944"/>
      <point x="542" y="939" type="curve" smooth="yes"/>
      <point x="646" y="934"/>
      <point x="674" y="838"/>
      <point x="665" y="713" type="curve"/>
      <point x="564" y="0" type="line"/>
      <point x="751" y="0" type="line"/>
      <point x="850" y="710" type="line"/>
      <point x="867" y="921"/>
      <point x="801" y="1096"/>
      <point x="609" y="1102" type="curve" smooth="yes"/>
      <point x="379" y="1109"/>
      <point x="212" y="839"/>
      <point x="191" y="575" type="curve"/>
    </contour>
  </outline>
</glyph>
<glyph name="p" format="1">
  <advance width="984"/>
  <unicode hex="0070"/>
  <outline>
    <contour>
      <point x="643" y="1280" type="move" name="top"/>
    </contour>
    <contour>
      <point x="72" y="-407" type="move" name="bottom"/>
    </contour>
    <contour>
      <point x="643" y="1280" type="move" name="marktop"/>
    </contour>
    <contour>
      <point x="1110" y="1600" type="move" name="top_dd"/>
    </contour>
    <contour>
      <point x="818" y="-407" type="move" name="bottom_dd"/>
    </contour>
    <contour>
      <point x="1063" y="1280" type="move" name="top0315"/>
    </contour>
    <contour>
      <point x="351" y="862" type="line"/>
      <point x="347" y="925" type="line"/>
      <point x="365" y="1082" type="line"/>
      <point x="196" y="1082" type="line"/>
      <point x="-22" y="-416" type="line"/>
      <point x="165" y="-416" type="line"/>
      <point x="255" y="170" type="line"/>
      <point x="256" y="218" type="line"/>
    </contour>
    <contour>
      <point x="886" y="556" type="line" smooth="yes"/>
      <point x="907" y="801"/>
      <point x="850" y="1093"/>
      <point x="602" y="1102" type="curve" smooth="yes"/>
      <point x="355" y="1111"/>
      <point x="200" y="838"/>
      <point x="166" y="571" type="curve" smooth="yes"/>
      <point x="168" y="489" type="line"/>
      <point x="149" y="180"/>
      <point x="226" y="-15"/>
      <point x="476" y="-21" type="curve" smooth="yes"/>
      <point x="735" y="-28"/>
      <point x="859" y="272"/>
      <point x="884" y="535" type="curve" smooth="yes"/>
    </contour>
    <contour>
      <point x="698" y="536" type="line" smooth="yes"/>
      <point x="679" y="353"/>
      <point x="599" y="133"/>
      <point x="424" y="140" type="curve" smooth="yes"/>
      <point x="301" y="144"/>
      <point x="240" y="267"/>
      <point x="240" y="405" type="curve"/>
      <point x="271" y="656" type="line"/>
      <point x="302" y="806"/>
      <point x="422" y="943"/>
      <point x="534" y="938" type="curve" smooth="yes"/>
      <point x="693" y="932"/>
      <point x="713" y="715"/>
      <point x="700" y="557" type="curve" smooth="yes"/>
    </contour>
  </outline>
</glyph>
<glyph name="q" format="1">
  <advance width="1000"/>
  <unicode hex="0071"/>
  <outline>
    <contour>
      <point x="558" y="1290" type="move" name="top"/>
    </contour>
    <contour>
      <point x="618" y="-407" type="move" name="bottom"/>
    </contour>
    <contour>
      <point x="558" y="1290" type="move" name="marktop"/>
    </contour>
    <contour>
      <point x="1125" y="1600" type="move" name="top_dd"/>
    </contour>
    <contour>
      <point x="834" y="-407" type="move" name="bottom_dd"/>
    </contour>
    <contour>
      <point x="1080" y="1290" type="move" name="top0315"/>
    </contour>
    <contour>
      <point x="522" y="-416" type="line"/>
      <point x="708" y="-416" type="line"/>
      <point x="927" y="1082" type="line"/>
      <point x="756" y="1082" type="line"/>
      <point x="713" y="927" type="line"/>
      <point x="713" y="886" type="line"/>
      <point x="607" y="182" type="line"/>
      <point x="611" y="145" type="line"/>
    </contour>
    <contour>
      <point x="80" y="522" type="line" smooth="yes"/>
      <point x="61" y="280"/>
      <point x="133" y="-12"/>
      <point x="374" y="-21" type="curve" smooth="yes"/>
      <point x="614" y="-29"/>
      <point x="776" y="245"/>
      <point x="808" y="512" type="curve" smooth="yes"/>
      <point x="803" y="576" type="line" smooth="yes"/>
      <point x="835" y="869"/>
      <point x="758" y="1095"/>
      <point x="504" y="1102" type="curve" smooth="yes"/>
      <point x="239" y="1110"/>
      <point x="109" y="814"/>
      <point x="82" y="543" type="curve" smooth="yes"/>
    </contour>
    <contour>
      <point x="270" y="544" type="line" smooth="yes"/>
      <point x="289" y="728"/>
      <point x="369" y="949"/>
      <point x="545" y="942" type="curve" smooth="yes"/>
      <point x="683" y="937"/>
      <point x="737" y="799"/>
      <point x="732" y="656" type="curve"/>
      <point x="705" y="425" type="line"/>
      <point x="651" y="276"/>
      <point x="566" y="133"/>
      <point x="431" y="138" type="curve" smooth="yes"/>
      <point x="273" y="145"/>
      <point x="255" y="366"/>
      <point x="268" y="522" type="curve" smooth="yes"/>
    </contour>
  </outline>
</glyph>
<glyph name="r" format="1">
  <advance width="608"/>
  <unicode hex="0072"/>
  <outline>
    <contour>
      <point x="451" y="1290" type="move" name="top"/>
    </contour>
    <contour>
      <point x="147" y="10" type="move" name="bottom"/>
    </contour>
    <contour>
      <point x="733" y="1600" type="move" name="top_dd"/>
    </contour>
    <contour>
      <point x="442" y="-407" type="move" name="bottom_dd"/>
    </contour>
    <contour>
      <point x="688" y="1290" type="move" name="top0315"/>
    </contour>
    <contour>
      <point x="359" y="903" type="line"/>
      <point x="355" y="937" type="line"/>
      <point x="377" y="1082" type="line"/>
      <point x="196" y="1082" type="line"/>
      <point x="38" y="0" type="line"/>
      <point x="225" y="0" type="line"/>
    </contour>
    <contour>
      <point x="630" y="1089" type="line"/>
      <point x="605" y="1097"/>
      <point x="580" y="1104"/>
      <point x="554" y="1105" type="curve" smooth="yes"/>
      <point x="368" y="1112"/>
      <point x="265" y="842"/>
      <point x="245" y="629" type="curve"/>
      <point x="296" y="660" type="line"/>
      <point x="338" y="807"/>
      <point x="410" y="918"/>
      <point x="534" y="916" type="curve" smooth="yes"/>
      <point x="560" y="915"/>
      <point x="586" y="911"/>
      <point x="612" y="906" type="curve"/>
    </contour>
  </outline>
</glyph>
<glyph name="s" format="1">
  <advance width="911"/>
  <unicode hex="0073"/>
  <outline>
    <contour>
      <point x="582" y="1290" type="move" name="top"/>
    </contour>
    <contour>
      <point x="412" y="-10" type="move" name="bottom"/>
    </contour>
    <contour>
      <point x="1022" y="1600" type="move" name="top_dd"/>
    </contour>
    <contour>
      <point x="759" y="-407" type="move" name="bottom_dd"/>
    </contour>
    <contour>
      <point x="981" y="1290" type="move" name="top0315"/>
    </contour>
    <contour>
      <point x="591" y="295" type="curve" smooth="yes"/>
      <point x="578" y="180"/>
      <point x="485" y="140"/>
      <point x="406" y="141" type="curve" smooth="yes"/>
      <point x="305" y="143"/>
      <point x="248" y="213"/>
      <point x="246" y="339" type="curve"/>
      <point x="59" y="340" type="line"/>
      <point x="58" y="112"/>
      <point x="214" y="-16"/>
      <point x="399" y="-20" type="curve" smooth="yes"/>
      <point x="575" y="-24"/>
      <point x="770" y="82"/>
      <point x="777" y="311" type="curve" smooth="yes"/>
      <point x="782" y="512"/>
      <point x="626" y="583"/>
      <point x="488" y="627" type="curve" smooth="yes"/>
      <point x="428" y="649"/>
      <point x="324" y="671"/>
      <point x="334" y="782" type="curve" smooth="yes"/>
      <point x="344" y="892"/>
      <point x="426" y="943"/>
      <point x="505" y="941" type="curve" smooth="yes"/>
      <point x="587" y="939"/>
      <point x="641" y="869"/>
      <point x="642" y="762" type="curve"/>
      <point x="827" y="761" type="line"/>
      <point x="828" y="976"/>
      <point x="686" y="1099"/>
      <point x="512" y="1102" type="curve" smooth="yes"/>
      <point x="344" y="1106"/>
      <point x="155" y="991"/>
      <point x="149" y="775" type="curve" smooth="yes"/>
      <point x="145" y="579"/>
      <point x="306" y="509"/>
      <point x="440" y="469" type="curve" smooth="yes"/>
      <point x="513" y="446"/>
      <point x="603" y="414"/>
    </contour>
  </outline>
</glyph>
<glyph name="t" format="1">
  <advance width="591"/>
  <unicode hex="0074"/>
  <outline>
    <contour>
      <point x="312" y="0" type="move" name="bottom"/>
    </contour>
    <contour>
      <point x="633" y="1664" type="move" name="caron"/>
    </contour>
    <contour>
      <point x="269" y="676" type="move" name="cross"/>
    </contour>
    <contour>
      <point x="412" y="1476" type="move" name="top"/>
    </contour>
    <contour>
      <point x="613" y="1364" type="move" name="marktop"/>
    </contour>
    <contour>
      <point x="716" y="1600" type="move" name="top_dd"/>
    </contour>
    <contour>
      <point x="425" y="-407" type="move" name="bottom_dd"/>
    </contour>
    <contour>
      <point x="697" y="1476" type="move" name="top0315"/>
    </contour>
    <contour>
      <point x="590" y="1082" type="line"/>
      <point x="90" y="1082" type="line"/>
      <point x="65" y="932" type="line"/>
      <point x="564" y="932" type="line"/>
    </contour>
    <contour>
      <point x="287" y="1342" type="line"/>
      <point x="138" y="270" type="line"/>
      <point x="128" y="122"/>
      <point x="180" y="-17"/>
      <point x="319" y="-19" type="curve" smooth="yes"/>
      <point x="359" y="-20"/>
      <point x="399" y="-14"/>
      <point x="437" y="0" type="curve"/>
      <point x="451" y="160" type="line"/>
      <point x="429" y="155"/>
      <point x="407" y="150"/>
      <point x="384" y="150" type="curve" smooth="yes"/>
      <point x="332" y="151"/>
      <point x="318" y="200"/>
      <point x="321" y="267" type="curve"/>
      <point x="474" y="1342" type="line"/>
    </contour>
  </outline>
</glyph>
<glyph name="u" format="1">
  <advance width="962"/>
  <unicode hex="0075"/>
  <outline>
    <contour>
      <point x="579" y="1290" type="move" name="top"/>
    </contour>
    <contour>
      <point x="738" y="0" type="move" name="ogonek"/>
    </contour>
    <contour>
      <point x="346" y="0" type="move" name="bottomu"/>
    </contour>
    <contour>
      <point x="1087" y="1600" type="move" name="top_dd"/>
    </contour>
    <contour>
      <point x="796" y="-407" type="move" name="bottom_dd"/>
    </contour>
    <contour>
      <point x="777" y="654" type="move" name="rhotichook"/>
    </contour>
    <contour>
      <point x="1042" y="1290" type="move" name="top0315"/>
    </contour>
    <contour>
      <point x="392" y="0" type="move" name="bottom"/>
    </contour>
    <contour>
      <point x="601" y="261" type="line"/>
      <point x="597" y="160" type="line"/>
      <point x="572" y="0" type="line"/>
      <point x="749" y="0" type="line"/>
      <point x="907" y="1082" type="line"/>
      <point x="721" y="1082" type="line"/>
    </contour>
    <contour>
      <point x="662" y="487" type="line"/>
      <point x="640" y="291"/>
      <point x="559" y="138"/>
      <point x="383" y="146" type="curve" smooth="yes"/>
      <point x="285" y="151"/>
      <point x="274" y="271"/>
      <point x="282" y="380" type="curve"/>
      <point x="380" y="1082" type="line"/>
      <point x="193" y="1082" type="line"/>
      <point x="95" y="383" type="line"/>
      <point x="78" y="169"/>
      <point x="145" y="-16"/>
      <point x="341" y="-21" type="curve" smooth="yes"/>
      <point x="610" y="-28"/>
      <point x="699" y="225"/>
      <point x="724" y="489" type="curve"/>
    </contour>
  </outline>
</glyph>
<glyph name="v" format="1">
  <advance width="852"/>
  <unicode hex="0076"/>
  <outline>
    <contour>
      <point x="523" y="1280" type="move" name="top"/>
    </contour>
    <contour>
      <point x="358" y="10" type="move" name="bottom"/>
    </contour>
    <contour>
      <point x="963" y="1600" type="move" name="top_dd"/>
    </contour>
    <contour>
      <point x="701" y="-407" type="move" name="bottom_dd"/>
    </contour>
    <contour>
      <point x="921" y="1280" type="move" name="top0315"/>
    </contour>
    <contour>
      <point x="349" y="186" type="line"/>
      <point x="292" y="0" type="line"/>
      <point x="420" y="0" type="line"/>
      <point x="871" y="1082" type="line"/>
      <point x="674" y="1082" type="line"/>
    </contour>
    <contour>
      <point x="294" y="1082" type="line"/>
      <point x="111" y="1082" type="line"/>
      <point x="281" y="0" type="line"/>
      <point x="397" y="0" type="line"/>
      <point x="403" y="161" type="line"/>
    </contour>
  </outline>
</glyph>
<glyph name="w" format="1">
  <advance width="1291"/>
  <unicode hex="0077"/>
  <outline>
    <contour>
      <point x="741" y="1290" type="move" name="top"/>
    </contour>
    <contour>
      <point x="558" y="10" type="move" name="bottom"/>
    </contour>
    <contour>
      <point x="741" y="1290" type="move" name="marktop"/>
    </contour>
    <contour>
      <point x="1416" y="1600" type="move" name="top_dd"/>
    </contour>
    <contour>
      <point x="1125" y="-407" type="move" name="bottom_dd"/>
    </contour>
    <contour>
      <point x="1371" y="1290" type="move" name="top0315"/>
    </contour>
    <contour>
      <point x="274" y="193" type="line"/>
      <point x="245" y="0" type="line"/>
      <point x="365" y="0" type="line"/>
      <point x="732" y="903" type="line"/>
      <point x="763" y="1082" type="line"/>
      <point x="638" y="1082" type="line"/>
    </contour>
    <contour>
      <point x="296" y="1082" type="line"/>
      <point x="118" y="1082" type="line"/>
      <point x="216" y="0" type="line"/>
      <point x="335" y="0" type="line"/>
      <point x="358" y="159" type="line"/>
    </contour>
    <contour>
      <point x="813" y="189" type="line"/>
      <point x="778" y="0" type="line"/>
      <point x="905" y="0" type="line"/>
      <point x="1319" y="1082" type="line"/>
      <point x="1129" y="1082" type="line"/>
    </contour>
    <contour>
      <point x="786" y="1082" type="line"/>
      <point x="662" y="1082" type="line"/>
      <point x="648" y="926" type="line"/>
      <point x="756" y="0" type="line"/>
      <point x="867" y="0" type="line"/>
      <point x="884" y="187" type="line"/>
    </contour>
  </outline>
</glyph>
<glyph name="x" format="1">
  <advance width="878"/>
  <unicode hex="0078"/>
  <outline>
    <contour>
      <point x="359" y="10" type="move" name="bottom"/>
    </contour>
    <contour>
      <point x="643" y="0" type="move" name="right"/>
    </contour>
    <contour>
      <point x="429" y="553" type="move" name="cross"/>
    </contour>
    <contour>
      <point x="523" y="1280" type="move" name="top"/>
    </contour>
    <contour>
      <point x="988" y="1600" type="move" name="top_dd"/>
    </contour>
    <contour>
      <point x="726" y="-407" type="move" name="bottom_dd"/>
    </contour>
    <contour>
      <point x="947" y="1280" type="move" name="top0315"/>
    </contour>
    <contour>
      <point x="328" y="1082" type="line"/>
      <point x="126" y="1082" type="line"/>
      <point x="333" y="557" type="line"/>
      <point x="-35" y="0" type="line"/>
      <point x="192" y="0" type="line"/>
      <point x="414" y="396" type="line"/>
      <point x="537" y="0" type="line"/>
      <point x="739" y="0" type="line"/>
      <point x="527" y="537" type="line"/>
      <point x="887" y="1082" type="line"/>
      <point x="659" y="1082" type="line"/>
      <point x="444" y="696" type="line"/>
    </contour>
  </outline>
</glyph>
<glyph name="y" format="1">
  <advance width="827"/>
  <unicode hex="0079"/>
  <outline>
    <contour>
      <point x="531" y="1290" type="move" name="top"/>
    </contour>
    <contour>
      <point x="488" y="-158" type="move" name="bottom"/>
    </contour>
    <contour>
      <point x="531" y="1290" type="move" name="marktop"/>
    </contour>
    <contour>
      <point x="952" y="1600" type="move" name="top_dd"/>
    </contour>
    <contour>
      <point x="661" y="-407" type="move" name="bottom_dd"/>
    </contour>
    <contour>
      <point x="626" y="654" type="move" name="rhotichook"/>
    </contour>
    <contour>
      <point x="907" y="1290" type="move" name="top0315"/>
    </contour>
    <contour>
      <point x="298" y="127" type="line"/>
      <point x="207" y="-93" type="line" smooth="yes"/>
      <point x="160" y="-205"/>
      <point x="101" y="-274"/>
      <point x="-10" y="-268" type="curve" smooth="yes"/>
      <point x="-21" y="-268"/>
      <point x="-32" y="-265"/>
      <point x="-43" y="-263" type="curve"/>
      <point x="-59" y="-422" type="line"/>
      <point x="-26" y="-430"/>
      <point x="8" y="-439"/>
      <point x="41" y="-440" type="curve" smooth="yes"/>
      <point x="187" y="-443"/>
      <point x="287" y="-310"/>
      <point x="344" y="-167" type="curve" smooth="yes"/>
      <point x="865" y="1082" type="line"/>
      <point x="659" y="1082" type="line"/>
    </contour>
    <contour>
      <point x="303" y="1082" type="line"/>
      <point x="107" y="1082" type="line"/>
      <point x="259" y="-24" type="line"/>
      <point x="397" y="43" type="line"/>
      <point x="384" y="247" type="line"/>
    </contour>
  </outline>
</glyph>
<glyph name="z" format="1">
  <advance width="878"/>
  <unicode hex="007A"/>
  <outline>
    <contour>
      <point x="540" y="1290" type="move" name="top"/>
    </contour>
    <contour>
      <point x="359" y="10" type="move" name="bottom"/>
    </contour>
    <contour>
      <point x="1003" y="1600" type="move" name="top_dd"/>
    </contour>
    <contour>
      <point x="711" y="-407" type="move" name="bottom_dd"/>
    </contour>
    <contour>
      <point x="958" y="1290" type="move" name="top0315"/>
    </contour>
    <contour>
      <point x="736" y="160" type="line"/>
      <point x="104" y="160" type="line"/>
      <point x="77" y="0" type="line"/>
      <point x="709" y="0" type="line"/>
    </contour>
    <contour>
      <point x="827" y="934" type="line"/>
      <point x="851" y="1082" type="line"/>
      <point x="725" y="1082" type="line"/>
      <point x="31" y="154" type="line"/>
      <point x="5" y="0" type="line"/>
      <point x="126" y="0" type="line"/>
    </contour>
    <contour>
      <point x="770" y="1082" type="line"/>
      <point x="164" y="1082" type="line"/>
      <point x="137" y="921" type="line"/>
      <point x="743" y="921" type="line"/>
    </contour>
  </outline>
</glyph>
<glyph name="braceleft" format="1">
  <advance width="614"/>
  <unicode hex="007B"/>
  <outline>
    <contour>
      <point x="193" y="310" type="curve" smooth="yes"/>
      <point x="171" y="106" type="line" smooth="yes"/>
      <point x="152" y="-116"/>
      <point x="238" y="-287"/>
      <point x="419" y="-358" type="curve"/>
      <point x="463" y="-239" type="line"/>
      <point x="347" y="-180"/>
      <point x="345" y="-36"/>
      <point x="358" y="105" type="curve" smooth="yes"/>
      <point x="379" y="309" type="line" smooth="yes"/>
      <point x="388" y="425"/>
      <point x="366" y="541"/>
      <point x="274" y="632" type="curve"/>
      <point x="272" y="599" type="line"/>
      <point x="396" y="684"/>
      <point x="451" y="787"/>
      <point x="466" y="929" type="curve" smooth="yes"/>
      <point x="488" y="1132" type="line" smooth="yes"/>
      <point x="506" y="1290"/>
      <point x="557" y="1424"/>
      <point x="684" y="1477" type="curve"/>
      <point x="653" y="1601" type="line"/>
      <point x="450" y="1529"/>
      <point x="327" y="1380"/>
      <point x="300" y="1132" type="curve" smooth="yes"/>
      <point x="279" y="929" type="line" smooth="yes"/>
      <point x="262" y="789"/>
      <point x="199" y="698"/>
      <point x="80" y="693" type="curve"/>
      <point x="66" y="542" type="line"/>
      <point x="178" y="532"/>
      <point x="204" y="439"/>
    </contour>
  </outline>
</glyph>
<glyph name="asciitilde" format="1">
  <advance width="1170"/>
  <unicode hex="007E"/>
  <outline>
    <contour>
      <point x="926" y="778" type="line"/>
      <point x="912" y="676"/>
      <point x="866" y="568"/>
      <point x="771" y="569" type="curve" smooth="yes"/>
      <point x="717" y="570"/>
      <point x="678" y="621"/>
      <point x="642" y="667" type="curve" smooth="yes"/>
      <point x="578" y="743"/>
      <point x="502" y="804"/>
      <point x="409" y="806" type="curve" smooth="yes"/>
      <point x="227" y="811"/>
      <point x="114" y="627"/>
      <point x="100" y="434" type="curve"/>
      <point x="259" y="437" type="line"/>
      <point x="272" y="536"/>
      <point x="310" y="637"/>
      <point x="402" y="634" type="curve" smooth="yes"/>
      <point x="455" y="633"/>
      <point x="495" y="583"/>
      <point x="530" y="537" type="curve" smooth="yes"/>
      <point x="595" y="461"/>
      <point x="670" y="400"/>
      <point x="763" y="398" type="curve" smooth="yes"/>
      <point x="948" y="394"/>
      <point x="1058" y="589"/>
      <point x="1070" y="781" type="curve"/>
    </contour>
  </outline>
</glyph>
<glyph name="exclamdown" format="1">
  <advance width="472"/>
  <unicode hex="00A1"/>
  <outline>
    <contour>
      <point x="2" y="-361" type="line"/>
      <point x="198" y="-361" type="line"/>
      <point x="336" y="683" type="line"/>
      <point x="169" y="683" type="line"/>
    </contour>
    <contour>
      <point x="396" y="995" type="curve" smooth="yes"/>
      <point x="395" y="1060"/>
      <point x="351" y="1104"/>
      <point x="291" y="1102" type="curve" smooth="yes"/>
      <point x="231" y="1100"/>
      <point x="188" y="1055"/>
      <point x="188" y="989" type="curve" smooth="yes"/>
      <point x="188" y="924"/>
      <point x="233" y="878"/>
      <point x="294" y="880" type="curve" smooth="yes"/>
      <point x="354" y="882"/>
      <point x="396" y="929"/>
    </contour>
  </outline>
</glyph>
<glyph name="cent" format="1">
  <advance width="956"/>
  <unicode hex="00A2"/>
  <outline>
    <contour>
      <point x="689" y="1318" type="line"/>
      <point x="502" y="1318" type="line"/>
      <point x="454" y="1026" type="line"/>
      <point x="640" y="1026" type="line"/>
    </contour>
    <contour>
      <point x="509" y="46" type="line"/>
      <point x="323" y="46" type="line"/>
      <point x="274" y="-245" type="line"/>
      <point x="460" y="-245" type="line"/>
    </contour>
    <contour>
      <point x="444" y="139" type="curve" smooth="yes"/>
      <point x="280" y="143"/>
      <point x="264" y="354"/>
      <point x="276" y="518" type="curve" smooth="yes"/>
      <point x="280" y="560" type="line" smooth="yes"/>
      <point x="296" y="746"/>
      <point x="373" y="949"/>
      <point x="546" y="942" type="curve" smooth="yes"/>
      <point x="649" y="938"/>
      <point x="698" y="833"/>
      <point x="703" y="708" type="curve"/>
      <point x="878" y="708" type="line"/>
      <point x="874" y="933"/>
      <point x="747" y="1097"/>
      <point x="554" y="1102" type="curve" smooth="yes"/>
      <point x="288" y="1109"/>
      <point x="120" y="851"/>
      <point x="95" y="560" type="curve" smooth="yes"/>
      <point x="92" y="517" type="line" smooth="yes"/>
      <point x="72" y="243"/>
      <point x="180" y="-15"/>
      <point x="437" y="-21" type="curve" smooth="yes"/>
      <point x="615" y="-24"/>
      <point x="803" y="126"/>
      <point x="825" y="343" type="curve"/>
      <point x="649" y="342" type="line"/>
      <point x="625" y="222"/>
      <point x="541" y="136"/>
    </contour>
  </outline>
</glyph>
<glyph name="sterling" format="1">
  <advance width="1021"/>
  <unicode hex="00A3"/>
  <outline>
    <contour>
      <point x="870" y="0" type="line"/>
      <point x="899" y="166" type="line"/>
      <point x="37" y="166" type="line"/>
      <point x="9" y="0" type="line"/>
    </contour>
    <contour>
      <point x="653" y="619" type="line"/>
      <point x="681" y="785" type="line"/>
      <point x="122" y="785" type="line"/>
      <point x="94" y="619" type="line"/>
    </contour>
    <contour>
      <point x="459" y="1040" type="line" smooth="yes"/>
      <point x="473" y="1179"/>
      <point x="549" y="1316"/>
      <point x="669" y="1311" type="curve" smooth="yes"/>
      <point x="772" y="1307"/>
      <point x="816" y="1214"/>
      <point x="813" y="1087" type="curve"/>
      <point x="1007" y="1086" type="line"/>
      <point x="1013" y="1316"/>
      <point x="893" y="1470"/>
      <point x="697" y="1476" type="curve" smooth="yes"/>
      <point x="472" y="1483"/>
      <point x="290" y="1300"/>
      <point x="264" y="1038" type="curve" smooth="yes"/>
      <point x="197" y="407" type="line" smooth="yes"/>
      <point x="186" y="325"/>
      <point x="159" y="199"/>
      <point x="88" y="166" type="curve"/>
      <point x="251" y="110" type="line"/>
      <point x="331" y="181"/>
      <point x="381" y="298"/>
      <point x="393" y="410" type="curve" smooth="yes"/>
    </contour>
  </outline>
</glyph>
<glyph name="currency" format="1">
  <advance width="1412"/>
  <unicode hex="00A4"/>
  <outline>
    <contour>
      <point x="1245" y="109" type="line"/>
      <point x="1134" y="256" type="line"/>
      <point x="1219" y="360"/>
      <point x="1273" y="481"/>
      <point x="1290" y="615" type="curve" smooth="yes"/>
      <point x="1306" y="735"/>
      <point x="1290" y="854"/>
      <point x="1249" y="968" type="curve"/>
      <point x="1418" y="1110" type="line"/>
      <point x="1298" y="1265" type="line"/>
      <point x="1129" y="1117" type="line"/>
      <point x="1039" y="1193"/>
      <point x="926" y="1232"/>
      <point x="808" y="1233" type="curve" smooth="yes"/>
      <point x="679" y="1235"/>
      <point x="561" y="1191"/>
      <point x="454" y="1121" type="curve"/>
      <point x="344" y="1264" type="line"/>
      <point x="192" y="1130" type="line"/>
      <point x="307" y="976" type="line"/>
      <point x="213" y="869"/>
      <point x="154" y="743"/>
      <point x="136" y="602" type="curve" smooth="yes"/>
      <point x="121" y="485"/>
      <point x="136" y="369"/>
      <point x="174" y="257" type="curve"/>
      <point x="19" y="128" type="line"/>
      <point x="138" y="-26" type="line"/>
      <point x="288" y="106" type="line"/>
      <point x="380" y="25"/>
      <point x="496" y="-18"/>
      <point x="619" y="-20" type="curve" smooth="yes"/>
      <point x="756" y="-22"/>
      <point x="880" y="28"/>
      <point x="990" y="106" type="curve"/>
      <point x="1091" y="-27" type="line"/>
    </contour>
    <contour>
      <point x="316" y="599" type="curve" smooth="yes"/>
      <point x="348" y="833"/>
      <point x="547" y="1061"/>
      <point x="797" y="1053" type="curve" smooth="yes"/>
      <point x="1027" y="1046"/>
      <point x="1138" y="824"/>
      <point x="1110" y="616" type="curve" smooth="yes"/>
      <point x="1078" y="383"/>
      <point x="880" y="153"/>
      <point x="630" y="160" type="curve" smooth="yes"/>
      <point x="400" y="167"/>
      <point x="288" y="391"/>
    </contour>
  </outline>
</glyph>
<glyph name="yen" format="1">
  <advance width="927"/>
  <unicode hex="00A5"/>
  <outline>
    <contour>
      <point x="827" y="742" type="line"/>
      <point x="146" y="742" type="line"/>
      <point x="123" y="611" type="line"/>
      <point x="805" y="611" type="line"/>
    </contour>
    <contour>
      <point x="785" y="452" type="line"/>
      <point x="104" y="452" type="line"/>
      <point x="82" y="322" type="line"/>
      <point x="763" y="322" type="line"/>
    </contour>
    <contour>
      <point x="402" y="660" type="line"/>
      <point x="440" y="601" type="line"/>
      <point x="557" y="602" type="line"/>
      <point x="1031" y="1456" type="line"/>
      <point x="806" y="1456" type="line"/>
    </contour>
    <contour>
      <point x="361" y="1457" type="line"/>
      <point x="158" y="1456" type="line"/>
      <point x="379" y="602" type="line"/>
      <point x="502" y="603" type="line"/>
      <point x="542" y="650" type="line"/>
    </contour>
    <contour>
      <point x="587" y="782" type="line"/>
      <point x="392" y="782" type="line"/>
      <point x="275" y="0" type="line"/>
      <point x="470" y="0" type="line"/>
    </contour>
  </outline>
</glyph>
<glyph name="brokenbar" format="1">
  <advance width="487"/>
  <unicode hex="00A6"/>
  <outline>
    <contour>
      <point x="185" y="-270" type="line"/>
      <point x="323" y="525" type="line"/>
      <point x="127" y="525" type="line"/>
      <point x="-11" y="-270" type="line"/>
    </contour>
    <contour>
      <point x="484" y="1456" type="line"/>
      <point x="289" y="1456" type="line"/>
      <point x="157" y="698" type="line"/>
      <point x="352" y="698" type="line"/>
    </contour>
  </outline>
</glyph>
<glyph name="section" format="1">
  <advance width="1072"/>
  <unicode hex="00A7"/>
  <outline>
    <contour>
      <point x="524" y="103" type="line"/>
      <point x="714" y="106"/>
      <point x="931" y="202"/>
      <point x="944" y="438" type="curve" smooth="yes"/>
      <point x="957" y="693"/>
      <point x="797" y="790"/>
      <point x="615" y="859" type="curve" smooth="yes"/>
      <point x="514" y="900"/>
      <point x="372" y="937"/>
      <point x="390" y="1104" type="curve" smooth="yes"/>
      <point x="406" y="1260"/>
      <point x="532" y="1320"/>
      <point x="642" y="1317" type="curve" smooth="yes"/>
      <point x="769" y="1313"/>
      <point x="835" y="1203"/>
      <point x="830" y="1046" type="curve"/>
      <point x="1016" y="1046" type="line"/>
      <point x="1025" y="1320"/>
      <point x="875" y="1472"/>
      <point x="649" y="1477" type="curve" smooth="yes"/>
      <point x="447" y="1481"/>
      <point x="216" y="1369"/>
      <point x="202" y="1101" type="curve" smooth="yes"/>
      <point x="189" y="845"/>
      <point x="314" y="756"/>
      <point x="536" y="685" type="curve" smooth="yes"/>
      <point x="630" y="651"/>
      <point x="770" y="593"/>
      <point x="754" y="436" type="curve" smooth="yes"/>
      <point x="738" y="294"/>
      <point x="641" y="232"/>
      <point x="534" y="228" type="curve"/>
    </contour>
    <contour>
      <point x="488" y="880" type="line"/>
      <point x="302" y="876"/>
      <point x="96" y="771"/>
      <point x="84" y="544" type="curve" smooth="yes"/>
      <point x="71" y="288"/>
      <point x="229" y="194"/>
      <point x="409" y="123" type="curve" smooth="yes"/>
      <point x="499" y="84"/>
      <point x="655" y="35"/>
      <point x="638" y="-122" type="curve" smooth="yes"/>
      <point x="622" y="-275"/>
      <point x="493" y="-338"/>
      <point x="385" y="-335" type="curve" smooth="yes"/>
      <point x="253" y="-332"/>
      <point x="169" y="-234"/>
      <point x="175" y="-62" type="curve"/>
      <point x="-11" y="-63" type="line"/>
      <point x="-20" y="-348"/>
      <point x="152" y="-491"/>
      <point x="378" y="-496" type="curve" smooth="yes"/>
      <point x="585" y="-499"/>
      <point x="811" y="-392"/>
      <point x="825" y="-119" type="curve" smooth="yes"/>
      <point x="837" y="136"/>
      <point x="711" y="227"/>
      <point x="489" y="296" type="curve" smooth="yes"/>
      <point x="386" y="331"/>
      <point x="256" y="378"/>
      <point x="273" y="546" type="curve" smooth="yes"/>
      <point x="288" y="684"/>
      <point x="372" y="746"/>
      <point x="477" y="750" type="curve"/>
    </contour>
  </outline>
</glyph>
<glyph name="dieresis" format="1">
  <advance width="825"/>
  <unicode hex="00A8"/>
  <outline>
    <contour>
      <point x="515" y="1290" type="move" name="_top"/>
    </contour>
    <contour>
      <point x="560" y="1580" type="move" name="mkmktop_acc"/>
    </contour>
    <contour>
      <point x="210" y="1365" type="curve" smooth="yes"/>
      <point x="209" y="1299"/>
      <point x="258" y="1256"/>
      <point x="322" y="1257" type="curve" smooth="yes"/>
      <point x="386" y="1259"/>
      <point x="434" y="1304"/>
      <point x="435" y="1369" type="curve" smooth="yes"/>
      <point x="435" y="1435"/>
      <point x="387" y="1480"/>
      <point x="322" y="1479" type="curve" smooth="yes"/>
      <point x="256" y="1477"/>
      <point x="210" y="1430"/>
    </contour>
    <contour>
      <point x="626" y="1363" type="curve" smooth="yes"/>
      <point x="625" y="1297"/>
      <point x="674" y="1254"/>
      <point x="738" y="1255" type="curve" smooth="yes"/>
      <point x="802" y="1257"/>
      <point x="850" y="1302"/>
      <point x="851" y="1367" type="curve" smooth="yes"/>
      <point x="851" y="1433"/>
      <point x="803" y="1478"/>
      <point x="738" y="1477" type="curve" smooth="yes"/>
      <point x="672" y="1475"/>
      <point x="626" y="1428"/>
    </contour>
  </outline>
</glyph>
<glyph name="copyright" format="1">
  <advance width="1555"/>
  <unicode hex="00A9"/>
  <outline>
    <contour>
      <point x="931" y="595" type="line"/>
      <point x="912" y="483"/>
      <point x="854" y="412"/>
      <point x="733" y="417" type="curve" smooth="yes"/>
      <point x="598" y="422"/>
      <point x="576" y="558"/>
      <point x="586" y="668" type="curve" smooth="yes"/>
      <point x="600" y="789" type="line" smooth="yes"/>
      <point x="616" y="915"/>
      <point x="684" y="1044"/>
      <point x="827" y="1042" type="curve" smooth="yes"/>
      <point x="944" y="1040"/>
      <point x="983" y="971"/>
      <point x="976" y="862" type="curve"/>
      <point x="1128" y="861" type="line"/>
      <point x="1136" y="1054"/>
      <point x="1026" y="1172"/>
      <point x="832" y="1176" type="curve" smooth="yes"/>
      <point x="605" y="1180"/>
      <point x="471" y="997"/>
      <point x="448" y="788" type="curve" smooth="yes"/>
      <point x="435" y="669" type="line" smooth="yes"/>
      <point x="419" y="472"/>
      <point x="513" y="288"/>
      <point x="729" y="282" type="curve" smooth="yes"/>
      <point x="933" y="276"/>
      <point x="1064" y="396"/>
      <point x="1081" y="596" type="curve"/>
    </contour>
    <contour>
      <point x="225" y="722" type="curve" smooth="yes"/>
      <point x="269" y="1053"/>
      <point x="551" y="1358"/>
      <point x="900" y="1351" type="curve" smooth="yes"/>
      <point x="1230" y="1345"/>
      <point x="1403" y="1040"/>
      <point x="1362" y="736" type="curve" smooth="yes"/>
      <point x="1319" y="406"/>
      <point x="1037" y="96"/>
      <point x="688" y="104" type="curve" smooth="yes"/>
      <point x="357" y="110"/>
      <point x="185" y="418"/>
    </contour>
    <contour>
      <point x="105" y="722" type="curve" smooth="yes"/>
      <point x="64" y="351"/>
      <point x="292" y="-15"/>
      <point x="690" y="-21" type="curve" smooth="yes"/>
      <point x="1106" y="-28"/>
      <point x="1438" y="340"/>
      <point x="1482" y="735" type="curve" smooth="yes"/>
      <point x="1523" y="1107"/>
      <point x="1296" y="1470"/>
      <point x="898" y="1476" type="curve" smooth="yes"/>
      <point x="483" y="1483"/>
      <point x="149" y="1119"/>
    </contour>
  </outline>
</glyph>
<glyph name="ordfeminine" format="1">
  <advance width="791"/>
  <unicode hex="00AA"/>
  <outline>
    <contour>
      <point x="530" y="834" type="line"/>
      <point x="528" y="791"/>
      <point x="529" y="748"/>
      <point x="535" y="705" type="curve"/>
      <point x="691" y="704" type="line"/>
      <point x="681" y="766"/>
      <point x="684" y="825"/>
      <point x="692" y="887" type="curve" smooth="yes"/>
      <point x="733" y="1201" type="line"/>
      <point x="743" y="1366"/>
      <point x="654" y="1475"/>
      <point x="515" y="1478" type="curve" smooth="yes"/>
      <point x="387" y="1481"/>
      <point x="257" y="1408"/>
      <point x="246" y="1244" type="curve"/>
      <point x="409" y="1230" type="line"/>
      <point x="422" y="1300"/>
      <point x="459" y="1331"/>
      <point x="511" y="1329" type="curve" smooth="yes"/>
      <point x="565" y="1326"/>
      <point x="575" y="1270"/>
      <point x="571" y="1204" type="curve"/>
      <point x="559" y="1111" type="line"/>
      <point x="554" y="1076" type="line"/>
      <point x="527" y="862" type="line"/>
    </contour>
    <contour>
      <point x="609" y="1151" type="line"/>
      <point x="485" y="1152" type="line" smooth="yes"/>
      <point x="349" y="1152"/>
      <point x="183" y="1105"/>
      <point x="182" y="912" type="curve" smooth="yes"/>
      <point x="181" y="776"/>
      <point x="257" y="691"/>
      <point x="371" y="691" type="curve" smooth="yes"/>
      <point x="455" y="690"/>
      <point x="529" y="751"/>
      <point x="570" y="832" type="curve"/>
      <point x="568" y="950" type="line"/>
      <point x="543" y="891"/>
      <point x="471" y="833"/>
      <point x="414" y="833" type="curve" smooth="yes"/>
      <point x="376" y="833"/>
      <point x="342" y="856"/>
      <point x="347" y="916" type="curve" smooth="yes"/>
      <point x="355" y="1005"/>
      <point x="433" y="1032"/>
      <point x="489" y="1034" type="curve" smooth="yes"/>
      <point x="591" y="1034" type="line"/>
    </contour>
  </outline>
</glyph>
<glyph name="logicalnot" format="1">
  <advance width="973"/>
  <unicode hex="00AC"/>
  <outline>
    <contour>
      <point x="845" y="805" type="line"/>
      <point x="157" y="805" type="line"/>
      <point x="127" y="634" type="line"/>
      <point x="816" y="634" type="line"/>
    </contour>
    <contour>
      <point x="833" y="728" type="line"/>
      <point x="646" y="728" type="line"/>
      <point x="592" y="374" type="line"/>
      <point x="779" y="374" type="line"/>
    </contour>
  </outline>
</glyph>
<glyph name="registered" format="1">
  <advance width="1555"/>
  <unicode hex="00AE"/>
  <outline>
    <contour>
      <point x="817" y="653" type="line" smooth="yes"/>
      <point x="840" y="654"/>
      <point x="854" y="659"/>
      <point x="872" y="673" type="curve"/>
      <point x="887" y="687" type="line"/>
      <point x="961" y="708"/>
      <point x="1118" y="773"/>
      <point x="1124" y="916" type="curve" smooth="yes"/>
      <point x="1132" y="1090"/>
      <point x="992" y="1160"/>
      <point x="837" y="1165" type="curve" smooth="yes"/>
      <point x="576" y="1166" type="line"/>
      <point x="443" y="316" type="line"/>
      <point x="591" y="316" type="line"/>
      <point x="703" y="1033" type="line"/>
      <point x="839" y="1032" type="line" smooth="yes"/>
      <point x="925" y="1030"/>
      <point x="994" y="1009"/>
      <point x="977" y="909" type="curve" smooth="yes"/>
      <point x="963" y="825"/>
      <point x="877" y="790"/>
      <point x="800" y="786" type="curve" smooth="yes"/>
      <point x="617" y="787" type="line"/>
      <point x="598" y="653" type="line"/>
    </contour>
    <contour>
      <point x="792" y="653" type="line"/>
      <point x="894" y="644"/>
      <point x="919" y="612"/>
      <point x="911" y="516" type="curve" smooth="yes"/>
      <point x="905" y="461" type="line" smooth="yes"/>
      <point x="900" y="412"/>
      <point x="895" y="364"/>
      <point x="902" y="315" type="curve"/>
      <point x="1050" y="315" type="line"/>
      <point x="1052" y="332" type="line"/>
      <point x="1048" y="376"/>
      <point x="1045" y="414"/>
      <point x="1050" y="459" type="curve" smooth="yes"/>
      <point x="1056" y="515" type="line" smooth="yes"/>
      <point x="1067" y="675"/>
      <point x="1004" y="744"/>
      <point x="814" y="747" type="curve"/>
    </contour>
    <contour>
      <point x="225" y="722" type="curve" smooth="yes"/>
      <point x="269" y="1053"/>
      <point x="551" y="1358"/>
      <point x="900" y="1351" type="curve" smooth="yes"/>
      <point x="1230" y="1345"/>
      <point x="1403" y="1040"/>
      <point x="1363" y="736" type="curve" smooth="yes"/>
      <point x="1319" y="405"/>
      <point x="1037" y="96"/>
      <point x="688" y="103" type="curve" smooth="yes"/>
      <point x="357" y="110"/>
      <point x="185" y="418"/>
    </contour>
    <contour>
      <point x="105" y="722" type="curve" smooth="yes"/>
      <point x="64" y="351"/>
      <point x="292" y="-15"/>
      <point x="690" y="-22" type="curve" smooth="yes"/>
      <point x="1106" y="-28"/>
      <point x="1438" y="339"/>
      <point x="1482" y="735" type="curve" smooth="yes"/>
      <point x="1524" y="1107"/>
      <point x="1296" y="1470"/>
      <point x="898" y="1476" type="curve" smooth="yes"/>
      <point x="483" y="1483"/>
      <point x="149" y="1119"/>
    </contour>
  </outline>
</glyph>
<glyph name="macron" format="1">
  <advance width="839"/>
  <unicode hex="00AF"/>
  <outline>
    <contour>
      <point x="511" y="1282" type="move" name="_top"/>
    </contour>
    <contour>
      <point x="551" y="1580" type="move" name="mkmktop_acc"/>
    </contour>
    <contour>
      <point x="826" y="1446" type="line"/>
      <point x="250" y="1446" type="line"/>
      <point x="227" y="1296" type="line"/>
      <point x="803" y="1296" type="line"/>
    </contour>
  </outline>
</glyph>
<glyph name="degree" format="1">
  <advance width="740"/>
  <unicode hex="00B0"/>
  <outline>
    <contour>
      <point x="231" y="1206" type="curve" smooth="yes"/>
      <point x="227" y="1075"/>
      <point x="324" y="958"/>
      <point x="459" y="956" type="curve" smooth="yes"/>
      <point x="605" y="954"/>
      <point x="721" y="1082"/>
      <point x="726" y="1224" type="curve" smooth="yes"/>
      <point x="730" y="1353"/>
      <point x="637" y="1476"/>
      <point x="502" y="1478" type="curve" smooth="yes"/>
      <point x="355" y="1480"/>
      <point x="236" y="1349"/>
    </contour>
    <contour>
      <point x="360" y="1208" type="curve" smooth="yes"/>
      <point x="368" y="1278"/>
      <point x="430" y="1344"/>
      <point x="503" y="1344" type="curve" smooth="yes"/>
      <point x="569" y="1343"/>
      <point x="606" y="1283"/>
      <point x="598" y="1222" type="curve" smooth="yes"/>
      <point x="590" y="1152"/>
      <point x="531" y="1091"/>
      <point x="459" y="1091" type="curve" smooth="yes"/>
      <point x="394" y="1090"/>
      <point x="353" y="1147"/>
    </contour>
  </outline>
</glyph>
<glyph name="plusminus" format="1">
  <advance width="937"/>
  <unicode hex="00B1"/>
  <outline>
    <contour>
      <point x="889" y="859" type="line"/>
      <point x="141" y="859" type="line"/>
      <point x="117" y="699" type="line"/>
      <point x="864" y="699" type="line"/>
    </contour>
    <contour>
      <point x="660" y="1267" type="line"/>
      <point x="492" y="1267" type="line"/>
      <point x="363" y="289" type="line"/>
      <point x="531" y="289" type="line"/>
    </contour>
    <contour>
      <point x="764" y="161" type="line"/>
      <point x="82" y="161" type="line"/>
      <point x="55" y="1" type="line"/>
      <point x="736" y="1" type="line"/>
    </contour>
  </outline>
</glyph>
<glyph name="acute" format="1">
  <advance width="637"/>
  <unicode hex="00B4"/>
  <outline>
    <contour>
      <point x="333" y="1290" type="move" name="_top"/>
    </contour>
    <contour>
      <point x="389" y="1650" type="move" name="mkmktop_acc"/>
    </contour>
    <contour>
      <point x="212" y="1240" type="line"/>
      <point x="382" y="1240" type="line"/>
      <point x="696" y="1536" type="line"/>
      <point x="447" y="1536" type="line"/>
    </contour>
  </outline>
</glyph>
<glyph name="mu" format="1">
  <advance width="996"/>
  <unicode hex="00B5"/>
  <outline>
    <contour>
      <point x="738" y="1082" type="line"/>
      <point x="619" y="262" type="line"/>
      <point x="623" y="175" type="line"/>
      <point x="600" y="0" type="line"/>
      <point x="766" y="0" type="line"/>
      <point x="925" y="1082" type="line"/>
    </contour>
    <contour>
      <point x="683" y="507" type="line"/>
      <point x="664" y="308"/>
      <point x="596" y="130"/>
      <point x="422" y="138" type="curve" smooth="yes"/>
      <point x="288" y="144"/>
      <point x="304" y="329"/>
      <point x="311" y="462" type="curve"/>
      <point x="196" y="462" type="line"/>
      <point x="190" y="155" type="line"/>
      <point x="226" y="31"/>
      <point x="319" y="-20"/>
      <point x="415" y="-22" type="curve" smooth="yes"/>
      <point x="657" y="-28"/>
      <point x="714" y="309"/>
      <point x="736" y="509" type="curve"/>
    </contour>
    <contour>
      <point x="212" y="1082" type="line"/>
      <point x="-6" y="-416" type="line"/>
      <point x="179" y="-416" type="line"/>
      <point x="279" y="232" type="line"/>
      <point x="279" y="249" type="line"/>
      <point x="398" y="1082" type="line"/>
    </contour>
  </outline>
</glyph>
<glyph name="paragraph" format="1">
  <advance width="871"/>
  <unicode hex="00B6"/>
  <outline>
    <contour>
      <point x="628" y="0" type="line"/>
      <point x="841" y="1456" type="line"/>
      <point x="581" y="1457" type="line" smooth="yes"/>
      <point x="336" y="1457"/>
      <point x="145" y="1275"/>
      <point x="124" y="980" type="curve" smooth="yes"/>
      <point x="104" y="710"/>
      <point x="242" y="527"/>
      <point x="468" y="521" type="curve" smooth="yes"/>
      <point x="517" y="520" type="line"/>
      <point x="441" y="0" type="line"/>
    </contour>
  </outline>
</glyph>
<glyph name="periodcentered" format="1">
  <advance width="492"/>
  <unicode hex="00B7"/>
  <outline>
    <contour>
      <point x="152" y="728" type="curve" smooth="yes"/>
      <point x="152" y="659"/>
      <point x="199" y="614"/>
      <point x="262" y="616" type="curve" smooth="yes"/>
      <point x="325" y="618"/>
      <point x="370" y="665"/>
      <point x="371" y="734" type="curve" smooth="yes"/>
      <point x="371" y="803"/>
      <point x="324" y="851"/>
      <point x="260" y="849" type="curve" smooth="yes"/>
      <point x="195" y="847"/>
      <point x="152" y="797"/>
    </contour>
  </outline>
</glyph>
<glyph name="cedilla" format="1">
  <advance width="459"/>
  <unicode hex="00B8"/>
  <outline>
    <contour>
      <point x="116" y="0" type="move" name="_bottom"/>
    </contour>
    <contour>
      <point x="52" y="-440" type="move" name="mkmkbottom_acc"/>
    </contour>
    <contour>
      <point x="50" y="0" type="line"/>
      <point x="11" y="-135" type="line"/>
      <point x="54" y="-142"/>
      <point x="130" y="-143"/>
      <point x="120" y="-221" type="curve" smooth="yes"/>
      <point x="110" y="-304"/>
      <point x="42" y="-321"/>
      <point x="-13" y="-324" type="curve"/>
      <point x="-16" y="-437" type="line"/>
      <point x="106" y="-433"/>
      <point x="262" y="-392"/>
      <point x="262" y="-217" type="curve" smooth="yes"/>
      <point x="262" y="-134"/>
      <point x="231" y="-73"/>
      <point x="164" y="-54" type="curve"/>
      <point x="181" y="0" type="line"/>
    </contour>
  </outline>
</glyph>
<glyph name="ordmasculine" format="1">
  <advance width="804"/>
  <unicode hex="00BA"/>
  <outline>
    <contour>
      <point x="181" y="1045" type="line" smooth="yes"/>
      <point x="171" y="853"/>
      <point x="266" y="696"/>
      <point x="437" y="691" type="curve" smooth="yes"/>
      <point x="619" y="685"/>
      <point x="743" y="842"/>
      <point x="760" y="1045" type="curve" smooth="yes"/>
      <point x="764" y="1122" type="line" smooth="yes"/>
      <point x="775" y="1314"/>
      <point x="681" y="1472"/>
      <point x="509" y="1478" type="curve" smooth="yes"/>
      <point x="328" y="1483"/>
      <point x="202" y="1324"/>
      <point x="185" y="1121" type="curve" smooth="yes"/>
    </contour>
    <contour>
      <point x="350" y="1122" type="line" smooth="yes"/>
      <point x="358" y="1229"/>
      <point x="406" y="1334"/>
      <point x="500" y="1330" type="curve" smooth="yes"/>
      <point x="589" y="1327"/>
      <point x="607" y="1220"/>
      <point x="602" y="1123" type="curve" smooth="yes"/>
      <point x="597" y="1045" type="line" smooth="yes"/>
      <point x="587" y="938"/>
      <point x="542" y="832"/>
      <point x="447" y="835" type="curve" smooth="yes"/>
      <point x="358" y="838"/>
      <point x="341" y="945"/>
      <point x="345" y="1042" type="curve" smooth="yes"/>
    </contour>
  </outline>
</glyph>
<glyph name="questiondown" format="1">
  <advance width="845"/>
  <unicode hex="00BF"/>
  <outline>
    <contour>
      <point x="340" y="679" type="line"/>
      <point x="328" y="579"/>
      <point x="295" y="497"/>
      <point x="231" y="430" type="curve" smooth="yes"/>
      <point x="119" y="312"/>
      <point x="-9" y="179"/>
      <point x="-20" y="-14" type="curve" smooth="yes"/>
      <point x="-35" y="-245"/>
      <point x="97" y="-382"/>
      <point x="288" y="-387" type="curve" smooth="yes"/>
      <point x="481" y="-391"/>
      <point x="652" y="-252"/>
      <point x="669" y="-20" type="curve"/>
      <point x="484" y="-21" type="line"/>
      <point x="466" y="-142"/>
      <point x="395" y="-220"/>
      <point x="299" y="-217" type="curve" smooth="yes"/>
      <point x="203" y="-215"/>
      <point x="160" y="-129"/>
      <point x="170" y="-8" type="curve" smooth="yes"/>
      <point x="182" y="123"/>
      <point x="262" y="204"/>
      <point x="331" y="289" type="curve" smooth="yes"/>
      <point x="439" y="407"/>
      <point x="509" y="506"/>
      <point x="523" y="680" type="curve"/>
    </contour>
    <contour>
      <point x="577" y="996" type="curve" smooth="yes"/>
      <point x="577" y="1061"/>
      <point x="533" y="1105"/>
      <point x="473" y="1103" type="curve" smooth="yes"/>
      <point x="413" y="1101"/>
      <point x="370" y="1055"/>
      <point x="370" y="990" type="curve" smooth="yes"/>
      <point x="370" y="925"/>
      <point x="415" y="879"/>
      <point x="475" y="881" type="curve" smooth="yes"/>
      <point x="536" y="883"/>
      <point x="578" y="930"/>
    </contour>
  </outline>
</glyph>
<glyph name="Aacute" format="1">
  <advance width="1167"/>
  <unicode hex="00C1"/>
  <outline>
    <contour>
      <point x="728" y="1600" type="move" name="parent_top"/>
    </contour>
    <contour>
      <point x="504" y="0" type="move" name="bottom"/>
    </contour>
    <contour>
      <point x="1284" y="1600" type="move" name="top_dd"/>
    </contour>
    <contour>
      <point x="993" y="-407" type="move" name="bottom_dd"/>
    </contour>
    <contour>
      <point x="1284" y="1600" type="move" name="top0315"/>
    </contour>
    <contour>
      <point x="784" y="1960" type="move" name="top"/>
    </contour>
    <component base="A"/>
    <component base="acute" xOffset="409" yOffset="310"/>
  </outline>
</glyph>
<glyph name="Atilde" format="1">
  <advance width="1167"/>
  <unicode hex="00C3"/>
  <outline>
    <contour>
      <point x="728" y="1600" type="move" name="parent_top"/>
    </contour>
    <contour>
      <point x="504" y="0" type="move" name="bottom"/>
    </contour>
    <contour>
      <point x="1284" y="1600" type="move" name="top_dd"/>
    </contour>
    <contour>
      <point x="993" y="-407" type="move" name="bottom_dd"/>
    </contour>
    <contour>
      <point x="1284" y="1600" type="move" name="top0315"/>
    </contour>
    <contour>
      <point x="778" y="1919" type="move" name="top"/>
    </contour>
    <component base="A"/>
    <component base="tilde" xOffset="201" yOffset="313"/>
  </outline>
</glyph>
<glyph name="Aring" format="1">
  <advance width="1167"/>
  <unicode hex="00C5"/>
  <outline>
    <contour>
      <point x="728" y="1600" type="move" name="parent_top"/>
    </contour>
    <contour>
      <point x="504" y="0" type="move" name="bottom"/>
    </contour>
    <contour>
      <point x="1284" y="1600" type="move" name="top_dd"/>
    </contour>
    <contour>
      <point x="993" y="-407" type="move" name="bottom_dd"/>
    </contour>
    <contour>
      <point x="1284" y="1600" type="move" name="top0315"/>
    </contour>
    <contour>
      <point x="792" y="2022" type="move" name="top"/>
    </contour>
    <component base="A"/>
    <component base="ring" xOffset="323" yOffset="322"/>
  </outline>
</glyph>
<glyph name="AE" format="1">
  <advance width="1625"/>
  <unicode hex="00C6"/>
  <outline>
    <contour>
      <point x="923" y="1612" type="move" name="top"/>
    </contour>
    <contour>
      <point x="1751" y="1600" type="move" name="top_dd"/>
    </contour>
    <contour>
      <point x="1752" y="1612" type="move" name="top0315"/>
    </contour>
    <contour>
      <point x="910" y="1288" type="line"/>
      <point x="951" y="1456" type="line"/>
      <point x="827" y="1456" type="line"/>
      <point x="-103" y="0" type="line"/>
      <point x="137" y="0" type="line"/>
      <point x="402" y="437" type="line"/>
      <point x="407" y="443" type="line"/>
    </contour>
    <contour>
      <point x="950" y="532" type="line"/>
      <point x="320" y="532" type="line"/>
      <point x="288" y="347" type="line"/>
      <point x="919" y="347" type="line"/>
    </contour>
    <contour>
      <point x="1521" y="160" type="line"/>
      <point x="923" y="160" type="line"/>
      <point x="895" y="0" type="line"/>
      <point x="1494" y="0" type="line"/>
    </contour>
    <contour>
      <point x="1088" y="1456" type="line"/>
      <point x="902" y="1456" type="line"/>
      <point x="739" y="0" type="line"/>
      <point x="925" y="0" type="line"/>
    </contour>
    <contour>
      <point x="1502" y="838" type="line"/>
      <point x="987" y="838" type="line"/>
      <point x="960" y="678" type="line"/>
      <point x="1475" y="678" type="line"/>
    </contour>
    <contour>
      <point x="1656" y="1456" type="line"/>
      <point x="1059" y="1456" type="line"/>
      <point x="1031" y="1296" type="line"/>
      <point x="1629" y="1296" type="line"/>
    </contour>
  </outline>
</glyph>
<glyph name="Ccedilla" format="1">
  <advance width="1136"/>
  <unicode hex="00C7"/>
  <outline>
    <contour>
      <point x="724" y="1633" type="move" name="parent_top"/>
    </contour>
    <contour>
      <point x="1253" y="1600" type="move" name="top_dd"/>
    </contour>
    <contour>
      <point x="962" y="-407" type="move" name="bottom_dd"/>
    </contour>
    <contour>
      <point x="1258" y="1633" type="move" name="top0315"/>
    </contour>
    <contour>
      <point x="724" y="1633" type="move" name="top"/>
    </contour>
    <contour>
      <point x="422" y="-450" type="move" name="bottom"/>
    </contour>
    <component base="C"/>
    <component base="cedilla" xOffset="370" yOffset="-10"/>
  </outline>
</glyph>
<glyph name="Ecircumflex" format="1">
  <advance width="997"/>
  <unicode hex="00CA"/>
  <outline>
    <contour>
      <point x="671" y="1612" type="move" name="parent_top"/>
    </contour>
    <contour>
      <point x="439" y="10" type="move" name="bottom"/>
    </contour>
    <contour>
      <point x="1113" y="1600" type="move" name="top_dd"/>
    </contour>
    <contour>
      <point x="822" y="-407" type="move" name="bottom_dd"/>
    </contour>
    <contour>
      <point x="1115" y="1612" type="move" name="top0315"/>
    </contour>
    <contour>
      <point x="723" y="1962" type="move" name="top"/>
    </contour>
    <component base="E"/>
    <component base="circumflex" xOffset="149" yOffset="322"/>
  </outline>
</glyph>
<glyph name="Eth" format="1">
  <advance width="1169"/>
  <unicode hex="00D0"/>
  <outline>
    <contour>
      <point x="668" y="1612" type="move" name="parent_top"/>
    </contour>
    <contour>
      <point x="439" y="10" type="move" name="bottom"/>
    </contour>
    <contour>
      <point x="1285" y="1600" type="move" name="top_dd"/>
    </contour>
    <contour>
      <point x="994" y="-407" type="move" name="bottom_dd"/>
    </contour>
    <contour>
      <point x="1287" y="1612" type="move" name="top0315"/>
    </contour>
    <contour>
      <point x="668" y="1612" type="move" name="top"/>
    </contour>
    <component base="D" xOffset="24"/>
    <component base="crossbar" xOffset="-107" yOffset="16"/>
  </outline>
</glyph>
<glyph name="Ntilde" format="1">
  <advance width="1242"/>
  <unicode hex="00D1"/>
  <outline>
    <contour>
      <point x="756" y="1600" type="move" name="parent_top"/>
    </contour>
    <contour>
      <point x="519" y="10" type="move" name="bottom"/>
    </contour>
    <contour>
      <point x="1358" y="1600" type="move" name="top_dd"/>
    </contour>
    <contour>
      <point x="1067" y="-407" type="move" name="bottom_dd"/>
    </contour>
    <contour>
      <point x="1358" y="1600" type="move" name="top0315"/>
    </contour>
    <contour>
      <point x="806" y="1919" type="move" name="top"/>
    </contour>
    <component base="N"/>
    <component base="tilde" xOffset="229" yOffset="313"/>
  </outline>
</glyph>
<glyph name="Otilde" format="1">
  <advance width="1208"/>
  <unicode hex="00D5"/>
  <outline>
    <contour>
      <point x="748" y="1600" type="move" name="parent_top"/>
    </contour>
    <contour>
      <point x="516" y="0" type="move" name="bottom"/>
    </contour>
    <contour>
      <point x="1325" y="1600" type="move" name="top_dd"/>
    </contour>
    <contour>
      <point x="1034" y="-407" type="move" name="bottom_dd"/>
    </contour>
    <contour>
      <point x="1324" y="1600" type="move" name="top0315"/>
    </contour>
    <contour>
      <point x="797" y="1919" type="move" name="top"/>
    </contour>
    <component base="O"/>
    <component base="tilde" xOffset="221" yOffset="313"/>
  </outline>
</glyph>
<glyph name="multiply" format="1">
  <advance width="941"/>
  <unicode hex="00D7"/>
  <outline>
    <contour>
      <point x="168" y="224" type="line"/>
      <point x="909" y="1009" type="line"/>
      <point x="806" y="1149" type="line"/>
      <point x="64" y="364" type="line"/>
    </contour>
    <contour>
      <point x="681" y="223" type="line"/>
      <point x="811" y="346" type="line"/>
      <point x="285" y="1149" type="line"/>
      <point x="154" y="1027" type="line"/>
    </contour>
  </outline>
</glyph>
<glyph name="Oslash" format="1">
  <advance width="1200"/>
  <unicode hex="00D8"/>
  <outline>
    <contour>
      <point x="759" y="1674" type="move" name="top"/>
    </contour>
    <contour>
      <point x="1325" y="1600" type="move" name="top_dd"/>
    </contour>
    <contour>
      <point x="1336" y="1674" type="move" name="top0315"/>
    </contour>
    <contour>
      <point x="524" y="-21" type="curve" smooth="yes"/>
      <point x="872" y="-27"/>
      <point x="1058" y="325"/>
      <point x="1102" y="688" type="curve" smooth="yes"/>
      <point x="1108" y="768" type="line" smooth="yes"/>
      <point x="1126" y="934"/>
      <point x="1118" y="1102"/>
      <point x="1065" y="1258" type="curve"/>
      <point x="1248" y="1517" type="line"/>
      <point x="1099" y="1518" type="line"/>
      <point x="990" y="1355" type="line"/>
      <point x="913" y="1438"/>
      <point x="813" y="1474"/>
      <point x="713" y="1476" type="curve" smooth="yes"/>
      <point x="369" y="1483"/>
      <point x="177" y="1127"/>
      <point x="134" y="767" type="curve" smooth="yes"/>
      <point x="129" y="687" type="line" smooth="yes"/>
      <point x="108" y="499"/>
      <point x="123" y="306"/>
      <point x="208" y="142" type="curve"/>
      <point x="41" y="-94" type="line"/>
      <point x="192" y="-94" type="line"/>
      <point x="292" y="61" type="line"/>
      <point x="364" y="7"/>
      <point x="442" y="-19"/>
    </contour>
    <contour>
      <point x="320" y="687" type="curve" smooth="yes"/>
      <point x="327" y="770" type="line" smooth="yes"/>
      <point x="356" y="1021"/>
      <point x="462" y="1311"/>
      <point x="705" y="1304" type="curve" smooth="yes"/>
      <point x="773" y="1301"/>
      <point x="839" y="1272"/>
      <point x="880" y="1198" type="curve"/>
      <point x="325" y="309" type="line"/>
      <point x="299" y="430"/>
      <point x="307" y="563"/>
    </contour>
    <contour>
      <point x="917" y="770" type="curve" smooth="yes"/>
      <point x="910" y="687" type="line" smooth="yes"/>
      <point x="880" y="430"/>
      <point x="782" y="144"/>
      <point x="533" y="151" type="curve" smooth="yes"/>
      <point x="485" y="153"/>
      <point x="438" y="169"/>
      <point x="399" y="210" type="curve"/>
      <point x="934" y="1074" type="line"/>
      <point x="936" y="973"/>
      <point x="928" y="871"/>
    </contour>
  </outline>
</glyph>
<glyph name="Thorn" format="1">
  <advance width="1024"/>
  <unicode hex="00DE"/>
  <outline>
    <contour>
      <point x="272" y="1456" type="line"/>
      <point x="59" y="0" type="line"/>
      <point x="246" y="0" type="line"/>
      <point x="458" y="1456" type="line"/>
    </contour>
    <contour>
      <point x="332" y="1165" type="line"/>
      <point x="399" y="1005" type="line"/>
      <point x="602" y="1004" type="line" smooth="yes"/>
      <point x="722" y="998"/>
      <point x="788" y="899"/>
      <point x="775" y="745" type="curve" smooth="yes"/>
      <point x="758" y="569"/>
      <point x="643" y="472"/>
      <point x="507" y="470" type="curve" smooth="yes"/>
      <point x="283" y="472" type="line"/>
      <point x="256" y="312" type="line"/>
      <point x="504" y="311" type="line" smooth="yes"/>
      <point x="734" y="311"/>
      <point x="944" y="459"/>
      <point x="961" y="746" type="curve" smooth="yes"/>
      <point x="977" y="1009"/>
      <point x="815" y="1157"/>
      <point x="605" y="1164" type="curve" smooth="yes"/>
    </contour>
  </outline>
</glyph>
<glyph name="germandbls" format="1">
  <advance width="1042"/>
  <unicode hex="00DF"/>
  <outline>
    <contour>
      <point x="382" y="1110" type="line" smooth="yes"/>
      <point x="397" y="1251"/>
      <point x="448" y="1405"/>
      <point x="582" y="1399" type="curve" smooth="yes"/>
      <point x="675" y="1395"/>
      <point x="703" y="1309"/>
      <point x="693" y="1206" type="curve" smooth="yes"/>
      <point x="678" y="1053"/>
      <point x="539" y="967"/>
      <point x="530" y="811" type="curve" smooth="yes"/>
      <point x="519" y="593"/>
      <point x="753" y="509"/>
      <point x="733" y="316" type="curve" smooth="yes"/>
      <point x="721" y="194"/>
      <point x="643" y="138"/>
      <point x="553" y="139" type="curve" smooth="yes"/>
      <point x="490" y="140"/>
      <point x="429" y="172"/>
      <point x="378" y="215" type="curve"/>
      <point x="326" y="50" type="line"/>
      <point x="398" y="1"/>
      <point x="486" y="-20"/>
      <point x="567" y="-22" type="curve" smooth="yes"/>
      <point x="758" y="-25"/>
      <point x="911" y="95"/>
      <point x="918" y="328" type="curve" smooth="yes"/>
      <point x="922" y="534"/>
      <point x="692" y="625"/>
      <point x="717" y="810" type="curve" smooth="yes"/>
      <point x="740" y="963"/>
      <point x="862" y="1055"/>
      <point x="872" y="1222" type="curve" smooth="yes"/>
      <point x="885" y="1435"/>
      <point x="765" y="1552"/>
      <point x="586" y="1557" type="curve" smooth="yes"/>
      <point x="353" y="1563"/>
      <point x="225" y="1356"/>
      <point x="197" y="1109" type="curve" smooth="yes"/>
      <point x="39" y="0" type="line"/>
      <point x="225" y="0" type="line"/>
    </contour>
  </outline>
</glyph>
<glyph name="aacute" format="1">
  <advance width="965"/>
  <unicode hex="00E1"/>
  <outline>
    <contour>
      <point x="595" y="1290" type="move" name="parent_top"/>
    </contour>
    <contour>
      <point x="340" y="0" type="move" name="bottom"/>
    </contour>
    <contour>
      <point x="1082" y="1600" type="move" name="top_dd"/>
    </contour>
    <contour>
      <point x="791" y="-407" type="move" name="bottom_dd"/>
    </contour>
    <contour>
      <point x="1037" y="1290" type="move" name="top0315"/>
    </contour>
    <contour>
      <point x="650" y="1650" type="move" name="top"/>
    </contour>
    <component base="a"/>
    <component base="acute" xOffset="276"/>
  </outline>
</glyph>
<glyph name="atilde" format="1">
  <advance width="965"/>
  <unicode hex="00E3"/>
  <outline>
    <contour>
      <point x="595" y="1290" type="move" name="parent_top"/>
    </contour>
    <contour>
      <point x="340" y="0" type="move" name="bottom"/>
    </contour>
    <contour>
      <point x="1082" y="1600" type="move" name="top_dd"/>
    </contour>
    <contour>
      <point x="791" y="-407" type="move" name="bottom_dd"/>
    </contour>
    <contour>
      <point x="1037" y="1290" type="move" name="top0315"/>
    </contour>
    <contour>
      <point x="644" y="1609" type="move" name="top"/>
    </contour>
    <component base="a"/>
    <component base="tilde" xOffset="68" yOffset="3"/>
  </outline>
</glyph>
<glyph name="aring" format="1">
  <advance width="965"/>
  <unicode hex="00E5"/>
  <outline>
    <contour>
      <point x="595" y="1290" type="move" name="parent_top"/>
    </contour>
    <contour>
      <point x="340" y="0" type="move" name="bottom"/>
    </contour>
    <contour>
      <point x="1082" y="1600" type="move" name="top_dd"/>
    </contour>
    <contour>
      <point x="791" y="-407" type="move" name="bottom_dd"/>
    </contour>
    <contour>
      <point x="1037" y="1290" type="move" name="top0315"/>
    </contour>
    <contour>
      <point x="659" y="1712" type="move" name="top"/>
    </contour>
    <component base="a"/>
    <component base="ring" xOffset="189" yOffset="12"/>
  </outline>
</glyph>
<glyph name="ae" format="1">
  <advance width="1448"/>
  <unicode hex="00E6"/>
  <outline>
    <contour>
      <point x="820" y="1291" type="move" name="top"/>
    </contour>
    <contour>
      <point x="1573" y="1600" type="move" name="top_dd"/>
    </contour>
    <contour>
      <point x="1528" y="1291" type="move" name="top0315"/>
    </contour>
    <contour>
      <point x="551" y="181" type="line"/>
      <point x="738" y="216" type="line"/>
      <point x="807" y="749" type="line"/>
      <point x="825" y="975"/>
      <point x="708" y="1098"/>
      <point x="516" y="1103" type="curve" smooth="yes"/>
      <point x="342" y="1107"/>
      <point x="149" y="1005"/>
      <point x="132" y="778" type="curve"/>
      <point x="318" y="759" type="line"/>
      <point x="332" y="879"/>
      <point x="418" y="946"/>
      <point x="507" y="943" type="curve" smooth="yes"/>
      <point x="603" y="939"/>
      <point x="641" y="834"/>
      <point x="627" y="722" type="curve" smooth="yes"/>
    </contour>
    <contour>
      <point x="658" y="636" type="line"/>
      <point x="444" y="637" type="line" smooth="yes"/>
      <point x="255" y="637"/>
      <point x="47" y="557"/>
      <point x="38" y="298" type="curve" smooth="yes"/>
      <point x="31" y="103"/>
      <point x="134" y="-17"/>
      <point x="296" y="-21" type="curve" smooth="yes"/>
      <point x="438" y="-24"/>
      <point x="598" y="35"/>
      <point x="697" y="192" type="curve"/>
      <point x="632" y="350" type="line"/>
      <point x="571" y="224"/>
      <point x="439" y="135"/>
      <point x="342" y="137" type="curve" smooth="yes"/>
      <point x="271" y="139"/>
      <point x="217" y="192"/>
      <point x="226" y="294" type="curve" smooth="yes"/>
      <point x="238" y="432"/>
      <point x="351" y="489"/>
      <point x="443" y="490" type="curve" smooth="yes"/>
      <point x="633" y="489" type="line"/>
    </contour>
    <contour>
      <point x="972" y="-20" type="curve" smooth="yes"/>
      <point x="1077" y="-21"/>
      <point x="1211" y="10"/>
      <point x="1293" y="99" type="curve"/>
      <point x="1242" y="244" type="line"/>
      <point x="1157" y="185"/>
      <point x="1077" y="138"/>
      <point x="978" y="140" type="curve" smooth="yes"/>
      <point x="807" y="145"/>
      <point x="771" y="338"/>
      <point x="788" y="520" type="curve"/>
      <point x="797" y="602" type="line"/>
      <point x="823" y="767"/>
      <point x="904" y="950"/>
      <point x="1050" y="943" type="curve" smooth="yes"/>
      <point x="1172" y="938"/>
      <point x="1210" y="815"/>
      <point x="1194" y="674" type="curve" smooth="yes"/>
      <point x="1189" y="641" type="line"/>
      <point x="726" y="641" type="line"/>
      <point x="702" y="491" type="line"/>
      <point x="1356" y="491" type="line"/>
      <point x="1372" y="612" type="line" smooth="yes"/>
      <point x="1398" y="872"/>
      <point x="1300" y="1094"/>
      <point x="1060" y="1102" type="curve" smooth="yes"/>
      <point x="825" y="1110"/>
      <point x="642" y="836"/>
      <point x="618" y="562" type="curve" smooth="yes"/>
      <point x="615" y="519" type="line" smooth="yes"/>
      <point x="588" y="229"/>
      <point x="674" y="-16"/>
    </contour>
  </outline>
</glyph>
<glyph name="eacute" format="1">
  <advance width="947"/>
  <unicode hex="00E9"/>
  <outline>
    <contour>
      <point x="580" y="1290" type="move" name="parent_top"/>
    </contour>
    <contour>
      <point x="396" y="0" type="move" name="bottom"/>
    </contour>
    <contour>
      <point x="1064" y="1600" type="move" name="top_dd"/>
    </contour>
    <contour>
      <point x="773" y="-407" type="move" name="bottom_dd"/>
    </contour>
    <contour>
      <point x="1019" y="1290" type="move" name="top0315"/>
    </contour>
    <contour>
      <point x="635" y="1650" type="move" name="top"/>
    </contour>
    <component base="e"/>
    <component base="acute" xOffset="261"/>
  </outline>
</glyph>
<glyph name="ecircumflex" format="1">
  <advance width="947"/>
  <unicode hex="00EA"/>
  <outline>
    <contour>
      <point x="580" y="1290" type="move" name="parent_top"/>
    </contour>
    <contour>
      <point x="396" y="0" type="move" name="bottom"/>
    </contour>
    <contour>
      <point x="1064" y="1600" type="move" name="top_dd"/>
    </contour>
    <contour>
      <point x="773" y="-407" type="move" name="bottom_dd"/>
    </contour>
    <contour>
      <point x="1019" y="1290" type="move" name="top0315"/>
    </contour>
    <contour>
      <point x="632" y="1640" type="move" name="top"/>
    </contour>
    <component base="e"/>
    <component base="circumflex" xOffset="58"/>
  </outline>
</glyph>
<glyph name="iacute" format="1">
  <advance width="488"/>
  <unicode hex="00ED"/>
  <outline>
    <contour>
      <point x="338" y="1290" type="move" name="parent_top"/>
    </contour>
    <contour>
      <point x="147" y="10" type="move" name="bottom"/>
    </contour>
    <contour>
      <point x="560" y="1290" type="move" name="top0315"/>
    </contour>
    <contour>
      <point x="393" y="1650" type="move" name="top"/>
    </contour>
    <component base="dotlessi"/>
    <component base="acute" xOffset="18"/>
  </outline>
</glyph>
<glyph name="idieresis" format="1">
  <advance width="488"/>
  <unicode hex="00EF"/>
  <outline>
    <contour>
      <point x="338" y="1290" type="move" name="parent_top"/>
    </contour>
    <contour>
      <point x="147" y="10" type="move" name="bottom"/>
    </contour>
    <contour>
      <point x="560" y="1290" type="move" name="top0315"/>
    </contour>
    <contour>
      <point x="381" y="1580" type="move" name="top"/>
    </contour>
    <component base="dotlessi"/>
    <component base="dieresis" xOffset="-120"/>
  </outline>
</glyph>
<glyph name="eth" format="1">
  <advance width="1023"/>
  <unicode hex="00F0"/>
  <outline>
    <contour>
      <point x="323" y="1413" type="line"/>
      <point x="626" y="1308"/>
      <point x="769" y="1058"/>
      <point x="718" y="638" type="curve" smooth="yes"/>
      <point x="706" y="535" type="line" smooth="yes"/>
      <point x="686" y="364"/>
      <point x="609" y="131"/>
      <point x="443" y="139" type="curve" smooth="yes"/>
      <point x="312" y="145"/>
      <point x="269" y="314"/>
      <point x="280" y="460" type="curve" smooth="yes"/>
      <point x="295" y="650"/>
      <point x="391" y="826"/>
      <point x="560" y="820" type="curve" smooth="yes"/>
      <point x="649" y="816"/>
      <point x="741" y="749"/>
      <point x="733" y="618" type="curve"/>
      <point x="806" y="615" type="line"/>
      <point x="808" y="849"/>
      <point x="680" y="973"/>
      <point x="519" y="980" type="curve" smooth="yes"/>
      <point x="273" y="989"/>
      <point x="111" y="726"/>
      <point x="93" y="459" type="curve" smooth="yes"/>
      <point x="76" y="207"/>
      <point x="208" y="-14"/>
      <point x="430" y="-21" type="curve" smooth="yes"/>
      <point x="696" y="-29"/>
      <point x="859" y="255"/>
      <point x="892" y="535" type="curve" smooth="yes"/>
      <point x="905" y="635" type="line" smooth="yes"/>
      <point x="958" y="1094"/>
      <point x="774" y="1477"/>
      <point x="393" y="1581" type="curve"/>
    </contour>
    <contour>
      <point x="942" y="1409" type="line"/>
      <point x="882" y="1522" type="line"/>
      <point x="379" y="1155" type="line"/>
      <point x="441" y="1042" type="line"/>
    </contour>
  </outline>
</glyph>
<glyph name="ntilde" format="1">
  <advance width="972"/>
  <unicode hex="00F1"/>
  <outline>
    <contour>
      <point x="585" y="1290" type="move" name="parent_top"/>
    </contour>
    <contour>
      <point x="389" y="10" type="move" name="bottom"/>
    </contour>
    <contour>
      <point x="1089" y="1600" type="move" name="top_dd"/>
    </contour>
    <contour>
      <point x="798" y="-407" type="move" name="bottom_dd"/>
    </contour>
    <contour>
      <point x="1044" y="1290" type="move" name="top0315"/>
    </contour>
    <contour>
      <point x="634" y="1609" type="move" name="top"/>
    </contour>
    <component base="n"/>
    <component base="tilde" xOffset="58" yOffset="3"/>
  </outline>
</glyph>
<glyph name="divide" format="1">
  <advance width="996"/>
  <unicode hex="00F7"/>
  <outline>
    <contour>
      <point x="921" y="788" type="line"/>
      <point x="106" y="788" type="line"/>
      <point x="73" y="593" type="line"/>
      <point x="887" y="593" type="line"/>
    </contour>
    <contour>
      <point x="452" y="1097" type="curve" smooth="yes"/>
      <point x="452" y="1029"/>
      <point x="499" y="983"/>
      <point x="562" y="985" type="curve" smooth="yes"/>
      <point x="625" y="987"/>
      <point x="670" y="1034"/>
      <point x="671" y="1103" type="curve" smooth="yes"/>
      <point x="671" y="1172"/>
      <point x="624" y="1220"/>
      <point x="560" y="1218" type="curve" smooth="yes"/>
      <point x="495" y="1216"/>
      <point x="452" y="1166"/>
    </contour>
    <contour>
      <point x="331" y="277" type="curve" smooth="yes"/>
      <point x="331" y="209"/>
      <point x="378" y="163"/>
      <point x="441" y="165" type="curve" smooth="yes"/>
      <point x="505" y="167"/>
      <point x="550" y="214"/>
      <point x="550" y="283" type="curve" smooth="yes"/>
      <point x="550" y="352"/>
      <point x="504" y="400"/>
      <point x="440" y="398" type="curve" smooth="yes"/>
      <point x="375" y="396"/>
      <point x="331" y="346"/>
    </contour>
  </outline>
</glyph>
<glyph name="oslash" format="1">
  <advance width="996"/>
  <unicode hex="00F8"/>
  <outline>
    <contour>
      <point x="565" y="1289" type="move" name="top"/>
    </contour>
    <contour>
      <point x="1121" y="1600" type="move" name="top_dd"/>
    </contour>
    <contour>
      <point x="1076" y="1289" type="move" name="top0315"/>
    </contour>
    <contour>
      <point x="929" y="1208" type="line"/>
      <point x="801" y="1208" type="line"/>
      <point x="675" y="989" type="line"/>
      <point x="666" y="969" type="line"/>
      <point x="231" y="156" type="line"/>
      <point x="222" y="128" type="line"/>
      <point x="66" y="-134" type="line"/>
      <point x="194" y="-134" type="line"/>
      <point x="313" y="72" type="line"/>
      <point x="326" y="103" type="line"/>
      <point x="750" y="896" type="line"/>
      <point x="764" y="930" type="line"/>
    </contour>
    <contour>
      <point x="87" y="524" type="line" smooth="yes"/>
      <point x="65" y="200"/>
      <point x="172" y="-14"/>
      <point x="425" y="-20" type="curve" smooth="yes"/>
      <point x="691" y="-27"/>
      <point x="872" y="240"/>
      <point x="900" y="532" type="curve" smooth="yes"/>
      <point x="901" y="553" type="line" smooth="yes"/>
      <point x="926" y="877"/>
      <point x="819" y="1097"/>
      <point x="551" y="1102" type="curve" smooth="yes"/>
      <point x="282" y="1107"/>
      <point x="114" y="837"/>
      <point x="89" y="545" type="curve" smooth="yes"/>
    </contour>
    <contour>
      <point x="275" y="547" type="line" smooth="yes"/>
      <point x="298" y="729"/>
      <point x="373" y="952"/>
      <point x="546" y="945" type="curve" smooth="yes"/>
      <point x="708" y="938"/>
      <point x="742" y="794"/>
      <point x="715" y="553" type="curve" smooth="yes"/>
      <point x="713" y="532" type="line" smooth="yes"/>
      <point x="692" y="348"/>
      <point x="610" y="132"/>
      <point x="438" y="138" type="curve" smooth="yes"/>
      <point x="276" y="144"/>
      <point x="244" y="312"/>
      <point x="272" y="523" type="curve" smooth="yes"/>
    </contour>
  </outline>
</glyph>
<glyph name="ugrave" format="1">
  <advance width="971"/>
  <unicode hex="00F9"/>
  <outline>
    <contour>
      <point x="579" y="1290" type="move" name="parent_top"/>
    </contour>
    <contour>
      <point x="1087" y="1600" type="move" name="top_dd"/>
    </contour>
    <contour>
      <point x="796" y="-407" type="move" name="bottom_dd"/>
    </contour>
    <contour>
      <point x="1042" y="1290" type="move" name="top0315"/>
    </contour>
    <contour>
      <point x="392" y="0" type="move" name="bottom"/>
    </contour>
    <contour>
      <point x="634" y="1650" type="move" name="top"/>
    </contour>
    <component base="u"/>
    <component base="grave" xOffset="156"/>
  </outline>
</glyph>
<glyph name="thorn" format="1">
  <advance width="1017"/>
  <unicode hex="00FE"/>
  <outline>
    <contour>
      <point x="459" y="1536" type="line"/>
      <point x="273" y="1536" type="line"/>
      <point x="-12" y="-416" type="line"/>
      <point x="174" y="-416" type="line"/>
      <point x="269" y="182" type="line"/>
      <point x="268" y="231" type="line"/>
      <point x="366" y="896" type="line"/>
      <point x="364" y="934" type="line"/>
    </contour>
    <contour>
      <point x="896" y="556" type="line" smooth="yes"/>
      <point x="916" y="801"/>
      <point x="859" y="1094"/>
      <point x="611" y="1103" type="curve" smooth="yes"/>
      <point x="366" y="1111"/>
      <point x="210" y="837"/>
      <point x="176" y="571" type="curve" smooth="yes"/>
      <point x="178" y="489" type="line"/>
      <point x="162" y="239"/>
      <point x="207" y="-15"/>
      <point x="486" y="-21" type="curve" smooth="yes"/>
      <point x="744" y="-27"/>
      <point x="868" y="272"/>
      <point x="894" y="535" type="curve" smooth="yes"/>
    </contour>
    <contour>
      <point x="708" y="537" type="line" smooth="yes"/>
      <point x="689" y="353"/>
      <point x="609" y="133"/>
      <point x="434" y="139" type="curve" smooth="yes"/>
      <point x="312" y="144"/>
      <point x="249" y="267"/>
      <point x="250" y="405" type="curve"/>
      <point x="280" y="656" type="line"/>
      <point x="310" y="806"/>
      <point x="433" y="943"/>
      <point x="544" y="938" type="curve" smooth="yes"/>
      <point x="702" y="931"/>
      <point x="722" y="716"/>
      <point x="710" y="558" type="curve" smooth="yes"/>
    </contour>
  </outline>
</glyph>
<glyph name="ydieresis" format="1">
  <advance width="836"/>
  <unicode hex="00FF"/>
  <outline>
    <contour>
      <point x="531" y="1290" type="move" name="parent_top"/>
    </contour>
    <contour>
      <point x="488" y="-158" type="move" name="bottom"/>
    </contour>
    <contour>
      <point x="952" y="1600" type="move" name="top_dd"/>
    </contour>
    <contour>
      <point x="661" y="-407" type="move" name="bottom_dd"/>
    </contour>
    <contour>
      <point x="907" y="1290" type="move" name="top0315"/>
    </contour>
    <contour>
      <point x="574" y="1580" type="move" name="top"/>
    </contour>
    <component base="y"/>
    <component base="dieresis" xOffset="74"/>
  </outline>
</glyph>
<glyph name="aogonek" format="1">
  <advance width="965"/>
  <unicode hex="0105"/>
  <outline>
    <contour>
      <point x="595" y="1290" type="move" name="parent_top"/>
    </contour>
    <contour>
      <point x="340" y="0" type="move" name="bottom"/>
    </contour>
    <contour>
      <point x="1082" y="1600" type="move" name="top_dd"/>
    </contour>
    <contour>
      <point x="791" y="-407" type="move" name="bottom_dd"/>
    </contour>
    <contour>
      <point x="1037" y="1290" type="move" name="top0315"/>
    </contour>
    <contour>
      <point x="595" y="1290" type="move" name="top"/>
    </contour>
    <component base="a"/>
    <component base="ogonek" xOffset="470"/>
  </outline>
</glyph>
<glyph name="cacute" format="1">
  <advance width="931"/>
  <unicode hex="0107"/>
  <outline>
    <contour>
      <point x="550" y="1290" type="move" name="parent_top"/>
    </contour>
    <contour>
      <point x="362" y="-10" type="move" name="bottom"/>
    </contour>
    <contour>
      <point x="1048" y="1600" type="move" name="top_dd"/>
    </contour>
    <contour>
      <point x="756" y="-407" type="move" name="bottom_dd"/>
    </contour>
    <contour>
      <point x="1003" y="1290" type="move" name="top0315"/>
    </contour>
    <contour>
      <point x="606" y="1650" type="move" name="top"/>
    </contour>
    <component base="c"/>
    <component base="acute" xOffset="231"/>
  </outline>
</glyph>
<glyph name="ccircumflex" format="1">
  <advance width="931"/>
  <unicode hex="0109"/>
  <outline>
    <contour>
      <point x="550" y="1290" type="move" name="parent_top"/>
    </contour>
    <contour>
      <point x="362" y="-10" type="move" name="bottom"/>
    </contour>
    <contour>
      <point x="1048" y="1600" type="move" name="top_dd"/>
    </contour>
    <contour>
      <point x="756" y="-407" type="move" name="bottom_dd"/>
    </contour>
    <contour>
      <point x="1003" y="1290" type="move" name="top0315"/>
    </contour>
    <contour>
      <point x="602" y="1640" type="move" name="top"/>
    </contour>
    <component base="c"/>
    <component base="circumflex" xOffset="28"/>
  </outline>
</glyph>
<glyph name="uni010B" format="1">
  <advance width="931"/>
  <unicode hex="010B"/>
  <outline>
    <contour>
      <point x="550" y="1290" type="move" name="parent_top"/>
    </contour>
    <contour>
      <point x="362" y="-10" type="move" name="bottom"/>
    </contour>
    <contour>
      <point x="1048" y="1600" type="move" name="top_dd"/>
    </contour>
    <contour>
      <point x="756" y="-407" type="move" name="bottom_dd"/>
    </contour>
    <contour>
      <point x="1003" y="1290" type="move" name="top0315"/>
    </contour>
    <contour>
      <point x="593" y="1577" type="move" name="top"/>
    </contour>
    <component base="c"/>
    <component base="dotaccent" xOffset="216"/>
  </outline>
</glyph>
<glyph name="Ccaron" format="1">
  <advance width="1136"/>
  <unicode hex="010C"/>
  <outline>
    <contour>
      <point x="724" y="1633" type="move" name="parent_top"/>
    </contour>
    <contour>
      <point x="486" y="-10" type="move" name="bottom"/>
    </contour>
    <contour>
      <point x="1253" y="1600" type="move" name="top_dd"/>
    </contour>
    <contour>
      <point x="962" y="-407" type="move" name="bottom_dd"/>
    </contour>
    <contour>
      <point x="1258" y="1633" type="move" name="top0315"/>
    </contour>
    <contour>
      <point x="777" y="1978" type="move" name="top"/>
    </contour>
    <component base="C"/>
    <component base="caron" xOffset="223" yOffset="343"/>
  </outline>
</glyph>
<glyph name="Dcaron" format="1">
  <advance width="1144"/>
  <unicode hex="010E"/>
  <outline>
    <contour>
      <point x="668" y="1612" type="move" name="parent_top"/>
    </contour>
    <contour>
      <point x="439" y="10" type="move" name="bottom"/>
    </contour>
    <contour>
      <point x="1261" y="1600" type="move" name="top_dd"/>
    </contour>
    <contour>
      <point x="970" y="-407" type="move" name="bottom_dd"/>
    </contour>
    <contour>
      <point x="1263" y="1612" type="move" name="top0315"/>
    </contour>
    <contour>
      <point x="721" y="1957" type="move" name="top"/>
    </contour>
    <component base="D"/>
    <component base="caron" xOffset="167" yOffset="322"/>
  </outline>
</glyph>
<glyph name="dcaron" format="1">
  <advance width="1121"/>
  <unicode hex="010F"/>
  <outline>
    <contour>
      <point x="441" y="0" type="move" name="bottom"/>
    </contour>
    <contour>
      <point x="617" y="1611" type="move" name="parent_top"/>
    </contour>
    <contour>
      <point x="1238" y="1600" type="move" name="top_dd"/>
    </contour>
    <contour>
      <point x="946" y="-407" type="move" name="bottom_dd"/>
    </contour>
    <contour>
      <point x="1239" y="1611" type="move" name="top0315"/>
    </contour>
    <contour>
      <point x="617" y="1611" type="move" name="top"/>
    </contour>
    <component base="d"/>
    <component base="commaaccent" xOffset="997" yOffset="1288"/>
  </outline>
</glyph>
<glyph name="dcroat" format="1">
  <advance width="1064"/>
  <unicode hex="0111"/>
  <outline>
    <contour>
      <point x="1067" y="1536" type="move" name="caron"/>
    </contour>
    <contour>
      <point x="441" y="0" type="move" name="bottom"/>
    </contour>
    <contour>
      <point x="617" y="1611" type="move" name="top"/>
    </contour>
    <contour>
      <point x="1115" y="1600" type="move" name="top_dd"/>
    </contour>
    <contour>
      <point x="824" y="-407" type="move" name="bottom_dd"/>
    </contour>
    <contour>
      <point x="441" y="0" type="move" name="markbottom"/>
    </contour>
    <contour>
      <point x="1191" y="1611" type="move" name="top0315"/>
    </contour>
    <contour>
      <point x="855" y="1310" type="move" name="parenthesses.w2"/>
    </contour>
    <contour>
      <point x="1135" y="1389" type="line"/>
      <point x="602" y="1389" type="line"/>
      <point x="575" y="1229" type="line"/>
      <point x="1108" y="1229" type="line"/>
    </contour>
    <contour>
      <point x="617" y="222" type="line"/>
      <point x="628" y="189" type="line"/>
      <point x="601" y="0" type="line"/>
      <point x="770" y="0" type="line"/>
      <point x="994" y="1536" type="line"/>
      <point x="808" y="1536" type="line"/>
      <point x="713" y="923" type="line"/>
      <point x="712" y="866" type="line"/>
    </contour>
    <contour>
      <point x="80" y="521" type="line" smooth="yes"/>
      <point x="62" y="286"/>
      <point x="136" y="-12"/>
      <point x="370" y="-21" type="curve" smooth="yes"/>
      <point x="638" y="-30"/>
      <point x="779" y="295"/>
      <point x="797" y="512" type="curve" smooth="yes"/>
      <point x="794" y="576" type="line" smooth="yes"/>
      <point x="835" y="869"/>
      <point x="754" y="1096"/>
      <point x="500" y="1103" type="curve" smooth="yes"/>
      <point x="240" y="1110"/>
      <point x="107" y="808"/>
      <point x="82" y="542" type="curve" smooth="yes"/>
    </contour>
    <contour>
      <point x="270" y="544" type="line" smooth="yes"/>
      <point x="288" y="728"/>
      <point x="366" y="945"/>
      <point x="541" y="937" type="curve" smooth="yes"/>
      <point x="657" y="932"/>
      <point x="729" y="818"/>
      <point x="722" y="656" type="curve"/>
      <point x="695" y="425" type="line"/>
      <point x="643" y="276"/>
      <point x="561" y="139"/>
      <point x="429" y="145" type="curve" smooth="yes"/>
      <point x="271" y="151"/>
      <point x="256" y="367"/>
      <point x="268" y="523" type="curve" smooth="yes"/>
    </contour>
  </outline>
</glyph>
<glyph name="ebreve" format="1">
  <advance width="947"/>
  <unicode hex="0115"/>
  <outline>
    <contour>
      <point x="580" y="1290" type="move" name="parent_top"/>
    </contour>
    <contour>
      <point x="396" y="0" type="move" name="bottom"/>
    </contour>
    <contour>
      <point x="1064" y="1600" type="move" name="top_dd"/>
    </contour>
    <contour>
      <point x="773" y="-407" type="move" name="bottom_dd"/>
    </contour>
    <contour>
      <point x="1019" y="1290" type="move" name="top0315"/>
    </contour>
    <contour>
      <point x="630" y="1614" type="move" name="top"/>
    </contour>
    <component base="e"/>
    <component base="breve" xOffset="110"/>
  </outline>
</glyph>
<glyph name="eogonek" format="1">
  <advance width="947"/>
  <unicode hex="0119"/>
  <outline>
    <contour>
      <point x="580" y="1290" type="move" name="parent_top"/>
    </contour>
    <contour>
      <point x="396" y="0" type="move" name="bottom"/>
    </contour>
    <contour>
      <point x="1064" y="1600" type="move" name="top_dd"/>
    </contour>
    <contour>
      <point x="773" y="-407" type="move" name="bottom_dd"/>
    </contour>
    <contour>
      <point x="1019" y="1290" type="move" name="top0315"/>
    </contour>
    <contour>
      <point x="580" y="1290" type="move" name="top"/>
    </contour>
    <component base="e"/>
    <component base="ogonek" xOffset="329" yOffset="23"/>
  </outline>
</glyph>
<glyph name="gcircumflex" format="1">
  <advance width="993"/>
  <unicode hex="011D"/>
  <outline>
    <contour>
      <point x="570" y="1290" type="move" name="parent_top"/>
    </contour>
    <contour>
      <point x="319" y="-447" type="move" name="bottom"/>
    </contour>
    <contour>
      <point x="1109" y="1600" type="move" name="top_dd"/>
    </contour>
    <contour>
      <point x="818" y="-407" type="move" name="bottom_dd"/>
    </contour>
    <contour>
      <point x="1064" y="1290" type="move" name="top0315"/>
    </contour>
    <contour>
      <point x="622" y="1640" type="move" name="top"/>
    </contour>
    <component base="g"/>
    <component base="circumflex" xOffset="48"/>
  </outline>
</glyph>
<glyph name="uni0120" format="1">
  <advance width="1182"/>
  <unicode hex="0120"/>
  <outline>
    <contour>
      <point x="709" y="1633" type="move" name="parent_top"/>
    </contour>
    <contour>
      <point x="526" y="-10" type="move" name="bottom"/>
    </contour>
    <contour>
      <point x="1299" y="1600" type="move" name="top_dd"/>
    </contour>
    <contour>
      <point x="1008" y="-407" type="move" name="bottom_dd"/>
    </contour>
    <contour>
      <point x="1304" y="1633" type="move" name="top0315"/>
    </contour>
    <contour>
      <point x="751" y="1920" type="move" name="top"/>
    </contour>
    <component base="G"/>
    <component base="dotaccent" xOffset="374" yOffset="343"/>
  </outline>
</glyph>
<glyph name="Gcommaaccent" format="1">
  <advance width="1182"/>
  <unicode hex="0122"/>
  <outline>
    <contour>
      <point x="709" y="1633" type="move" name="parent_top"/>
    </contour>
    <contour>
      <point x="1299" y="1600" type="move" name="top_dd"/>
    </contour>
    <contour>
      <point x="1008" y="-407" type="move" name="bottom_dd"/>
    </contour>
    <contour>
      <point x="1304" y="1633" type="move" name="top0315"/>
    </contour>
    <contour>
      <point x="709" y="1633" type="move" name="top"/>
    </contour>
    <contour>
      <point x="447" y="-534" type="move" name="bottom"/>
    </contour>
    <component base="G"/>
    <component base="commaaccent" xOffset="325" yOffset="-376"/>
  </outline>
</glyph>
<glyph name="hcircumflex" format="1">
  <advance width="970"/>
  <unicode hex="0125"/>
  <outline>
    <contour>
      <point x="582" y="1611" type="move" name="parent_top"/>
    </contour>
    <contour>
      <point x="418" y="10" type="move" name="bottom"/>
    </contour>
    <contour>
      <point x="1086" y="1600" type="move" name="top_dd"/>
    </contour>
    <contour>
      <point x="795" y="-407" type="move" name="bottom_dd"/>
    </contour>
    <contour>
      <point x="1088" y="1611" type="move" name="top0315"/>
    </contour>
    <contour>
      <point x="634" y="1961" type="move" name="top"/>
    </contour>
    <component base="h"/>
    <component base="circumflex" xOffset="60" yOffset="321"/>
  </outline>
</glyph>
<glyph name="Hbar" format="1">
  <advance width="1221"/>
  <unicode hex="0126"/>
  <outline>
    <contour>
      <point x="767" y="1612" type="move" name="top"/>
    </contour>
    <contour>
      <point x="534" y="10" type="move" name="bottom"/>
    </contour>
    <contour>
      <point x="1348" y="1612" type="move" name="top0315"/>
    </contour>
    <contour>
      <point x="1279" y="1174" type="line"/>
      <point x="133" y="1174" type="line"/>
      <point x="108" y="1024" type="line"/>
      <point x="1253" y="1024" type="line"/>
    </contour>
    <contour>
      <point x="953" y="835" type="line"/>
      <point x="361" y="835" type="line"/>
      <point x="333" y="669" type="line"/>
      <point x="925" y="669" type="line"/>
    </contour>
    <contour>
      <point x="476" y="1456" type="line"/>
      <point x="281" y="1456" type="line"/>
      <point x="68" y="0" type="line"/>
      <point x="263" y="0" type="line"/>
    </contour>
    <contour>
      <point x="1215" y="1456" type="line"/>
      <point x="1021" y="1456" type="line"/>
      <point x="808" y="0" type="line"/>
      <point x="1003" y="0" type="line"/>
    </contour>
  </outline>
</glyph>
<glyph name="hbar" format="1">
  <advance width="994"/>
  <unicode hex="0127"/>
  <outline>
    <contour>
      <point x="582" y="1611" type="move" name="parent_top"/>
    </contour>
    <contour>
      <point x="418" y="10" type="move" name="bottom"/>
    </contour>
    <contour>
      <point x="1111" y="1600" type="move" name="top_dd"/>
    </contour>
    <contour>
      <point x="819" y="-407" type="move" name="bottom_dd"/>
    </contour>
    <contour>
      <point x="1112" y="1611" type="move" name="top0315"/>
    </contour>
    <contour>
      <point x="582" y="1611" type="move" name="top"/>
    </contour>
    <component base="h" xOffset="24"/>
    <component base="crossbar" xOffset="-56" yOffset="584"/>
  </outline>
</glyph>
<glyph name="Itilde" format="1">
  <advance width="509"/>
  <unicode hex="0128"/>
  <outline>
    <contour>
      <point x="397" y="1612" type="move" name="parent_top"/>
    </contour>
    <contour>
      <point x="165" y="10" type="move" name="bottom"/>
    </contour>
    <contour>
      <point x="625" y="1600" type="move" name="top_dd"/>
    </contour>
    <contour>
      <point x="334" y="-407" type="move" name="bottom_dd"/>
    </contour>
    <contour>
      <point x="627" y="1612" type="move" name="top0315"/>
    </contour>
    <contour>
      <point x="446" y="1931" type="move" name="top"/>
    </contour>
    <component base="I"/>
    <component base="tilde" xOffset="-130" yOffset="325"/>
  </outline>
</glyph>
<glyph name="itilde" format="1">
  <advance width="488"/>
  <unicode hex="0129"/>
  <outline>
    <contour>
      <point x="338" y="1290" type="move" name="parent_top"/>
    </contour>
    <contour>
      <point x="147" y="10" type="move" name="bottom"/>
    </contour>
    <contour>
      <point x="560" y="1290" type="move" name="top0315"/>
    </contour>
    <contour>
      <point x="387" y="1609" type="move" name="top"/>
    </contour>
    <component base="dotlessi"/>
    <component base="tilde" xOffset="-190" yOffset="3"/>
  </outline>
</glyph>
<glyph name="Imacron" format="1">
  <advance width="509"/>
  <unicode hex="012A"/>
  <outline>
    <contour>
      <point x="397" y="1612" type="move" name="parent_top"/>
    </contour>
    <contour>
      <point x="165" y="10" type="move" name="bottom"/>
    </contour>
    <contour>
      <point x="625" y="1600" type="move" name="top_dd"/>
    </contour>
    <contour>
      <point x="334" y="-407" type="move" name="bottom_dd"/>
    </contour>
    <contour>
      <point x="627" y="1612" type="move" name="top0315"/>
    </contour>
    <contour>
      <point x="441" y="1910" type="move" name="top"/>
    </contour>
    <component base="I"/>
    <component base="macron" xOffset="-124" yOffset="330"/>
  </outline>
</glyph>
<glyph name="imacron" format="1">
  <advance width="488"/>
  <unicode hex="012B"/>
  <outline>
    <contour>
      <point x="338" y="1290" type="move" name="parent_top"/>
    </contour>
    <contour>
      <point x="147" y="10" type="move" name="bottom"/>
    </contour>
    <contour>
      <point x="560" y="1290" type="move" name="top0315"/>
    </contour>
    <contour>
      <point x="382" y="1588" type="move" name="top"/>
    </contour>
    <component base="dotlessi"/>
    <component base="macron" xOffset="-183" yOffset="8"/>
  </outline>
</glyph>
<glyph name="ibreve" format="1">
  <advance width="488"/>
  <unicode hex="012D"/>
  <outline>
    <contour>
      <point x="338" y="1290" type="move" name="parent_top"/>
    </contour>
    <contour>
      <point x="147" y="10" type="move" name="bottom"/>
    </contour>
    <contour>
      <point x="560" y="1290" type="move" name="top0315"/>
    </contour>
    <contour>
      <point x="387" y="1614" type="move" name="top"/>
    </contour>
    <component base="dotlessi"/>
    <component base="breve" xOffset="-132"/>
  </outline>
</glyph>
<glyph name="Iogonek" format="1">
  <advance width="509"/>
  <unicode hex="012E"/>
  <outline>
    <contour>
      <point x="397" y="1612" type="move" name="parent_top"/>
    </contour>
    <contour>
      <point x="625" y="1600" type="move" name="top_dd"/>
    </contour>
    <contour>
      <point x="334" y="-407" type="move" name="bottom_dd"/>
    </contour>
    <contour>
      <point x="627" y="1612" type="move" name="top0315"/>
    </contour>
    <contour>
      <point x="397" y="1612" type="move" name="top"/>
    </contour>
    <contour>
      <point x="100" y="-427" type="move" name="bottom"/>
    </contour>
    <component base="I"/>
    <component base="ogonek" xOffset="-23" yOffset="10"/>
  </outline>
</glyph>
<glyph name="dotlessi" format="1">
  <advance width="479"/>
  <unicode hex="0131"/>
  <outline>
    <contour>
      <point x="338" y="1290" type="move" name="top"/>
    </contour>
    <contour>
      <point x="147" y="10" type="move" name="bottom"/>
    </contour>
    <contour>
      <point x="270" y="654" type="move" name="rhotichook"/>
    </contour>
    <contour>
      <point x="560" y="1290" type="move" name="top0315"/>
    </contour>
    <contour>
      <point x="397" y="1082" type="line"/>
      <point x="210" y="1082" type="line"/>
      <point x="52" y="0" type="line"/>
      <point x="239" y="0" type="line"/>
    </contour>
  </outline>
</glyph>
<glyph name="jcircumflex" format="1">
  <advance width="493"/>
  <unicode hex="0135"/>
  <outline>
    <contour>
      <point x="346" y="1249" type="move" name="parent_top"/>
    </contour>
    <contour>
      <point x="559" y="1249" type="move" name="top0315"/>
    </contour>
    <contour>
      <point x="397" y="1599" type="move" name="top"/>
    </contour>
    <component base="uni0237"/>
    <component base="circumflex" xOffset="-177" yOffset="-41"/>
  </outline>
</glyph>
<glyph name="Kcommaaccent" format="1">
  <advance width="1091"/>
  <unicode hex="0136"/>
  <outline>
    <contour>
      <point x="661" y="1601" type="move" name="parent_top"/>
    </contour>
    <contour>
      <point x="1208" y="1600" type="move" name="top_dd"/>
    </contour>
    <contour>
      <point x="917" y="-407" type="move" name="bottom_dd"/>
    </contour>
    <contour>
      <point x="1210" y="1601" type="move" name="top0315"/>
    </contour>
    <contour>
      <point x="661" y="1601" type="move" name="top"/>
    </contour>
    <contour>
      <point x="413" y="-436" type="move" name="bottom"/>
    </contour>
    <component base="K"/>
    <component base="commaaccent" xOffset="291" yOffset="-278"/>
  </outline>
</glyph>
<glyph name="kcommaaccent" format="1">
  <advance width="913"/>
  <unicode hex="0137"/>
  <outline>
    <contour>
      <point x="616" y="1611" type="move" name="parent_top"/>
    </contour>
    <contour>
      <point x="1029" y="1600" type="move" name="top_dd"/>
    </contour>
    <contour>
      <point x="738" y="-407" type="move" name="bottom_dd"/>
    </contour>
    <contour>
      <point x="925" y="1611" type="move" name="top0315"/>
    </contour>
    <contour>
      <point x="616" y="1611" type="move" name="top"/>
    </contour>
    <contour>
      <point x="296" y="-457" type="move" name="bottom"/>
    </contour>
    <component base="k"/>
    <component base="commaaccent" xOffset="174" yOffset="-299"/>
  </outline>
</glyph>
<glyph name="kgreenlandic" format="1">
  <advance width="983"/>
  <unicode hex="0138"/>
  <outline>
    <contour>
      <point x="610" y="1290" type="move" name="top"/>
    </contour>
    <contour>
      <point x="424" y="10" type="move" name="bottom"/>
    </contour>
    <contour>
      <point x="1064" y="1290" type="move" name="top0315"/>
    </contour>
    <contour>
      <point x="399" y="1082" type="line"/>
      <point x="212" y="1082" type="line"/>
      <point x="54" y="0" type="line"/>
      <point x="240" y="0" type="line"/>
    </contour>
    <contour>
      <point x="980" y="1082" type="line"/>
      <point x="740" y="1082" type="line"/>
      <point x="377" y="628" type="line"/>
      <point x="243" y="628" type="line"/>
      <point x="244" y="456" type="line"/>
      <point x="448" y="456" type="line"/>
    </contour>
    <contour>
      <point x="610" y="0" type="line"/>
      <point x="828" y="0" type="line"/>
      <point x="491" y="627" type="line"/>
      <point x="357" y="496" type="line"/>
    </contour>
  </outline>
</glyph>
<glyph name="Lacute" format="1">
  <advance width="959"/>
  <unicode hex="0139"/>
  <outline>
    <contour>
      <point x="390" y="1600" type="move" name="parent_top"/>
    </contour>
    <contour>
      <point x="438" y="10" type="move" name="bottom"/>
    </contour>
    <contour>
      <point x="1076" y="1600" type="move" name="top_dd"/>
    </contour>
    <contour>
      <point x="785" y="-407" type="move" name="bottom_dd"/>
    </contour>
    <contour>
      <point x="1077" y="1600" type="move" name="top0315"/>
    </contour>
    <contour>
      <point x="445" y="1960" type="move" name="top"/>
    </contour>
    <component base="L"/>
    <component base="acute" xOffset="70" yOffset="310"/>
  </outline>
</glyph>
<glyph name="lacute" format="1">
  <advance width="474"/>
  <unicode hex="013A"/>
  <outline>
    <contour>
      <point x="392" y="1699" type="move" name="parent_top"/>
    </contour>
    <contour>
      <point x="147" y="10" type="move" name="bottom"/>
    </contour>
    <contour>
      <point x="590" y="1600" type="move" name="top_dd"/>
    </contour>
    <contour>
      <point x="299" y="-407" type="move" name="bottom_dd"/>
    </contour>
    <contour>
      <point x="606" y="1699" type="move" name="top0315"/>
    </contour>
    <contour>
      <point x="448" y="2059" type="move" name="top"/>
    </contour>
    <component base="l"/>
    <component base="acute" xOffset="73" yOffset="409"/>
  </outline>
</glyph>
<glyph name="Lcommaaccent" format="1">
  <advance width="959"/>
  <unicode hex="013B"/>
  <outline>
    <contour>
      <point x="390" y="1600" type="move" name="parent_top"/>
    </contour>
    <contour>
      <point x="1076" y="1600" type="move" name="top_dd"/>
    </contour>
    <contour>
      <point x="785" y="-407" type="move" name="bottom_dd"/>
    </contour>
    <contour>
      <point x="1077" y="1600" type="move" name="top0315"/>
    </contour>
    <contour>
      <point x="390" y="1600" type="move" name="top"/>
    </contour>
    <contour>
      <point x="359" y="-514" type="move" name="bottom"/>
    </contour>
    <component base="L"/>
    <component base="commaaccent" xOffset="236" yOffset="-356"/>
  </outline>
</glyph>
<glyph name="lcommaaccent" format="1">
  <advance width="474"/>
  <unicode hex="013C"/>
  <outline>
    <contour>
      <point x="392" y="1699" type="move" name="parent_top"/>
    </contour>
    <contour>
      <point x="590" y="1600" type="move" name="top_dd"/>
    </contour>
    <contour>
      <point x="299" y="-407" type="move" name="bottom_dd"/>
    </contour>
    <contour>
      <point x="606" y="1699" type="move" name="top0315"/>
    </contour>
    <contour>
      <point x="392" y="1699" type="move" name="top"/>
    </contour>
    <contour>
      <point x="68" y="-514" type="move" name="bottom"/>
    </contour>
    <component base="l"/>
    <component base="commaaccent" xOffset="-55" yOffset="-356"/>
  </outline>
</glyph>
<glyph name="Lcaron" format="1">
  <advance width="959"/>
  <unicode hex="013D"/>
  <outline>
    <contour>
      <point x="390" y="1600" type="move" name="parent_top"/>
    </contour>
    <contour>
      <point x="438" y="10" type="move" name="bottom"/>
    </contour>
    <contour>
      <point x="1076" y="1600" type="move" name="top_dd"/>
    </contour>
    <contour>
      <point x="785" y="-407" type="move" name="bottom_dd"/>
    </contour>
    <contour>
      <point x="1077" y="1600" type="move" name="top0315"/>
    </contour>
    <contour>
      <point x="390" y="1600" type="move" name="top"/>
    </contour>
    <component base="L"/>
    <component base="commaaccent" xOffset="576" yOffset="1207"/>
  </outline>
</glyph>
<glyph name="lcaron" format="1">
  <advance width="596"/>
  <unicode hex="013E"/>
  <outline>
    <contour>
      <point x="392" y="1699" type="move" name="parent_top"/>
    </contour>
    <contour>
      <point x="147" y="10" type="move" name="bottom"/>
    </contour>
    <contour>
      <point x="713" y="1600" type="move" name="top_dd"/>
    </contour>
    <contour>
      <point x="421" y="-407" type="move" name="bottom_dd"/>
    </contour>
    <contour>
      <point x="728" y="1699" type="move" name="top0315"/>
    </contour>
    <contour>
      <point x="392" y="1699" type="move" name="top"/>
    </contour>
    <component base="l"/>
    <component base="commaaccent" xOffset="490" yOffset="1288"/>
  </outline>
</glyph>
